<mxfile host="Electron" modified="2023-05-29T20:00:56.605Z" agent="Mozilla/5.0 (Macintosh; Intel Mac OS X 10_15_7) AppleWebKit/537.36 (KHTML, like Gecko) draw.io/21.2.8 Chrome/112.0.5615.165 Electron/24.2.0 Safari/537.36" etag="a12AeDIt-BswnRN6fqFm" version="21.2.8" type="device" pages="4">
  <diagram id="VMnP0e2BGriQt2estQrS" name="Services">
    <mxGraphModel dx="2069" dy="2004" grid="1" gridSize="10" guides="1" tooltips="1" connect="1" arrows="1" fold="1" page="1" pageScale="1" pageWidth="827" pageHeight="1169" math="0" shadow="0">
      <root>
        <mxCell id="0" />
        <mxCell id="1" parent="0" />
        <mxCell id="hNrkheXuV3fZ_5jc6I62-7" value="par" style="rounded=1;whiteSpace=wrap;html=1;labelBackgroundColor=none;strokeColor=#666666;strokeWidth=1;fillColor=#f5f5f5;fontColor=#333333;arcSize=20;absoluteArcSize=1;dashed=1;align=center;horizontal=1;verticalAlign=top;" parent="1" vertex="1">
          <mxGeometry x="-230" y="900" width="1760" height="320" as="geometry" />
        </mxCell>
        <mxCell id="omCNdxR7SjSAZw2nMjmR-6" value="Stream Analytics" style="rounded=1;whiteSpace=wrap;html=1;labelBackgroundColor=none;strokeColor=#666666;strokeWidth=1;fillColor=#f5f5f5;fontColor=#333333;arcSize=20;absoluteArcSize=1;dashed=1;align=center;horizontal=1;verticalAlign=top;" parent="1" vertex="1">
          <mxGeometry x="670" y="-21.75" width="410" height="222.25" as="geometry" />
        </mxCell>
        <mxCell id="6L8EADluBYmrNNKkOHeg-1" value="Tools" style="rounded=1;whiteSpace=wrap;html=1;labelBackgroundColor=none;strokeColor=#666666;strokeWidth=1;fillColor=#f5f5f5;fontColor=#333333;arcSize=20;absoluteArcSize=1;dashed=1;align=center;horizontal=1;verticalAlign=top;" parent="1" vertex="1">
          <mxGeometry x="1570" y="100" width="205" height="1120" as="geometry" />
        </mxCell>
        <mxCell id="qBLs1l9HxU0IzbeAoXJm-5" value="Processing" style="rounded=1;whiteSpace=wrap;html=1;labelBackgroundColor=none;strokeColor=#666666;strokeWidth=1;fillColor=#f5f5f5;fontColor=#333333;arcSize=20;absoluteArcSize=1;dashed=1;align=center;horizontal=1;verticalAlign=top;" parent="1" vertex="1">
          <mxGeometry x="670" y="220" width="410" height="259.25" as="geometry" />
        </mxCell>
        <mxCell id="03c-35_fBqC2l3n-GO_S-7" value="Data Virtualization / Analytics Engines" style="rounded=1;whiteSpace=wrap;html=1;labelBackgroundColor=none;strokeColor=#666666;strokeWidth=1;fillColor=#f5f5f5;fontColor=#333333;arcSize=20;absoluteArcSize=1;dashed=1;align=center;horizontal=1;verticalAlign=top;" parent="1" vertex="1">
          <mxGeometry x="1120" y="-490" width="410" height="351.5" as="geometry" />
        </mxCell>
        <mxCell id="S_JIeuQYJU0l1iLkkRUw-10" value="Event Broker (Kafka)" style="rounded=1;whiteSpace=wrap;html=1;labelBackgroundColor=none;strokeColor=#666666;strokeWidth=1;fillColor=#f5f5f5;fontColor=#333333;arcSize=20;absoluteArcSize=1;dashed=1;align=center;horizontal=1;verticalAlign=top;" parent="1" vertex="1">
          <mxGeometry x="-230" y="-490" width="410" height="970" as="geometry" />
        </mxCell>
        <mxCell id="S_JIeuQYJU0l1iLkkRUw-31" value="s" style="rounded=1;whiteSpace=wrap;html=1;labelBackgroundColor=none;strokeColor=#666666;strokeWidth=1;fillColor=#f5f5f5;fontColor=#333333;arcSize=20;absoluteArcSize=1;dashed=1;align=center;horizontal=1;verticalAlign=top;" parent="1" vertex="1">
          <mxGeometry x="1570" y="-860" width="205" height="940" as="geometry" />
        </mxCell>
        <mxCell id="S_JIeuQYJU0l1iLkkRUw-18" value="Platform Automation &amp;amp; Monitoring" style="rounded=1;whiteSpace=wrap;html=1;labelBackgroundColor=none;strokeColor=#666666;strokeWidth=1;fillColor=#f5f5f5;fontColor=#333333;arcSize=20;absoluteArcSize=1;dashed=1;align=center;horizontal=1;verticalAlign=top;" parent="1" vertex="1">
          <mxGeometry x="-230" y="-860" width="800" height="340" as="geometry" />
        </mxCell>
        <mxCell id="S_JIeuQYJU0l1iLkkRUw-16" value="Big Data Processing" style="rounded=1;whiteSpace=wrap;html=1;labelBackgroundColor=none;strokeColor=#666666;strokeWidth=1;fillColor=#f5f5f5;fontColor=#333333;arcSize=20;absoluteArcSize=1;dashed=1;align=center;horizontal=1;verticalAlign=top;" parent="1" vertex="1">
          <mxGeometry x="670" y="-490" width="410" height="450" as="geometry" />
        </mxCell>
        <mxCell id="S_JIeuQYJU0l1iLkkRUw-15" value="Data Stores" style="rounded=1;whiteSpace=wrap;html=1;labelBackgroundColor=none;strokeColor=#666666;strokeWidth=1;fillColor=#f5f5f5;fontColor=#333333;arcSize=20;absoluteArcSize=1;dashed=1;align=center;horizontal=1;verticalAlign=top;" parent="1" vertex="1">
          <mxGeometry x="-230" y="500" width="1760" height="370" as="geometry" />
        </mxCell>
        <mxCell id="S_JIeuQYJU0l1iLkkRUw-14" value="Data Governance &amp;amp; Security" style="rounded=1;whiteSpace=wrap;html=1;labelBackgroundColor=none;strokeColor=#666666;strokeWidth=1;fillColor=#f5f5f5;fontColor=#333333;arcSize=20;absoluteArcSize=1;dashed=1;align=center;horizontal=1;verticalAlign=top;" parent="1" vertex="1">
          <mxGeometry x="600" y="-860" width="930" height="340" as="geometry" />
        </mxCell>
        <mxCell id="S_JIeuQYJU0l1iLkkRUw-13" value="(Stream) Data integration" style="rounded=1;whiteSpace=wrap;html=1;labelBackgroundColor=none;strokeColor=#666666;strokeWidth=1;fillColor=#f5f5f5;fontColor=#333333;arcSize=20;absoluteArcSize=1;dashed=1;align=center;horizontal=1;verticalAlign=top;" parent="1" vertex="1">
          <mxGeometry x="220" y="-180" width="410" height="660" as="geometry" />
        </mxCell>
        <mxCell id="S_JIeuQYJU0l1iLkkRUw-11" value="Message Broker" style="rounded=1;whiteSpace=wrap;html=1;labelBackgroundColor=none;strokeColor=#666666;strokeWidth=1;fillColor=#f5f5f5;fontColor=#333333;arcSize=20;absoluteArcSize=1;dashed=1;align=center;horizontal=1;verticalAlign=top;" parent="1" vertex="1">
          <mxGeometry x="220" y="-490" width="410" height="290" as="geometry" />
        </mxCell>
        <mxCell id="eRqvAZJEBBvxbPLApIU_-1" value="&lt;span&gt;zookeeper-[1-3]&lt;/span&gt;" style="rounded=1;whiteSpace=wrap;html=1;fillColor=#d5e8d4;strokeColor=#82b366;fontStyle=1;" parent="1" vertex="1">
          <mxGeometry x="-200" y="-377" width="160" height="30" as="geometry" />
        </mxCell>
        <mxCell id="eRqvAZJEBBvxbPLApIU_-2" value="&lt;span&gt;kafka-[1-3]&lt;/span&gt;" style="rounded=1;whiteSpace=wrap;html=1;fillColor=#d5e8d4;strokeColor=#82b366;fontStyle=1;" parent="1" vertex="1">
          <mxGeometry x="-10" y="-460" width="160" height="30" as="geometry" />
        </mxCell>
        <mxCell id="eRqvAZJEBBvxbPLApIU_-3" value="&lt;span&gt;atlas&lt;/span&gt;" style="rounded=1;whiteSpace=wrap;html=1;fillColor=#f8cecc;strokeColor=#b85450;fontStyle=1;" parent="1" vertex="1">
          <mxGeometry x="620" y="-830" width="160" height="30" as="geometry" />
        </mxCell>
        <mxCell id="eRqvAZJEBBvxbPLApIU_-4" value="&lt;span&gt;zoonavigator-api&lt;/span&gt;" style="rounded=1;whiteSpace=wrap;html=1;fillColor=#d5e8d4;strokeColor=#82b366;fontStyle=1;" parent="1" vertex="1">
          <mxGeometry x="-200" y="-418" width="160" height="30" as="geometry" />
        </mxCell>
        <mxCell id="eRqvAZJEBBvxbPLApIU_-5" value="&lt;span&gt;zoonavigator&lt;/span&gt;" style="rounded=1;whiteSpace=wrap;html=1;fillColor=#d5e8d4;strokeColor=#82b366;fontStyle=1;" parent="1" vertex="1">
          <mxGeometry x="-200" y="-460" width="160" height="30" as="geometry" />
        </mxCell>
        <mxCell id="eRqvAZJEBBvxbPLApIU_-6" value="&lt;span&gt;connect-[1-3]&lt;/span&gt;" style="rounded=1;whiteSpace=wrap;html=1;fillColor=#d5e8d4;strokeColor=#82b366;fontStyle=1;" parent="1" vertex="1">
          <mxGeometry x="-10" y="-418" width="160" height="30" as="geometry" />
        </mxCell>
        <mxCell id="eRqvAZJEBBvxbPLApIU_-7" value="&lt;span&gt;schema-registry-[1-3]&lt;/span&gt;" style="rounded=1;whiteSpace=wrap;html=1;fillColor=#f8cecc;strokeColor=#b85450;fontStyle=1;" parent="1" vertex="1">
          <mxGeometry x="1350" y="-788" width="160" height="30" as="geometry" />
        </mxCell>
        <mxCell id="eRqvAZJEBBvxbPLApIU_-8" value="&lt;span&gt;ksqldb-server-[1-3]&lt;/span&gt;" style="rounded=1;whiteSpace=wrap;html=1;fillColor=#b1ddf0;strokeColor=#10739e;fontStyle=1;" parent="1" vertex="1">
          <mxGeometry x="704" y="48.75" width="160" height="30" as="geometry" />
        </mxCell>
        <mxCell id="eRqvAZJEBBvxbPLApIU_-9" value="&lt;span&gt;ksqldb-cli&lt;/span&gt;" style="rounded=1;whiteSpace=wrap;html=1;fillColor=#b1ddf0;strokeColor=#10739e;fontStyle=1;" parent="1" vertex="1">
          <mxGeometry x="704" y="92.5" width="160" height="30" as="geometry" />
        </mxCell>
        <mxCell id="eRqvAZJEBBvxbPLApIU_-10" value="&lt;span&gt;control-center&lt;/span&gt;" style="rounded=1;whiteSpace=wrap;html=1;fillColor=#d5e8d4;strokeColor=#82b366;fontStyle=1;" parent="1" vertex="1">
          <mxGeometry x="-200" y="-335" width="160" height="30" as="geometry" />
        </mxCell>
        <mxCell id="eRqvAZJEBBvxbPLApIU_-11" value="kafka-mqtt-1" style="rounded=1;whiteSpace=wrap;html=1;fillColor=#d5e8d4;strokeColor=#82b366;fontStyle=1;" parent="1" vertex="1">
          <mxGeometry x="-10" y="-335" width="160" height="30" as="geometry" />
        </mxCell>
        <mxCell id="eRqvAZJEBBvxbPLApIU_-12" value="&lt;span&gt;kafka-rest-1&lt;/span&gt;" style="rounded=1;whiteSpace=wrap;html=1;fillColor=#d5e8d4;strokeColor=#82b366;fontStyle=1;" parent="1" vertex="1">
          <mxGeometry x="-10" y="-377" width="160" height="30" as="geometry" />
        </mxCell>
        <mxCell id="eRqvAZJEBBvxbPLApIU_-13" value="&lt;span&gt;replicator-1&lt;/span&gt;" style="rounded=1;whiteSpace=wrap;html=1;fillColor=#d5e8d4;strokeColor=#82b366;fontStyle=1;" parent="1" vertex="1">
          <mxGeometry x="-10" y="-292" width="160" height="30" as="geometry" />
        </mxCell>
        <mxCell id="eRqvAZJEBBvxbPLApIU_-14" value="&lt;span&gt;schema-registry-ui&lt;/span&gt;" style="rounded=1;whiteSpace=wrap;html=1;fillColor=#f8cecc;strokeColor=#b85450;fontStyle=1;" parent="1" vertex="1">
          <mxGeometry x="1350" y="-747" width="160" height="30" as="geometry" />
        </mxCell>
        <mxCell id="eRqvAZJEBBvxbPLApIU_-15" value="&lt;span&gt;kafka-connect-ui&lt;/span&gt;" style="rounded=1;whiteSpace=wrap;html=1;fillColor=#d5e8d4;strokeColor=#82b366;fontStyle=1;" parent="1" vertex="1">
          <mxGeometry x="-200" y="-43" width="160" height="30" as="geometry" />
        </mxCell>
        <mxCell id="eRqvAZJEBBvxbPLApIU_-16" value="&lt;span&gt;cmak&lt;/span&gt;" style="rounded=1;whiteSpace=wrap;html=1;fillColor=#d5e8d4;strokeColor=#82b366;fontStyle=1;" parent="1" vertex="1">
          <mxGeometry x="-200" y="-127" width="160" height="30" as="geometry" />
        </mxCell>
        <mxCell id="eRqvAZJEBBvxbPLApIU_-17" value="&lt;span&gt;kafdrop&lt;/span&gt;" style="rounded=1;whiteSpace=wrap;html=1;fillColor=#d5e8d4;strokeColor=#82b366;fontStyle=1;" parent="1" vertex="1">
          <mxGeometry x="-200" y="125.5" width="160" height="30" as="geometry" />
        </mxCell>
        <mxCell id="eRqvAZJEBBvxbPLApIU_-18" value="&lt;span&gt;kadmin&lt;/span&gt;" style="rounded=1;whiteSpace=wrap;html=1;fillColor=#d5e8d4;strokeColor=#82b366;fontStyle=1;" parent="1" vertex="1">
          <mxGeometry x="-200" y="-84" width="160" height="30" as="geometry" />
        </mxCell>
        <mxCell id="eRqvAZJEBBvxbPLApIU_-19" value="&lt;span&gt;akhq&lt;/span&gt;" style="rounded=1;whiteSpace=wrap;html=1;fillColor=#d5e8d4;strokeColor=#82b366;fontStyle=1;" parent="1" vertex="1">
          <mxGeometry x="-200" y="-167" width="160" height="30" as="geometry" />
        </mxCell>
        <mxCell id="eRqvAZJEBBvxbPLApIU_-20" value="&lt;span&gt;burrow&lt;/span&gt;" style="rounded=1;whiteSpace=wrap;html=1;fillColor=#d5e8d4;strokeColor=#82b366;fontStyle=1;" parent="1" vertex="1">
          <mxGeometry x="-10" y="-250.75" width="160" height="30" as="geometry" />
        </mxCell>
        <mxCell id="eRqvAZJEBBvxbPLApIU_-21" value="&lt;span&gt;burrow-ui&lt;/span&gt;" style="rounded=1;whiteSpace=wrap;html=1;fillColor=#d5e8d4;strokeColor=#82b366;fontStyle=1;" parent="1" vertex="1">
          <mxGeometry x="-10" y="-208.75" width="160" height="30" as="geometry" />
        </mxCell>
        <mxCell id="eRqvAZJEBBvxbPLApIU_-22" value="&lt;span&gt;burrow-dashboard&lt;/span&gt;" style="rounded=1;whiteSpace=wrap;html=1;fillColor=#d5e8d4;strokeColor=#82b366;fontStyle=1;" parent="1" vertex="1">
          <mxGeometry x="-10" y="-167.75" width="160" height="30" as="geometry" />
        </mxCell>
        <mxCell id="eRqvAZJEBBvxbPLApIU_-23" value="&lt;span&gt;namenode&lt;/span&gt;" style="rounded=1;whiteSpace=wrap;html=1;fillColor=#ffcc99;strokeColor=#36393d;fontStyle=1;" parent="1" vertex="1">
          <mxGeometry x="701.5" y="-455" width="160" height="30" as="geometry" />
        </mxCell>
        <mxCell id="eRqvAZJEBBvxbPLApIU_-24" value="&lt;span&gt;datanode-[1-3]&lt;/span&gt;" style="rounded=1;whiteSpace=wrap;html=1;fillColor=#ffcc99;strokeColor=#36393d;fontStyle=1;" parent="1" vertex="1">
          <mxGeometry x="701.5" y="-415" width="160" height="30" as="geometry" />
        </mxCell>
        <mxCell id="eRqvAZJEBBvxbPLApIU_-25" value="&lt;span&gt;resourcemanager&lt;/span&gt;" style="rounded=1;whiteSpace=wrap;html=1;fillColor=#ffcc99;strokeColor=#36393d;fontStyle=1;" parent="1" vertex="1">
          <mxGeometry x="701.5" y="-375" width="160" height="30" as="geometry" />
        </mxCell>
        <mxCell id="eRqvAZJEBBvxbPLApIU_-26" value="&lt;span&gt;nodemanager&lt;/span&gt;" style="rounded=1;whiteSpace=wrap;html=1;fillColor=#ffcc99;strokeColor=#36393d;fontStyle=1;" parent="1" vertex="1">
          <mxGeometry x="701.5" y="-335" width="160" height="30" as="geometry" />
        </mxCell>
        <mxCell id="eRqvAZJEBBvxbPLApIU_-27" value="&lt;span&gt;historyserver&lt;/span&gt;&lt;span style=&quot;font-family: monospace; font-size: 0px; white-space: nowrap;&quot;&gt;%3CmxGraphModel%3E%3Croot%3E%3CmxCell%20id%3D%220%22%2F%3E%3CmxCell%20id%3D%221%22%20parent%3D%220%22%2F%3E%3CmxCell%20id%3D%222%22%20value%3D%22%26lt%3Bb%26gt%3Bresourcemanager%26lt%3B%2Fb%26gt%3B%22%20style%3D%22rounded%3D1%3BwhiteSpace%3Dwrap%3Bhtml%3D1%3B%22%20vertex%3D%221%22%20parent%3D%221%22%3E%3CmxGeometry%20x%3D%22480%22%20y%3D%2210%22%20width%3D%22135%22%20height%3D%2230%22%20as%3D%22geometry%22%2F%3E%3C%2FmxCell%3E%3C%2Froot%3E%3C%2FmxGraphModel%3E&lt;/span&gt;&lt;span style=&quot;font-family: monospace; font-size: 0px; white-space: nowrap;&quot;&gt;%3CmxGraphModel%3E%3Croot%3E%3CmxCell%20id%3D%220%22%2F%3E%3CmxCell%20id%3D%221%22%20parent%3D%220%22%2F%3E%3CmxCell%20id%3D%222%22%20value%3D%22%26lt%3Bb%26gt%3Bresourcemanager%26lt%3B%2Fb%26gt%3B%22%20style%3D%22rounded%3D1%3BwhiteSpace%3Dwrap%3Bhtml%3D1%3B%22%20vertex%3D%221%22%20parent%3D%221%22%3E%3CmxGeometry%20x%3D%22480%22%20y%3D%2210%22%20width%3D%22135%22%20height%3D%2230%22%20as%3D%22geometry%22%2F%3E%3C%2FmxCell%3E%3C%2Froot%3E%3C%2FmxGraphModel%3E&lt;/span&gt;" style="rounded=1;whiteSpace=wrap;html=1;fillColor=#ffcc99;strokeColor=#36393d;fontStyle=1;" parent="1" vertex="1">
          <mxGeometry x="701.5" y="-295" width="160" height="30" as="geometry" />
        </mxCell>
        <mxCell id="eRqvAZJEBBvxbPLApIU_-28" value="&lt;span&gt;sqoop&lt;/span&gt;" style="rounded=1;whiteSpace=wrap;html=1;fillColor=#ffcc99;strokeColor=#36393d;fontStyle=1;" parent="1" vertex="1">
          <mxGeometry x="701.5" y="-255" width="160" height="30" as="geometry" />
        </mxCell>
        <mxCell id="eRqvAZJEBBvxbPLApIU_-29" value="&lt;span&gt;spark-master&lt;/span&gt;" style="rounded=1;whiteSpace=wrap;html=1;fontStyle=1;fillColor=#ffcc99;strokeColor=#36393d;" parent="1" vertex="1">
          <mxGeometry x="900" y="-455" width="160" height="30" as="geometry" />
        </mxCell>
        <mxCell id="eRqvAZJEBBvxbPLApIU_-30" value="&lt;span&gt;spark-worker-[1-3]&lt;/span&gt;" style="rounded=1;whiteSpace=wrap;html=1;fontStyle=1;fillColor=#ffcc99;strokeColor=#36393d;" parent="1" vertex="1">
          <mxGeometry x="900" y="-415" width="160" height="30" as="geometry" />
        </mxCell>
        <mxCell id="eRqvAZJEBBvxbPLApIU_-31" value="&lt;span&gt;spark-history&lt;/span&gt;" style="rounded=1;whiteSpace=wrap;html=1;fontStyle=1;fillColor=#ffcc99;strokeColor=#36393d;" parent="1" vertex="1">
          <mxGeometry x="900" y="-375" width="160" height="30" as="geometry" />
        </mxCell>
        <mxCell id="eRqvAZJEBBvxbPLApIU_-32" value="&lt;span&gt;spark-thrift-server&lt;/span&gt;" style="rounded=1;whiteSpace=wrap;html=1;fontStyle=1;fillColor=#ffcc99;strokeColor=#36393d;" parent="1" vertex="1">
          <mxGeometry x="900" y="-335" width="160" height="30" as="geometry" />
        </mxCell>
        <mxCell id="eRqvAZJEBBvxbPLApIU_-33" value="&lt;span&gt;livy&lt;/span&gt;" style="rounded=1;whiteSpace=wrap;html=1;fontStyle=1;fillColor=#ffcc99;strokeColor=#36393d;" parent="1" vertex="1">
          <mxGeometry x="900" y="-295" width="160" height="30" as="geometry" />
        </mxCell>
        <mxCell id="eRqvAZJEBBvxbPLApIU_-34" value="&lt;span&gt;hive-server&lt;/span&gt;" style="rounded=1;whiteSpace=wrap;html=1;fillColor=#ffcc99;strokeColor=#36393d;fontStyle=1;" parent="1" vertex="1">
          <mxGeometry x="701.5" y="-210" width="160" height="30" as="geometry" />
        </mxCell>
        <mxCell id="eRqvAZJEBBvxbPLApIU_-37" value="&lt;span&gt;cassandra-atlas&lt;/span&gt;&lt;span style=&quot;font-family: monospace; font-size: 0px; white-space: nowrap;&quot;&gt;%3CmxGraphModel%3E%3Croot%3E%3CmxCell%20id%3D%220%22%2F%3E%3CmxCell%20id%3D%221%22%20parent%3D%220%22%2F%3E%3CmxCell%20id%3D%222%22%20value%3D%22%26lt%3Bb%26gt%3Bamundsen-search%26lt%3B%2Fb%26gt%3B%22%20style%3D%22rounded%3D1%3BwhiteSpace%3Dwrap%3Bhtml%3D1%3B%22%20vertex%3D%221%22%20parent%3D%221%22%3E%3CmxGeometry%20x%3D%22370%22%20y%3D%22-210%22%20width%3D%22135%22%20height%3D%2230%22%20as%3D%22geometry%22%2F%3E%3C%2FmxCell%3E%3C%2Froot%3E%3C%2FmxGraphModel%3E&lt;/span&gt;" style="rounded=1;whiteSpace=wrap;html=1;fillColor=#f8cecc;strokeColor=#b85450;fontStyle=1;" parent="1" vertex="1">
          <mxGeometry x="620" y="-790" width="160" height="30" as="geometry" />
        </mxCell>
        <mxCell id="eRqvAZJEBBvxbPLApIU_-38" value="&lt;span&gt;elasticsearch-atlas&lt;/span&gt;" style="rounded=1;whiteSpace=wrap;html=1;fillColor=#f8cecc;strokeColor=#b85450;fontStyle=1;" parent="1" vertex="1">
          <mxGeometry x="620" y="-750" width="160" height="30" as="geometry" />
        </mxCell>
        <mxCell id="eRqvAZJEBBvxbPLApIU_-39" value="&lt;span&gt;amundsenfrontend&lt;/span&gt;" style="rounded=1;whiteSpace=wrap;html=1;fillColor=#f8cecc;strokeColor=#b85450;fontStyle=1;" parent="1" vertex="1">
          <mxGeometry x="800" y="-657.5" width="160" height="30" as="geometry" />
        </mxCell>
        <mxCell id="eRqvAZJEBBvxbPLApIU_-40" value="&lt;span&gt;amundsensearch&lt;/span&gt;" style="rounded=1;whiteSpace=wrap;html=1;fillColor=#f8cecc;strokeColor=#b85450;fontStyle=1;" parent="1" vertex="1">
          <mxGeometry x="800" y="-619" width="160" height="30" as="geometry" />
        </mxCell>
        <mxCell id="eRqvAZJEBBvxbPLApIU_-41" value="&lt;span&gt;amundsenmetadata&lt;/span&gt;" style="rounded=1;whiteSpace=wrap;html=1;fillColor=#f8cecc;strokeColor=#b85450;fontStyle=1;" parent="1" vertex="1">
          <mxGeometry x="800" y="-577.5" width="160" height="30" as="geometry" />
        </mxCell>
        <mxCell id="eRqvAZJEBBvxbPLApIU_-42" value="&lt;span&gt;hue&lt;/span&gt;" style="rounded=1;whiteSpace=wrap;html=1;fillColor=#ffcc99;strokeColor=#36393d;fontStyle=1;" parent="1" vertex="1">
          <mxGeometry x="701.5" y="-170" width="160" height="30" as="geometry" />
        </mxCell>
        <mxCell id="eRqvAZJEBBvxbPLApIU_-43" value="&lt;span&gt;hue-db&lt;/span&gt;" style="rounded=1;whiteSpace=wrap;html=1;fillColor=#ffcc99;strokeColor=#36393d;fontStyle=1;" parent="1" vertex="1">
          <mxGeometry x="701.5" y="-130" width="160" height="30" as="geometry" />
        </mxCell>
        <mxCell id="eRqvAZJEBBvxbPLApIU_-44" value="&lt;span&gt;streamsets-1&lt;/span&gt;&lt;span style=&quot;font-family: monospace; font-size: 0px; white-space: nowrap;&quot;&gt;%3CmxGraphModel%3E%3Croot%3E%3CmxCell%20id%3D%220%22%2F%3E%3CmxCell%20id%3D%221%22%20parent%3D%220%22%2F%3E%3CmxCell%20id%3D%222%22%20value%3D%22%26lt%3Bb%26gt%3Bksqldb-cli%26lt%3B%2Fb%26gt%3B%22%20style%3D%22rounded%3D1%3BwhiteSpace%3Dwrap%3Bhtml%3D1%3B%22%20vertex%3D%221%22%20parent%3D%221%22%3E%3CmxGeometry%20x%3D%22180%22%20y%3D%22340%22%20width%3D%22135%22%20height%3D%2230%22%20as%3D%22geometry%22%2F%3E%3C%2FmxCell%3E%3C%2Froot%3E%3C%2FmxGraphModel%3E&lt;/span&gt;" style="rounded=1;whiteSpace=wrap;html=1;fillColor=#d0cee2;strokeColor=#56517e;fontStyle=1;" parent="1" vertex="1">
          <mxGeometry x="250" y="-144" width="160" height="30" as="geometry" />
        </mxCell>
        <mxCell id="eRqvAZJEBBvxbPLApIU_-45" value="&lt;span&gt;streamsets-transformer-1&lt;/span&gt;&lt;span style=&quot;font-family: monospace; font-size: 0px; white-space: nowrap;&quot;&gt;%3CmxGraphModel%3E%3Croot%3E%3CmxCell%20id%3D%220%22%2F%3E%3CmxCell%20id%3D%221%22%20parent%3D%220%22%2F%3E%3CmxCell%20id%3D%222%22%20value%3D%22%26lt%3Bb%26gt%3Bksqldb-cli%26lt%3B%2Fb%26gt%3B%22%20style%3D%22rounded%3D1%3BwhiteSpace%3Dwrap%3Bhtml%3D1%3B%22%20vertex%3D%221%22%20parent%3D%221%22%3E%3CmxGeometry%20x%3D%22180%22%20y%3D%22340%22%20width%3D%22135%22%20height%3D%2230%22%20as%3D%22geometry%22%2F%3E%3C%2FmxCell%3E%3C%2Froot%3E%3C%2FmxGraphModel%3E&lt;/span&gt;" style="rounded=1;whiteSpace=wrap;html=1;fillColor=#d0cee2;strokeColor=#56517e;fontStyle=1;" parent="1" vertex="1">
          <mxGeometry x="250" y="-104" width="160" height="30" as="geometry" />
        </mxCell>
        <mxCell id="eRqvAZJEBBvxbPLApIU_-46" value="&lt;span&gt;streamsets-edge&lt;/span&gt;" style="rounded=1;whiteSpace=wrap;html=1;fillColor=#d0cee2;strokeColor=#56517e;fontStyle=1;" parent="1" vertex="1">
          <mxGeometry x="250" y="-64" width="160" height="30" as="geometry" />
        </mxCell>
        <mxCell id="eRqvAZJEBBvxbPLApIU_-47" value="&lt;span&gt;nifi&lt;/span&gt;" style="rounded=1;whiteSpace=wrap;html=1;fillColor=#d0cee2;strokeColor=#56517e;fontStyle=1;" parent="1" vertex="1">
          <mxGeometry x="250" y="315" width="160" height="30" as="geometry" />
        </mxCell>
        <mxCell id="eRqvAZJEBBvxbPLApIU_-48" value="&lt;span&gt;nifi-registry&lt;/span&gt;" style="rounded=1;whiteSpace=wrap;html=1;fillColor=#f8cecc;strokeColor=#b85450;fontStyle=1;" parent="1" vertex="1">
          <mxGeometry x="1350" y="-705" width="160" height="30" as="geometry" />
        </mxCell>
        <mxCell id="eRqvAZJEBBvxbPLApIU_-51" value="&lt;span&gt;grafana&lt;/span&gt;" style="rounded=1;whiteSpace=wrap;html=1;fillColor=#fff2cc;strokeColor=#d6b656;fontStyle=1;" parent="1" vertex="1">
          <mxGeometry x="1595" y="-830" width="160" height="30" as="geometry" />
        </mxCell>
        <mxCell id="eRqvAZJEBBvxbPLApIU_-52" value="&lt;span&gt;redis&lt;/span&gt;" style="rounded=1;whiteSpace=wrap;html=1;fillColor=#cdeb8b;strokeColor=#36393d;fontStyle=1;" parent="1" vertex="1">
          <mxGeometry x="-200" y="535" width="160" height="30" as="geometry" />
        </mxCell>
        <mxCell id="eRqvAZJEBBvxbPLApIU_-53" value="&lt;span&gt;redis-commander&lt;/span&gt;" style="rounded=1;whiteSpace=wrap;html=1;fillColor=#E6FFCC;strokeColor=#36393d;fontStyle=1;" parent="1" vertex="1">
          <mxGeometry x="-200" y="930" width="160" height="30" as="geometry" />
        </mxCell>
        <mxCell id="eRqvAZJEBBvxbPLApIU_-54" value="&lt;span&gt;cassandra-1&lt;/span&gt;" style="rounded=1;whiteSpace=wrap;html=1;fillColor=#cdeb8b;strokeColor=#36393d;fontStyle=1;" parent="1" vertex="1">
          <mxGeometry x="-200" y="615" width="160" height="30" as="geometry" />
        </mxCell>
        <mxCell id="eRqvAZJEBBvxbPLApIU_-55" value="&lt;span&gt;cassandra-web&lt;/span&gt;" style="rounded=1;whiteSpace=wrap;html=1;fillColor=#E6FFCC;strokeColor=#36393d;fontStyle=1;" parent="1" vertex="1">
          <mxGeometry x="-200" y="1010" width="160" height="30" as="geometry" />
        </mxCell>
        <mxCell id="eRqvAZJEBBvxbPLApIU_-56" value="&lt;span&gt;mongodb&lt;/span&gt;" style="rounded=1;whiteSpace=wrap;html=1;fillColor=#cdeb8b;strokeColor=#36393d;fontStyle=1;" parent="1" vertex="1">
          <mxGeometry x="-10" y="535" width="160" height="30" as="geometry" />
        </mxCell>
        <mxCell id="eRqvAZJEBBvxbPLApIU_-57" value="&lt;span&gt;mongo-express&lt;/span&gt;" style="rounded=1;whiteSpace=wrap;html=1;fillColor=#E6FFCC;strokeColor=#36393d;fontStyle=1;" parent="1" vertex="1">
          <mxGeometry x="-10" y="930" width="160" height="30" as="geometry" />
        </mxCell>
        <mxCell id="eRqvAZJEBBvxbPLApIU_-58" value="&lt;span&gt;admin-mongo&lt;/span&gt;" style="rounded=1;whiteSpace=wrap;html=1;fillColor=#E6FFCC;strokeColor=#36393d;fontStyle=1;" parent="1" vertex="1">
          <mxGeometry x="-10" y="970" width="160" height="30" as="geometry" />
        </mxCell>
        <mxCell id="eRqvAZJEBBvxbPLApIU_-59" value="&lt;span&gt;solr&lt;/span&gt;" style="rounded=1;whiteSpace=wrap;html=1;fillColor=#cdeb8b;strokeColor=#36393d;fontStyle=1;" parent="1" vertex="1">
          <mxGeometry x="370" y="535" width="160" height="30" as="geometry" />
        </mxCell>
        <mxCell id="eRqvAZJEBBvxbPLApIU_-60" value="&lt;span&gt;elasticserach&lt;/span&gt;" style="rounded=1;whiteSpace=wrap;html=1;fillColor=#cdeb8b;strokeColor=#36393d;fontStyle=1;" parent="1" vertex="1">
          <mxGeometry x="370" y="575" width="160" height="30" as="geometry" />
        </mxCell>
        <mxCell id="eRqvAZJEBBvxbPLApIU_-61" value="&lt;span&gt;dejavu&lt;/span&gt;&lt;span style=&quot;font-family: monospace; font-size: 0px; white-space: nowrap;&quot;&gt;%3CmxGraphModel%3E%3Croot%3E%3CmxCell%20id%3D%220%22%2F%3E%3CmxCell%20id%3D%221%22%20parent%3D%220%22%2F%3E%3CmxCell%20id%3D%222%22%20value%3D%22%26lt%3Bb%26gt%3Belasticserach%26lt%3B%2Fb%26gt%3B%22%20style%3D%22rounded%3D1%3BwhiteSpace%3Dwrap%3Bhtml%3D1%3B%22%20vertex%3D%221%22%20parent%3D%221%22%3E%3CmxGeometry%20x%3D%22720%22%20y%3D%22690%22%20width%3D%22160%22%20height%3D%2230%22%20as%3D%22geometry%22%2F%3E%3C%2FmxCell%3E%3C%2Froot%3E%3C%2FmxGraphModel%3E&lt;/span&gt;" style="rounded=1;whiteSpace=wrap;html=1;fillColor=#E6FFCC;strokeColor=#36393d;fontStyle=1;" parent="1" vertex="1">
          <mxGeometry x="370" y="930" width="160" height="30" as="geometry" />
        </mxCell>
        <mxCell id="eRqvAZJEBBvxbPLApIU_-62" value="&lt;span&gt;cerbero&lt;/span&gt;" style="rounded=1;whiteSpace=wrap;html=1;fillColor=#E6FFCC;strokeColor=#36393d;fontStyle=1;" parent="1" vertex="1">
          <mxGeometry x="370" y="970" width="160" height="30" as="geometry" />
        </mxCell>
        <mxCell id="eRqvAZJEBBvxbPLApIU_-63" value="&lt;span&gt;elastichq&lt;/span&gt;" style="rounded=1;whiteSpace=wrap;html=1;fillColor=#E6FFCC;strokeColor=#36393d;fontStyle=1;" parent="1" vertex="1">
          <mxGeometry x="370" y="1010" width="160" height="30" as="geometry" />
        </mxCell>
        <mxCell id="eRqvAZJEBBvxbPLApIU_-72" value="&lt;span&gt;prometheus&lt;/span&gt;" style="rounded=1;whiteSpace=wrap;html=1;fillColor=#cdeb8b;strokeColor=#36393d;fontStyle=1;" parent="1" vertex="1">
          <mxGeometry x="1348.5" y="535" width="160" height="30" as="geometry" />
        </mxCell>
        <mxCell id="eRqvAZJEBBvxbPLApIU_-73" value="&lt;span&gt;pushgateway&lt;/span&gt;" style="rounded=1;whiteSpace=wrap;html=1;fillColor=#cdeb8b;strokeColor=#36393d;fontStyle=1;" parent="1" vertex="1">
          <mxGeometry x="1348.5" y="575" width="160" height="30" as="geometry" />
        </mxCell>
        <mxCell id="eRqvAZJEBBvxbPLApIU_-74" value="&lt;span&gt;tile38&lt;/span&gt;" style="rounded=1;whiteSpace=wrap;html=1;fillColor=#cdeb8b;strokeColor=#36393d;fontStyle=1;" parent="1" vertex="1">
          <mxGeometry x="-200" y="659.25" width="160" height="30" as="geometry" />
        </mxCell>
        <mxCell id="eRqvAZJEBBvxbPLApIU_-75" value="&lt;span&gt;mysql&lt;/span&gt;" style="rounded=1;whiteSpace=wrap;html=1;fillColor=#cdeb8b;strokeColor=#36393d;fontStyle=1;" parent="1" vertex="1">
          <mxGeometry x="940" y="535" width="160" height="30" as="geometry" />
        </mxCell>
        <mxCell id="eRqvAZJEBBvxbPLApIU_-76" value="&lt;span&gt;sqlserver&lt;/span&gt;" style="rounded=1;whiteSpace=wrap;html=1;fillColor=#cdeb8b;strokeColor=#36393d;fontStyle=1;" parent="1" vertex="1">
          <mxGeometry x="940" y="575" width="160" height="30" as="geometry" />
        </mxCell>
        <mxCell id="eRqvAZJEBBvxbPLApIU_-77" value="&lt;span&gt;postgresql&lt;/span&gt;" style="rounded=1;whiteSpace=wrap;html=1;fillColor=#cdeb8b;strokeColor=#36393d;fontStyle=1;" parent="1" vertex="1">
          <mxGeometry x="940" y="615" width="160" height="30" as="geometry" />
        </mxCell>
        <mxCell id="eRqvAZJEBBvxbPLApIU_-78" value="&lt;span&gt;postgrest&lt;/span&gt;" style="rounded=1;whiteSpace=wrap;html=1;fillColor=#cdeb8b;strokeColor=#36393d;fontStyle=1;" parent="1" vertex="1">
          <mxGeometry x="940" y="655" width="160" height="30" as="geometry" />
        </mxCell>
        <mxCell id="eRqvAZJEBBvxbPLApIU_-79" value="&lt;span&gt;adminer&lt;/span&gt;" style="rounded=1;whiteSpace=wrap;html=1;fillColor=#E6FFCC;strokeColor=#d6b656;fontStyle=1;" parent="1" vertex="1">
          <mxGeometry x="940" y="972" width="160" height="30" as="geometry" />
        </mxCell>
        <mxCell id="eRqvAZJEBBvxbPLApIU_-80" value="&lt;span&gt;axon-server&lt;/span&gt;" style="rounded=1;whiteSpace=wrap;html=1;fillColor=#cdeb8b;strokeColor=#36393d;fontStyle=1;" parent="1" vertex="1">
          <mxGeometry x="180" y="736.25" width="160" height="30" as="geometry" />
        </mxCell>
        <mxCell id="eRqvAZJEBBvxbPLApIU_-82" value="&lt;span&gt;mosquitto-[1-3]&lt;/span&gt;" style="rounded=1;whiteSpace=wrap;html=1;fillColor=#ffe6cc;strokeColor=#d79b00;fontStyle=1;" parent="1" vertex="1">
          <mxGeometry x="440" y="-455" width="160" height="30" as="geometry" />
        </mxCell>
        <mxCell id="eRqvAZJEBBvxbPLApIU_-83" value="&lt;span&gt;hivemq3-1&lt;/span&gt;" style="rounded=1;whiteSpace=wrap;html=1;fillColor=#ffe6cc;strokeColor=#d79b00;fontStyle=1;" parent="1" vertex="1">
          <mxGeometry x="440" y="-415" width="160" height="30" as="geometry" />
        </mxCell>
        <mxCell id="eRqvAZJEBBvxbPLApIU_-84" value="&lt;span&gt;hivemq4-1&lt;/span&gt;" style="rounded=1;whiteSpace=wrap;html=1;fillColor=#ffe6cc;strokeColor=#d79b00;fontStyle=1;" parent="1" vertex="1">
          <mxGeometry x="440" y="-375" width="160" height="30" as="geometry" />
        </mxCell>
        <mxCell id="eRqvAZJEBBvxbPLApIU_-85" value="&lt;span&gt;mqtt-ui&lt;/span&gt;" style="rounded=1;whiteSpace=wrap;html=1;fillColor=#ffe6cc;strokeColor=#d79b00;fontStyle=1;" parent="1" vertex="1">
          <mxGeometry x="440" y="-335" width="160" height="30" as="geometry" />
        </mxCell>
        <mxCell id="eRqvAZJEBBvxbPLApIU_-86" value="&lt;span&gt;activemq&lt;/span&gt;" style="rounded=1;whiteSpace=wrap;html=1;fillColor=#ffe6cc;strokeColor=#d79b00;fontStyle=1;" parent="1" vertex="1">
          <mxGeometry x="250" y="-455" width="160" height="30" as="geometry" />
        </mxCell>
        <mxCell id="eRqvAZJEBBvxbPLApIU_-87" value="&lt;span&gt;ftp&lt;/span&gt;" style="rounded=1;whiteSpace=wrap;html=1;fillColor=#d0cee2;strokeColor=#56517e;fontStyle=1;" parent="1" vertex="1">
          <mxGeometry x="440" y="185" width="160" height="30" as="geometry" />
        </mxCell>
        <mxCell id="eRqvAZJEBBvxbPLApIU_-88" value="&lt;span&gt;filezilla&lt;/span&gt;" style="rounded=1;whiteSpace=wrap;html=1;fillColor=#d0cee2;strokeColor=#56517e;fontStyle=1;" parent="1" vertex="1">
          <mxGeometry x="440" y="225" width="160" height="30" as="geometry" />
        </mxCell>
        <mxCell id="eRqvAZJEBBvxbPLApIU_-90" value="&lt;span&gt;awscli&lt;/span&gt;" style="rounded=1;whiteSpace=wrap;html=1;fillColor=#E6FFCC;strokeColor=#36393d;fontStyle=1;" parent="1" vertex="1">
          <mxGeometry x="1150" y="928.63" width="160" height="30" as="geometry" />
        </mxCell>
        <mxCell id="eRqvAZJEBBvxbPLApIU_-91" value="&lt;span&gt;portainer&lt;/span&gt;" style="rounded=1;whiteSpace=wrap;html=1;fillColor=#ffff88;strokeColor=#36393d;fontStyle=1;" parent="1" vertex="1">
          <mxGeometry x="-200" y="-790" width="160" height="30" as="geometry" />
        </mxCell>
        <mxCell id="eRqvAZJEBBvxbPLApIU_-92" value="&lt;span&gt;cadvisor&lt;/span&gt;" style="rounded=1;whiteSpace=wrap;html=1;fillColor=#ffff88;strokeColor=#36393d;fontStyle=1;" parent="1" vertex="1">
          <mxGeometry x="-200" y="-750" width="160" height="30" as="geometry" />
        </mxCell>
        <mxCell id="uJz0Le45ydrZoqAj91-w-2" value="&lt;span&gt;trino-1&lt;/span&gt;" style="rounded=1;whiteSpace=wrap;html=1;fillColor=#B8B8B8;strokeColor=#36393d;fontStyle=1;" parent="1" vertex="1">
          <mxGeometry x="1151.5" y="-458.25" width="160" height="30" as="geometry" />
        </mxCell>
        <mxCell id="uJz0Le45ydrZoqAj91-w-3" value="&lt;span&gt;trino-cli&lt;/span&gt;" style="rounded=1;whiteSpace=wrap;html=1;fillColor=#B8B8B8;strokeColor=#36393d;fontStyle=1;" parent="1" vertex="1">
          <mxGeometry x="1151.5" y="-376.25" width="160" height="30" as="geometry" />
        </mxCell>
        <mxCell id="Fo2iLEUZPMh-AWLblDaQ-6" value="&lt;span&gt;code-server&lt;/span&gt;" style="rounded=1;whiteSpace=wrap;html=1;fillColor=#d5e8d4;strokeColor=#82b366;fontStyle=1;" parent="1" vertex="1">
          <mxGeometry x="1595" y="307" width="160" height="30" as="geometry" />
        </mxCell>
        <mxCell id="e0TwE4WqiyNE7sx5s1Hn-1" value="&lt;span&gt;drill-1&lt;/span&gt;" style="rounded=1;whiteSpace=wrap;html=1;fillColor=#B8B8B8;strokeColor=#36393d;fontStyle=1;" parent="1" vertex="1">
          <mxGeometry x="1151.5" y="-329.25" width="160" height="30" as="geometry" />
        </mxCell>
        <mxCell id="Zhh92UpzhaMFJzTDOGBf-1" value="&lt;span&gt;datahub-frontend&lt;/span&gt;" style="rounded=1;whiteSpace=wrap;html=1;fillColor=#ffcccc;strokeColor=#36393d;fontStyle=1;" parent="1" vertex="1">
          <mxGeometry x="990" y="-830" width="160" height="30" as="geometry" />
        </mxCell>
        <mxCell id="Zhh92UpzhaMFJzTDOGBf-2" value="datahub-gms" style="rounded=1;whiteSpace=wrap;html=1;fillColor=#ffcccc;strokeColor=#36393d;fontStyle=1;" parent="1" vertex="1">
          <mxGeometry x="990" y="-790" width="160" height="30" as="geometry" />
        </mxCell>
        <mxCell id="Zhh92UpzhaMFJzTDOGBf-3" value="&lt;span&gt;datahub-mce-consumer&lt;/span&gt;" style="rounded=1;whiteSpace=wrap;html=1;fillColor=#ffcccc;strokeColor=#36393d;fontStyle=1;" parent="1" vertex="1">
          <mxGeometry x="990" y="-750" width="160" height="30" as="geometry" />
        </mxCell>
        <mxCell id="Zhh92UpzhaMFJzTDOGBf-4" value="&lt;span&gt;datahub-mae-consumer&lt;/span&gt;" style="rounded=1;whiteSpace=wrap;html=1;fillColor=#ffcccc;strokeColor=#36393d;fontStyle=1;" parent="1" vertex="1">
          <mxGeometry x="990" y="-705" width="160" height="30" as="geometry" />
        </mxCell>
        <mxCell id="Zhh92UpzhaMFJzTDOGBf-5" value="&lt;span&gt;datahub-mysql&lt;/span&gt;" style="rounded=1;whiteSpace=wrap;html=1;fillColor=#ffcccc;strokeColor=#36393d;fontStyle=1;" parent="1" vertex="1">
          <mxGeometry x="990" y="-657.5" width="160" height="30" as="geometry" />
        </mxCell>
        <mxCell id="Zhh92UpzhaMFJzTDOGBf-6" value="&lt;span&gt;datahub-elasticsearch&lt;/span&gt;" style="rounded=1;whiteSpace=wrap;html=1;fillColor=#ffcccc;strokeColor=#36393d;fontStyle=1;" parent="1" vertex="1">
          <mxGeometry x="990" y="-619" width="160" height="30" as="geometry" />
        </mxCell>
        <mxCell id="Zhh92UpzhaMFJzTDOGBf-7" value="&lt;span&gt;datahub-neo4j&lt;/span&gt;" style="rounded=1;whiteSpace=wrap;html=1;fillColor=#ffcccc;strokeColor=#36393d;fontStyle=1;" parent="1" vertex="1">
          <mxGeometry x="990" y="-577.5" width="160" height="30" as="geometry" />
        </mxCell>
        <mxCell id="SNrWN6DctU5Eg6Z4jaHI-1" value="&lt;span&gt;marquez&lt;/span&gt;" style="rounded=1;whiteSpace=wrap;html=1;fillColor=#f8cecc;strokeColor=#b85450;fontStyle=1;" parent="1" vertex="1">
          <mxGeometry x="620" y="-619" width="160" height="30" as="geometry" />
        </mxCell>
        <mxCell id="SNrWN6DctU5Eg6Z4jaHI-2" value="&lt;span&gt;marquez-web&lt;/span&gt;" style="rounded=1;whiteSpace=wrap;html=1;fillColor=#f8cecc;strokeColor=#b85450;fontStyle=1;" parent="1" vertex="1">
          <mxGeometry x="620" y="-657.5" width="160" height="30" as="geometry" />
        </mxCell>
        <mxCell id="SNrWN6DctU5Eg6Z4jaHI-3" value="&lt;span&gt;marquez-db&lt;/span&gt;" style="rounded=1;whiteSpace=wrap;html=1;fillColor=#f8cecc;strokeColor=#b85450;fontStyle=1;" parent="1" vertex="1">
          <mxGeometry x="620" y="-577.5" width="160" height="30" as="geometry" />
        </mxCell>
        <mxCell id="SNrWN6DctU5Eg6Z4jaHI-4" value="timescaledb" style="rounded=1;whiteSpace=wrap;html=1;fillColor=#cdeb8b;strokeColor=#36393d;fontStyle=1;" parent="1" vertex="1">
          <mxGeometry x="940" y="695.75" width="160" height="30" as="geometry" />
        </mxCell>
        <mxCell id="SNrWN6DctU5Eg6Z4jaHI-5" value="&lt;span&gt;vault&lt;/span&gt;" style="rounded=1;whiteSpace=wrap;html=1;fillColor=#ffcccc;strokeColor=#36393d;fontStyle=1;" parent="1" vertex="1">
          <mxGeometry x="1170" y="-657.5" width="160" height="30" as="geometry" />
        </mxCell>
        <mxCell id="SNrWN6DctU5Eg6Z4jaHI-6" value="&lt;span&gt;ranger-admin&lt;/span&gt;" style="rounded=1;whiteSpace=wrap;html=1;fillColor=#ffcccc;strokeColor=#36393d;fontStyle=1;" parent="1" vertex="1">
          <mxGeometry x="1170" y="-619" width="160" height="30" as="geometry" />
        </mxCell>
        <mxCell id="SNrWN6DctU5Eg6Z4jaHI-7" value="&lt;span&gt;oracledb-ee&lt;/span&gt;" style="rounded=1;whiteSpace=wrap;html=1;fillColor=#cdeb8b;strokeColor=#36393d;fontStyle=1;" parent="1" vertex="1">
          <mxGeometry x="1150" y="618.25" width="160" height="30" as="geometry" />
        </mxCell>
        <mxCell id="S_JIeuQYJU0l1iLkkRUw-1" value="&lt;span&gt;kafka-topics-ui&lt;/span&gt;" style="rounded=1;whiteSpace=wrap;html=1;fillColor=#d5e8d4;strokeColor=#82b366;fontStyle=1;" parent="1" vertex="1">
          <mxGeometry x="-200" y="-2" width="160" height="30" as="geometry" />
        </mxCell>
        <mxCell id="S_JIeuQYJU0l1iLkkRUw-21" style="edgeStyle=orthogonalEdgeStyle;rounded=0;orthogonalLoop=1;jettySize=auto;html=1;exitX=0.5;exitY=1;exitDx=0;exitDy=0;" parent="1" source="S_JIeuQYJU0l1iLkkRUw-18" target="S_JIeuQYJU0l1iLkkRUw-18" edge="1">
          <mxGeometry relative="1" as="geometry" />
        </mxCell>
        <mxCell id="S_JIeuQYJU0l1iLkkRUw-24" value="&lt;span&gt;airflow&lt;/span&gt;" style="rounded=1;whiteSpace=wrap;html=1;fillColor=#ffff88;strokeColor=#36393d;fontStyle=1;" parent="1" vertex="1">
          <mxGeometry x="-200" y="-667.5" width="160" height="30" as="geometry" />
        </mxCell>
        <mxCell id="S_JIeuQYJU0l1iLkkRUw-25" value="&lt;span&gt;airflow-scheduler&lt;/span&gt;" style="rounded=1;whiteSpace=wrap;html=1;fillColor=#ffff88;strokeColor=#36393d;fontStyle=1;" parent="1" vertex="1">
          <mxGeometry x="-200" y="-627.5" width="160" height="30" as="geometry" />
        </mxCell>
        <mxCell id="S_JIeuQYJU0l1iLkkRUw-26" value="&lt;span&gt;airflow-db&lt;/span&gt;" style="rounded=1;whiteSpace=wrap;html=1;fillColor=#ffff88;strokeColor=#36393d;fontStyle=1;" parent="1" vertex="1">
          <mxGeometry x="-200" y="-584" width="160" height="30" as="geometry" />
        </mxCell>
        <mxCell id="14lgrMtZkOd0VqNTrPDS-1" value="&lt;span&gt;rabbitmq&lt;/span&gt;" style="rounded=1;whiteSpace=wrap;html=1;fillColor=#ffe6cc;strokeColor=#d79b00;fontStyle=1;" parent="1" vertex="1">
          <mxGeometry x="250" y="-412.5" width="160" height="30" as="geometry" />
        </mxCell>
        <mxCell id="14lgrMtZkOd0VqNTrPDS-2" value="&lt;span&gt;penthao&lt;/span&gt;" style="rounded=1;whiteSpace=wrap;html=1;fillColor=#d0cee2;strokeColor=#56517e;fontStyle=1;" parent="1" vertex="1">
          <mxGeometry x="440" y="270.5" width="160" height="30" as="geometry" />
        </mxCell>
        <mxCell id="14lgrMtZkOd0VqNTrPDS-3" value="&lt;span&gt;cloudbeaver&lt;/span&gt;" style="rounded=1;whiteSpace=wrap;html=1;fillColor=#E6FFCC;strokeColor=#d6b656;fontStyle=1;" parent="1" vertex="1">
          <mxGeometry x="940" y="1012" width="160" height="30" as="geometry" />
        </mxCell>
        <mxCell id="14lgrMtZkOd0VqNTrPDS-4" value="hawtio" style="rounded=1;whiteSpace=wrap;html=1;fillColor=#ffff88;strokeColor=#36393d;fontStyle=1;" parent="1" vertex="1">
          <mxGeometry x="-10" y="-790" width="160" height="30" as="geometry" />
        </mxCell>
        <mxCell id="14lgrMtZkOd0VqNTrPDS-5" value="&lt;span&gt;hive-metastore&lt;/span&gt;&lt;span style=&quot;font-family: monospace; font-size: 0px; white-space: nowrap;&quot;&gt;%3CmxGraphModel%3E%3Croot%3E%3CmxCell%20id%3D%220%22%2F%3E%3CmxCell%20id%3D%221%22%20parent%3D%220%22%2F%3E%3CmxCell%20id%3D%222%22%20value%3D%22%26lt%3Bb%26gt%3Bhive-server%26lt%3B%2Fb%26gt%3B%22%20style%3D%22rounded%3D1%3BwhiteSpace%3Dwrap%3Bhtml%3D1%3B%22%20vertex%3D%221%22%20parent%3D%221%22%3E%3CmxGeometry%20x%3D%22480%22%20y%3D%22200%22%20width%3D%22135%22%20height%3D%2230%22%20as%3D%22geometry%22%2F%3E%3C%2FmxCell%3E%3C%2Froot%3E%3C%2FmxGraphModel%3E&lt;/span&gt;" style="rounded=1;whiteSpace=wrap;html=1;fillColor=#f8cecc;strokeColor=#b85450;fontStyle=1;" parent="1" vertex="1">
          <mxGeometry x="1170" y="-830" width="160" height="30" as="geometry" />
        </mxCell>
        <mxCell id="14lgrMtZkOd0VqNTrPDS-6" value="&lt;span&gt;hive-metastore-db&lt;/span&gt;&lt;span style=&quot;font-family: monospace; font-size: 0px; white-space: nowrap;&quot;&gt;%3CmxGraphModel%3E%3Croot%3E%3CmxCell%20id%3D%220%22%2F%3E%3CmxCell%20id%3D%221%22%20parent%3D%220%22%2F%3E%3CmxCell%20id%3D%222%22%20value%3D%22%26lt%3Bb%26gt%3Bhive-server%26lt%3B%2Fb%26gt%3B%22%20style%3D%22rounded%3D1%3BwhiteSpace%3Dwrap%3Bhtml%3D1%3B%22%20vertex%3D%221%22%20parent%3D%221%22%3E%3CmxGeometry%20x%3D%22480%22%20y%3D%22200%22%20width%3D%22135%22%20height%3D%2230%22%20as%3D%22geometry%22%2F%3E%3C%2FmxCell%3E%3C%2Froot%3E%3C%2FmxGraphModel%3E-d&lt;/span&gt;" style="rounded=1;whiteSpace=wrap;html=1;fillColor=#f8cecc;strokeColor=#b85450;fontStyle=1;" parent="1" vertex="1">
          <mxGeometry x="1170" y="-788" width="160" height="30" as="geometry" />
        </mxCell>
        <mxCell id="14lgrMtZkOd0VqNTrPDS-7" value="&lt;span&gt;kcat&lt;/span&gt;" style="rounded=1;whiteSpace=wrap;html=1;fillColor=#d5e8d4;strokeColor=#82b366;fontStyle=1;" parent="1" vertex="1">
          <mxGeometry x="-200" y="-252" width="160" height="30" as="geometry" />
        </mxCell>
        <mxCell id="14lgrMtZkOd0VqNTrPDS-8" value="&lt;span&gt;streamsheets&lt;/span&gt;" style="rounded=1;whiteSpace=wrap;html=1;fillColor=#fff2cc;strokeColor=#d6b656;fontStyle=1;" parent="1" vertex="1">
          <mxGeometry x="1595" y="-440.5" width="160" height="30" as="geometry" />
        </mxCell>
        <mxCell id="14lgrMtZkOd0VqNTrPDS-9" value="&lt;span&gt;ranger-postgresql&lt;br&gt;&lt;/span&gt;" style="rounded=1;whiteSpace=wrap;html=1;fillColor=#ffcccc;strokeColor=#36393d;fontStyle=1;" parent="1" vertex="1">
          <mxGeometry x="1170" y="-577.5" width="160" height="30" as="geometry" />
        </mxCell>
        <mxCell id="14lgrMtZkOd0VqNTrPDS-10" value="&lt;span&gt;dremio-1&lt;/span&gt;" style="rounded=1;whiteSpace=wrap;html=1;fillColor=#B8B8B8;strokeColor=#36393d;fontStyle=1;" parent="1" vertex="1">
          <mxGeometry x="1350" y="-329.25" width="160" height="30" as="geometry" />
        </mxCell>
        <mxCell id="14lgrMtZkOd0VqNTrPDS-11" value="&lt;span&gt;trino-worker-[1-3]&lt;/span&gt;" style="rounded=1;whiteSpace=wrap;html=1;fillColor=#B8B8B8;strokeColor=#36393d;fontStyle=1;" parent="1" vertex="1">
          <mxGeometry x="1151.5" y="-417.25" width="160" height="30" as="geometry" />
        </mxCell>
        <mxCell id="BW1NweKalsEiaBqds83q-1" value="quix-frontend" style="rounded=1;whiteSpace=wrap;html=1;fillColor=#E6FFCC;strokeColor=#d6b656;fontStyle=1;" parent="1" vertex="1">
          <mxGeometry x="940" y="1133.5" width="160" height="30" as="geometry" />
        </mxCell>
        <mxCell id="1fMlBDlb0vdYOnVgM3HO-1" value="&lt;span&gt;superset&lt;/span&gt;" style="rounded=1;whiteSpace=wrap;html=1;fillColor=#fff2cc;strokeColor=#d6b656;fontStyle=1;" parent="1" vertex="1">
          <mxGeometry x="1595" y="-654.5" width="160" height="30" as="geometry" />
        </mxCell>
        <mxCell id="Q7FwRGYlAMRct-6YX_HK-1" value="&lt;span&gt;redash-server&lt;/span&gt;" style="rounded=1;whiteSpace=wrap;html=1;fillColor=#fff2cc;strokeColor=#d6b656;fontStyle=1;" parent="1" vertex="1">
          <mxGeometry x="1595" y="-614.5" width="160" height="30" as="geometry" />
        </mxCell>
        <mxCell id="Q7FwRGYlAMRct-6YX_HK-3" value="&lt;span&gt;memcached&lt;/span&gt;" style="rounded=1;whiteSpace=wrap;html=1;fillColor=#cdeb8b;strokeColor=#36393d;fontStyle=1;" parent="1" vertex="1">
          <mxGeometry x="-200" y="577.25" width="160" height="30" as="geometry" />
        </mxCell>
        <mxCell id="Q7FwRGYlAMRct-6YX_HK-4" value="&lt;span&gt;stardog-1&lt;/span&gt;" style="rounded=1;whiteSpace=wrap;html=1;fillColor=#cdeb8b;strokeColor=#36393d;fontStyle=1;" parent="1" vertex="1">
          <mxGeometry x="750" y="577.25" width="160" height="30" as="geometry" />
        </mxCell>
        <mxCell id="Q7FwRGYlAMRct-6YX_HK-5" value="&lt;span&gt;stardog-studio&lt;/span&gt;" style="rounded=1;whiteSpace=wrap;html=1;fillColor=#E6FFCC;strokeColor=#36393d;fontStyle=1;" parent="1" vertex="1">
          <mxGeometry x="750" y="930" width="160" height="30" as="geometry" />
        </mxCell>
        <mxCell id="Q7FwRGYlAMRct-6YX_HK-6" value="&lt;span&gt;redash-scheduler&lt;/span&gt;" style="rounded=1;whiteSpace=wrap;html=1;fillColor=#fff2cc;strokeColor=#d6b656;fontStyle=1;" parent="1" vertex="1">
          <mxGeometry x="1595" y="-572" width="160" height="30" as="geometry" />
        </mxCell>
        <mxCell id="Q7FwRGYlAMRct-6YX_HK-7" value="&lt;span&gt;redash-worker&lt;/span&gt;" style="rounded=1;whiteSpace=wrap;html=1;fillColor=#fff2cc;strokeColor=#d6b656;fontStyle=1;" parent="1" vertex="1">
          <mxGeometry x="1595" y="-532" width="160" height="30" as="geometry" />
        </mxCell>
        <mxCell id="Q7FwRGYlAMRct-6YX_HK-9" value="quix-backend" style="rounded=1;whiteSpace=wrap;html=1;fillColor=#E6FFCC;strokeColor=#d6b656;fontStyle=1;" parent="1" vertex="1">
          <mxGeometry x="940" y="1173.5" width="160" height="30" as="geometry" />
        </mxCell>
        <mxCell id="E5C8NOtX5xFuCGTAFJfS-1" value="&lt;span&gt;apicurio-registry-[1-3]&lt;/span&gt;" style="rounded=1;whiteSpace=wrap;html=1;fillColor=#f8cecc;strokeColor=#b85450;fontStyle=1;" parent="1" vertex="1">
          <mxGeometry x="1350" y="-830" width="160" height="30" as="geometry" />
        </mxCell>
        <mxCell id="E5C8NOtX5xFuCGTAFJfS-2" value="&lt;span&gt;azkarra-worker-1&lt;/span&gt;" style="rounded=1;whiteSpace=wrap;html=1;fillColor=#d5e8d4;strokeColor=#82b366;fontStyle=1;" parent="1" vertex="1">
          <mxGeometry x="-10" y="-126.75" width="160" height="30" as="geometry" />
        </mxCell>
        <mxCell id="E5C8NOtX5xFuCGTAFJfS-3" value="&lt;span&gt;tipboard&lt;/span&gt;" style="rounded=1;whiteSpace=wrap;html=1;fillColor=#fff2cc;strokeColor=#d6b656;fontStyle=1;" parent="1" vertex="1">
          <mxGeometry x="1595" y="-349" width="160" height="30" as="geometry" />
        </mxCell>
        <mxCell id="E5C8NOtX5xFuCGTAFJfS-4" value="&lt;span&gt;chartboard&lt;/span&gt;" style="rounded=1;whiteSpace=wrap;html=1;fillColor=#fff2cc;strokeColor=#d6b656;fontStyle=1;" parent="1" vertex="1">
          <mxGeometry x="1595" y="-309" width="160" height="30" as="geometry" />
        </mxCell>
        <mxCell id="E5C8NOtX5xFuCGTAFJfS-5" value="&lt;span&gt;smashing&lt;/span&gt;" style="rounded=1;whiteSpace=wrap;html=1;fillColor=#fff2cc;strokeColor=#d6b656;fontStyle=1;" parent="1" vertex="1">
          <mxGeometry x="1595" y="-387.75" width="160" height="30" as="geometry" />
        </mxCell>
        <mxCell id="ybt3OipLFFKuNiYhqCHs-1" value="&lt;span&gt;redis-insight&lt;/span&gt;" style="rounded=1;whiteSpace=wrap;html=1;fillColor=#E6FFCC;strokeColor=#36393d;fontStyle=1;" parent="1" vertex="1">
          <mxGeometry x="-200" y="972" width="160" height="30" as="geometry" />
        </mxCell>
        <mxCell id="ybt3OipLFFKuNiYhqCHs-2" value="wetty" style="rounded=1;whiteSpace=wrap;html=1;fillColor=#ffff88;strokeColor=#36393d;fontStyle=1;" parent="1" vertex="1">
          <mxGeometry x="-10" y="-750" width="160" height="30" as="geometry" />
        </mxCell>
        <mxCell id="ZlrsdLM5nVjkilInk46V-1" value="markdown-viewer" style="rounded=1;whiteSpace=wrap;html=1;fillColor=#d5e8d4;strokeColor=#82b366;fontStyle=1;" parent="1" vertex="1">
          <mxGeometry x="1595" y="355" width="160" height="30" as="geometry" />
        </mxCell>
        <mxCell id="ZlrsdLM5nVjkilInk46V-2" value="&lt;span&gt;nodered&lt;/span&gt;" style="rounded=1;whiteSpace=wrap;html=1;fillColor=#d0cee2;strokeColor=#56517e;fontStyle=1;" parent="1" vertex="1">
          <mxGeometry x="250" y="145.75" width="160" height="30" as="geometry" />
        </mxCell>
        <mxCell id="r0GBxO9lFw84nyzk-W43-1" value="&lt;span&gt;spring-dataflow-server&lt;/span&gt;" style="rounded=1;whiteSpace=wrap;html=1;fillColor=#d0cee2;strokeColor=#56517e;fontStyle=1;" parent="1" vertex="1">
          <mxGeometry x="250" y="58.25" width="160" height="30" as="geometry" />
        </mxCell>
        <mxCell id="r0GBxO9lFw84nyzk-W43-2" value="&lt;span&gt;spring-skipper-service&lt;/span&gt;" style="rounded=1;whiteSpace=wrap;html=1;fillColor=#d0cee2;strokeColor=#56517e;fontStyle=1;" parent="1" vertex="1">
          <mxGeometry x="250" y="101.75" width="160" height="30" as="geometry" />
        </mxCell>
        <mxCell id="r0GBxO9lFw84nyzk-W43-3" value="&lt;span&gt;cedalo-management-center&lt;/span&gt;" style="rounded=1;whiteSpace=wrap;html=1;fillColor=#ffe6cc;strokeColor=#d79b00;fontStyle=1;" parent="1" vertex="1">
          <mxGeometry x="440" y="-295" width="160" height="30" as="geometry" />
        </mxCell>
        <mxCell id="H50riBkeAP4il1E12PRi-1" value="watchtower" style="rounded=1;whiteSpace=wrap;html=1;fillColor=#ffff88;strokeColor=#36393d;fontStyle=1;" parent="1" vertex="1">
          <mxGeometry x="-10" y="-710" width="160" height="30" as="geometry" />
        </mxCell>
        <mxCell id="H50riBkeAP4il1E12PRi-2" value="&lt;span&gt;hasura&lt;/span&gt;" style="rounded=1;whiteSpace=wrap;html=1;fillColor=#B8B8B8;strokeColor=#36393d;fontStyle=1;" parent="1" vertex="1">
          <mxGeometry x="1150" y="-268.25" width="160" height="30" as="geometry" />
        </mxCell>
        <mxCell id="H50riBkeAP4il1E12PRi-3" value="&lt;span&gt;dgraph&lt;/span&gt;" style="rounded=1;whiteSpace=wrap;html=1;fillColor=#cdeb8b;strokeColor=#36393d;fontStyle=1;" parent="1" vertex="1">
          <mxGeometry x="750" y="659.25" width="160" height="30" as="geometry" />
        </mxCell>
        <mxCell id="H50riBkeAP4il1E12PRi-4" value="filebrowser" style="rounded=1;whiteSpace=wrap;html=1;fillColor=#d5e8d4;strokeColor=#82b366;fontStyle=1;" parent="1" vertex="1">
          <mxGeometry x="1595" y="131.25" width="160" height="30" as="geometry" />
        </mxCell>
        <mxCell id="H50riBkeAP4il1E12PRi-6" value="&lt;span&gt;minio-console&lt;/span&gt;" style="rounded=1;whiteSpace=wrap;html=1;fillColor=#E6FFCC;strokeColor=#36393d;fontStyle=1;" parent="1" vertex="1">
          <mxGeometry x="1150" y="968.63" width="160" height="30" as="geometry" />
        </mxCell>
        <mxCell id="H50riBkeAP4il1E12PRi-7" value="minio-mc" style="rounded=1;whiteSpace=wrap;html=1;fillColor=#E6FFCC;strokeColor=#36393d;fontStyle=1;" parent="1" vertex="1">
          <mxGeometry x="1150" y="1008.6300000000001" width="160" height="30" as="geometry" />
        </mxCell>
        <mxCell id="H50riBkeAP4il1E12PRi-8" value="adminio-ui" style="rounded=1;whiteSpace=wrap;html=1;fillColor=#E6FFCC;strokeColor=#36393d;fontStyle=1;" parent="1" vertex="1">
          <mxGeometry x="1150" y="1049.63" width="160" height="30" as="geometry" />
        </mxCell>
        <mxCell id="H50riBkeAP4il1E12PRi-9" value="s3manager" style="rounded=1;whiteSpace=wrap;html=1;fillColor=#E6FFCC;strokeColor=#36393d;fontStyle=1;" parent="1" vertex="1">
          <mxGeometry x="1150" y="1093.38" width="160" height="30" as="geometry" />
        </mxCell>
        <mxCell id="H50riBkeAP4il1E12PRi-10" value="filestash" style="rounded=1;whiteSpace=wrap;html=1;fillColor=#d5e8d4;strokeColor=#82b366;fontStyle=1;" parent="1" vertex="1">
          <mxGeometry x="1595" y="175.25" width="160" height="30" as="geometry" />
        </mxCell>
        <mxCell id="H50riBkeAP4il1E12PRi-11" value="&lt;span&gt;graphql-mesh&lt;/span&gt;" style="rounded=1;whiteSpace=wrap;html=1;fillColor=#B8B8B8;strokeColor=#36393d;fontStyle=1;" parent="1" vertex="1">
          <mxGeometry x="1150" y="-226.75" width="160" height="30" as="geometry" />
        </mxCell>
        <mxCell id="H50riBkeAP4il1E12PRi-12" value="sqlpad" style="rounded=1;whiteSpace=wrap;html=1;fillColor=#E6FFCC;strokeColor=#d6b656;fontStyle=1;" parent="1" vertex="1">
          <mxGeometry x="940" y="1052" width="160" height="30" as="geometry" />
        </mxCell>
        <mxCell id="H50riBkeAP4il1E12PRi-13" value="&lt;span&gt;streams-explorer&lt;/span&gt;" style="rounded=1;whiteSpace=wrap;html=1;fillColor=#d5e8d4;strokeColor=#82b366;fontStyle=1;" parent="1" vertex="1">
          <mxGeometry x="-10" y="-85.75" width="160" height="30" as="geometry" />
        </mxCell>
        <mxCell id="H50riBkeAP4il1E12PRi-14" value="&lt;span&gt;kafka-ui&lt;/span&gt;" style="rounded=1;whiteSpace=wrap;html=1;fillColor=#d5e8d4;strokeColor=#82b366;fontStyle=1;" parent="1" vertex="1">
          <mxGeometry x="-200" y="41" width="160" height="30" as="geometry" />
        </mxCell>
        <mxCell id="H50riBkeAP4il1E12PRi-15" value="&lt;span&gt;thingsboard&lt;/span&gt;" style="rounded=1;whiteSpace=wrap;html=1;fillColor=#ffe6cc;strokeColor=#d79b00;fontStyle=1;" parent="1" vertex="1">
          <mxGeometry x="250" y="-368" width="160" height="30" as="geometry" />
        </mxCell>
        <mxCell id="H50riBkeAP4il1E12PRi-16" value="&lt;span&gt;postman&lt;/span&gt;" style="rounded=1;whiteSpace=wrap;html=1;fillColor=#d0cee2;strokeColor=#56517e;fontStyle=1;" parent="1" vertex="1">
          <mxGeometry x="440" y="140.5" width="160" height="30" as="geometry" />
        </mxCell>
        <mxCell id="H50riBkeAP4il1E12PRi-17" value="minrocks" style="rounded=1;whiteSpace=wrap;html=1;fillColor=#d0cee2;strokeColor=#56517e;fontStyle=1;" parent="1" vertex="1">
          <mxGeometry x="440" y="98" width="160" height="30" as="geometry" />
        </mxCell>
        <mxCell id="H50riBkeAP4il1E12PRi-19" value="&lt;span&gt;keyclock&lt;/span&gt;" style="rounded=1;whiteSpace=wrap;html=1;fillColor=#ffcccc;strokeColor=#36393d;fontStyle=1;" parent="1" vertex="1">
          <mxGeometry x="1170" y="-705" width="160" height="30" as="geometry" />
        </mxCell>
        <mxCell id="pLCn977sL9GFyJ48L3bG-1" value="efak" style="rounded=1;whiteSpace=wrap;html=1;fillColor=#d5e8d4;strokeColor=#82b366;fontStyle=1;" parent="1" vertex="1">
          <mxGeometry x="-200" y="83" width="160" height="30" as="geometry" />
        </mxCell>
        <mxCell id="TSPSzxJSB3BSCus9J5PE-2" value="&lt;span&gt;presto-1&lt;/span&gt;" style="rounded=1;whiteSpace=wrap;html=1;fillColor=#B8B8B8;strokeColor=#36393d;fontStyle=1;" parent="1" vertex="1">
          <mxGeometry x="1350" y="-457.25" width="160" height="30" as="geometry" />
        </mxCell>
        <mxCell id="TSPSzxJSB3BSCus9J5PE-3" value="&lt;span&gt;presto-cli&lt;/span&gt;" style="rounded=1;whiteSpace=wrap;html=1;fillColor=#B8B8B8;strokeColor=#36393d;fontStyle=1;" parent="1" vertex="1">
          <mxGeometry x="1350" y="-375.25" width="160" height="30" as="geometry" />
        </mxCell>
        <mxCell id="TSPSzxJSB3BSCus9J5PE-4" value="&lt;span&gt;presto-worker-[1-3]&lt;/span&gt;" style="rounded=1;whiteSpace=wrap;html=1;fillColor=#B8B8B8;strokeColor=#36393d;fontStyle=1;" parent="1" vertex="1">
          <mxGeometry x="1350" y="-416.25" width="160" height="30" as="geometry" />
        </mxCell>
        <mxCell id="LCmEB2m27gRzffWwXePV-1" value="&lt;span&gt;graphdb-1&lt;/span&gt;" style="rounded=1;whiteSpace=wrap;html=1;fillColor=#cdeb8b;strokeColor=#36393d;fontStyle=1;" parent="1" vertex="1">
          <mxGeometry x="750" y="619.25" width="160" height="30" as="geometry" />
        </mxCell>
        <mxCell id="ldME-o-jPs9P0N3gOMVe-1" value="yugabyte" style="rounded=1;whiteSpace=wrap;html=1;fillColor=#cdeb8b;strokeColor=#36393d;fontStyle=1;" parent="1" vertex="1">
          <mxGeometry x="940" y="738" width="160" height="30" as="geometry" />
        </mxCell>
        <mxCell id="s9srRWiwkuIAObly08TC-1" value="log4brains" style="rounded=1;whiteSpace=wrap;html=1;fillColor=#f8cecc;strokeColor=#b85450;fontStyle=1;" parent="1" vertex="1">
          <mxGeometry x="1350" y="-577.5" width="160" height="30" as="geometry" />
        </mxCell>
        <mxCell id="03c-35_fBqC2l3n-GO_S-1" value="&lt;span&gt;eventstore&lt;/span&gt;" style="rounded=1;whiteSpace=wrap;html=1;fillColor=#cdeb8b;strokeColor=#36393d;fontStyle=1;" parent="1" vertex="1">
          <mxGeometry x="180" y="780.25" width="160" height="30" as="geometry" />
        </mxCell>
        <mxCell id="03c-35_fBqC2l3n-GO_S-2" value="&lt;span&gt;zeebe-1&lt;/span&gt;" style="rounded=1;whiteSpace=wrap;html=1;fillColor=#d0cee2;strokeColor=#56517e;fontStyle=1;" parent="1" vertex="1">
          <mxGeometry x="440" y="-61.75" width="160" height="30" as="geometry" />
        </mxCell>
        <mxCell id="03c-35_fBqC2l3n-GO_S-3" value="&lt;span&gt;operate&lt;/span&gt;" style="rounded=1;whiteSpace=wrap;html=1;fillColor=#d0cee2;strokeColor=#56517e;fontStyle=1;" parent="1" vertex="1">
          <mxGeometry x="440" y="-21.75" width="160" height="30" as="geometry" />
        </mxCell>
        <mxCell id="03c-35_fBqC2l3n-GO_S-4" value="&lt;span&gt;zeeqs&lt;/span&gt;" style="rounded=1;whiteSpace=wrap;html=1;fillColor=#d0cee2;strokeColor=#56517e;fontStyle=1;" parent="1" vertex="1">
          <mxGeometry x="440" y="18.25" width="160" height="30" as="geometry" />
        </mxCell>
        <mxCell id="03c-35_fBqC2l3n-GO_S-8" value="&lt;span&gt;pinot-controller&lt;/span&gt;" style="rounded=1;whiteSpace=wrap;html=1;fillColor=#B8B8B8;strokeColor=#36393d;fontStyle=1;" parent="1" vertex="1">
          <mxGeometry x="1350" y="-268.25" width="160" height="30" as="geometry" />
        </mxCell>
        <mxCell id="03c-35_fBqC2l3n-GO_S-9" value="&lt;span&gt;pinot-broker-1&lt;/span&gt;" style="rounded=1;whiteSpace=wrap;html=1;fillColor=#B8B8B8;strokeColor=#36393d;fontStyle=1;" parent="1" vertex="1">
          <mxGeometry x="1350" y="-226.75" width="160" height="30" as="geometry" />
        </mxCell>
        <mxCell id="03c-35_fBqC2l3n-GO_S-10" value="&lt;span&gt;pinto-server-[1-3]&lt;/span&gt;" style="rounded=1;whiteSpace=wrap;html=1;fillColor=#B8B8B8;strokeColor=#36393d;fontStyle=1;" parent="1" vertex="1">
          <mxGeometry x="1350" y="-187.75" width="160" height="30" as="geometry" />
        </mxCell>
        <mxCell id="03c-35_fBqC2l3n-GO_S-13" value="&lt;span&gt;lakefs&lt;/span&gt;" style="rounded=1;whiteSpace=wrap;html=1;fillColor=#cdeb8b;strokeColor=#36393d;fontStyle=1;" parent="1" vertex="1">
          <mxGeometry x="1348.5" y="703.25" width="160" height="30" as="geometry" />
        </mxCell>
        <mxCell id="03c-35_fBqC2l3n-GO_S-14" value="&lt;span&gt;emqx-1&lt;/span&gt;" style="rounded=1;whiteSpace=wrap;html=1;fillColor=#ffe6cc;strokeColor=#d79b00;fontStyle=1;" parent="1" vertex="1">
          <mxGeometry x="440" y="-254" width="160" height="30" as="geometry" />
        </mxCell>
        <mxCell id="03c-35_fBqC2l3n-GO_S-16" value="&lt;span&gt;materialize&lt;/span&gt;" style="rounded=1;whiteSpace=wrap;html=1;fillColor=#b1ddf0;strokeColor=#10739e;fontStyle=1;" parent="1" vertex="1">
          <mxGeometry x="704" y="134.5" width="160" height="30" as="geometry" />
        </mxCell>
        <mxCell id="03c-35_fBqC2l3n-GO_S-17" value="&lt;span&gt;debezium-ui&lt;/span&gt;" style="rounded=1;whiteSpace=wrap;html=1;fillColor=#d5e8d4;strokeColor=#82b366;fontStyle=1;" parent="1" vertex="1">
          <mxGeometry x="-10" y="-41.75" width="160" height="30" as="geometry" />
        </mxCell>
        <mxCell id="qBLs1l9HxU0IzbeAoXJm-1" value="kowl" style="rounded=1;whiteSpace=wrap;html=1;fillColor=#d5e8d4;strokeColor=#82b366;fontStyle=1;" parent="1" vertex="1">
          <mxGeometry x="-10" y="0.75" width="160" height="30" as="geometry" />
        </mxCell>
        <mxCell id="qBLs1l9HxU0IzbeAoXJm-2" value="&lt;span&gt;oracle-rest-1&lt;/span&gt;" style="rounded=1;whiteSpace=wrap;html=1;fillColor=#d0cee2;strokeColor=#56517e;fontStyle=1;" parent="1" vertex="1">
          <mxGeometry x="440" y="57" width="160" height="30" as="geometry" />
        </mxCell>
        <mxCell id="qBLs1l9HxU0IzbeAoXJm-3" value="&lt;span&gt;oracledb-xe&lt;/span&gt;" style="rounded=1;whiteSpace=wrap;html=1;fillColor=#cdeb8b;strokeColor=#36393d;fontStyle=1;" parent="1" vertex="1">
          <mxGeometry x="1150" y="535" width="160" height="30" as="geometry" />
        </mxCell>
        <mxCell id="qBLs1l9HxU0IzbeAoXJm-4" value="nuclio" style="rounded=1;whiteSpace=wrap;html=1;fillColor=#dae8fc;strokeColor=#6c8ebf;fontStyle=1;" parent="1" vertex="1">
          <mxGeometry x="900" y="249" width="160" height="30" as="geometry" />
        </mxCell>
        <mxCell id="qBLs1l9HxU0IzbeAoXJm-6" value="firefox" style="rounded=1;whiteSpace=wrap;html=1;fillColor=#d5e8d4;strokeColor=#82b366;fontStyle=1;" parent="1" vertex="1">
          <mxGeometry x="1595" y="219" width="160" height="30" as="geometry" />
        </mxCell>
        <mxCell id="qBLs1l9HxU0IzbeAoXJm-7" value="zipkin" style="rounded=1;whiteSpace=wrap;html=1;fillColor=#ffff88;strokeColor=#36393d;fontStyle=1;" parent="1" vertex="1">
          <mxGeometry x="180" y="-750" width="160" height="30" as="geometry" />
        </mxCell>
        <mxCell id="qBLs1l9HxU0IzbeAoXJm-8" value="tika-server" style="rounded=1;whiteSpace=wrap;html=1;fillColor=#dae8fc;strokeColor=#6c8ebf;fontStyle=1;" parent="1" vertex="1">
          <mxGeometry x="704" y="249" width="160" height="30" as="geometry" />
        </mxCell>
        <mxCell id="qBLs1l9HxU0IzbeAoXJm-15" value="Machine Learning &amp;amp; Data Science" style="rounded=1;whiteSpace=wrap;html=1;labelBackgroundColor=none;strokeColor=#666666;strokeWidth=1;fillColor=#f5f5f5;fontColor=#333333;arcSize=20;absoluteArcSize=1;dashed=1;align=center;horizontal=1;verticalAlign=top;" parent="1" vertex="1">
          <mxGeometry x="1120" y="-116" width="410" height="316" as="geometry" />
        </mxCell>
        <mxCell id="qBLs1l9HxU0IzbeAoXJm-18" value="mlfow-server" style="rounded=1;whiteSpace=wrap;html=1;fillColor=#ffff88;strokeColor=#36393d;fontStyle=1;" parent="1" vertex="1">
          <mxGeometry x="1154" y="-84" width="160" height="30" as="geometry" />
        </mxCell>
        <mxCell id="qBLs1l9HxU0IzbeAoXJm-19" value="optuna" style="rounded=1;whiteSpace=wrap;html=1;fillColor=#ffff88;strokeColor=#36393d;fontStyle=1;" parent="1" vertex="1">
          <mxGeometry x="1154" y="-44" width="160" height="30" as="geometry" />
        </mxCell>
        <mxCell id="qBLs1l9HxU0IzbeAoXJm-20" value="&lt;span&gt;rstudio&lt;/span&gt;" style="rounded=1;whiteSpace=wrap;html=1;fillColor=#ffff88;strokeColor=#36393d;fontStyle=1;" parent="1" vertex="1">
          <mxGeometry x="1151.5" y="105.25" width="160" height="30" as="geometry" />
        </mxCell>
        <mxCell id="qBLs1l9HxU0IzbeAoXJm-21" value="&lt;span&gt;shiny-server&lt;/span&gt;" style="rounded=1;whiteSpace=wrap;html=1;fillColor=#ffff88;strokeColor=#36393d;fontStyle=1;" parent="1" vertex="1">
          <mxGeometry x="1151.5" y="145.75" width="160" height="30" as="geometry" />
        </mxCell>
        <mxCell id="qBLs1l9HxU0IzbeAoXJm-22" value="&lt;span&gt;zeppelin&lt;/span&gt;" style="rounded=1;whiteSpace=wrap;html=1;fillColor=#ffff88;strokeColor=#36393d;fontStyle=1;" parent="1" vertex="1">
          <mxGeometry x="1348.5" y="-44" width="160" height="30" as="geometry" />
        </mxCell>
        <mxCell id="qBLs1l9HxU0IzbeAoXJm-23" value="&lt;span&gt;jupyter&lt;/span&gt;" style="rounded=1;whiteSpace=wrap;html=1;fillColor=#ffff88;strokeColor=#36393d;fontStyle=1;" parent="1" vertex="1">
          <mxGeometry x="1348.5" y="-4" width="160" height="30" as="geometry" />
        </mxCell>
        <mxCell id="qBLs1l9HxU0IzbeAoXJm-24" value="&lt;span&gt;dataiku-dss&lt;/span&gt;" style="rounded=1;whiteSpace=wrap;html=1;fillColor=#ffff88;strokeColor=#36393d;fontStyle=1;" parent="1" vertex="1">
          <mxGeometry x="1348.5" y="-84" width="160" height="30" as="geometry" />
        </mxCell>
        <mxCell id="qBLs1l9HxU0IzbeAoXJm-25" value="optuna-dashboard" style="rounded=1;whiteSpace=wrap;html=1;fillColor=#ffff88;strokeColor=#36393d;fontStyle=1;" parent="1" vertex="1">
          <mxGeometry x="1154" y="-3.25" width="160" height="30" as="geometry" />
        </mxCell>
        <mxCell id="qBLs1l9HxU0IzbeAoXJm-26" value="excalidraw" style="rounded=1;whiteSpace=wrap;html=1;fillColor=#d5e8d4;strokeColor=#82b366;fontStyle=1;" parent="1" vertex="1">
          <mxGeometry x="1595" y="265.75" width="160" height="30" as="geometry" />
        </mxCell>
        <mxCell id="qBLs1l9HxU0IzbeAoXJm-27" value="business-central" style="rounded=1;whiteSpace=wrap;html=1;fillColor=#dae8fc;strokeColor=#6c8ebf;fontStyle=1;" parent="1" vertex="1">
          <mxGeometry x="898.5" y="289" width="160" height="30" as="geometry" />
        </mxCell>
        <mxCell id="qBLs1l9HxU0IzbeAoXJm-28" value="kie-server" style="rounded=1;whiteSpace=wrap;html=1;fillColor=#dae8fc;strokeColor=#6c8ebf;fontStyle=1;" parent="1" vertex="1">
          <mxGeometry x="898.5" y="330" width="160" height="30" as="geometry" />
        </mxCell>
        <mxCell id="qBLs1l9HxU0IzbeAoXJm-29" value="&lt;span&gt;flink-jobmanager&lt;/span&gt;" style="rounded=1;whiteSpace=wrap;html=1;fontStyle=1;fillColor=#ffcc99;strokeColor=#36393d;" parent="1" vertex="1">
          <mxGeometry x="898.5" y="-255" width="160" height="30" as="geometry" />
        </mxCell>
        <mxCell id="qBLs1l9HxU0IzbeAoXJm-30" value="&lt;span&gt;flink-taskmanager-[1-3]&lt;/span&gt;" style="rounded=1;whiteSpace=wrap;html=1;fontStyle=1;fillColor=#ffcc99;strokeColor=#36393d;" parent="1" vertex="1">
          <mxGeometry x="898.5" y="-213" width="160" height="30" as="geometry" />
        </mxCell>
        <mxCell id="qBLs1l9HxU0IzbeAoXJm-31" value="&lt;span&gt;flink-sql-cli&lt;/span&gt;" style="rounded=1;whiteSpace=wrap;html=1;fontStyle=1;fillColor=#ffcc99;strokeColor=#36393D;" parent="1" vertex="1">
          <mxGeometry x="898.5" y="-174" width="160" height="30" as="geometry" />
        </mxCell>
        <mxCell id="qBLs1l9HxU0IzbeAoXJm-32" value="&lt;span&gt;nussknacker-designer&lt;/span&gt;" style="rounded=1;whiteSpace=wrap;html=1;fontStyle=1;fillColor=#ffcc99;strokeColor=#36393d;" parent="1" vertex="1">
          <mxGeometry x="898.5" y="-130" width="160" height="30" as="geometry" />
        </mxCell>
        <mxCell id="qBLs1l9HxU0IzbeAoXJm-34" value="&lt;span&gt;debezium-server&lt;/span&gt;" style="rounded=1;whiteSpace=wrap;html=1;fillColor=#d0cee2;strokeColor=#56517e;fontStyle=1;" parent="1" vertex="1">
          <mxGeometry x="250" y="189" width="160" height="30" as="geometry" />
        </mxCell>
        <mxCell id="qBLs1l9HxU0IzbeAoXJm-35" value="pgadmin" style="rounded=1;whiteSpace=wrap;html=1;fillColor=#E6FFCC;strokeColor=#d6b656;fontStyle=1;" parent="1" vertex="1">
          <mxGeometry x="940" y="1092" width="160" height="30" as="geometry" />
        </mxCell>
        <mxCell id="sxZVimGzhkLC96eO-HfW-1" value="&lt;span&gt;kouncil&lt;/span&gt;" style="rounded=1;whiteSpace=wrap;html=1;fillColor=#d5e8d4;strokeColor=#82b366;fontStyle=1;" parent="1" vertex="1">
          <mxGeometry x="-200" y="165" width="160" height="30" as="geometry" />
        </mxCell>
        <mxCell id="sXhZIEtFCcbckbwbebA3-2" value="&lt;span&gt;streamsets-dataops-1&lt;/span&gt;" style="rounded=1;whiteSpace=wrap;html=1;fillColor=#d0cee2;strokeColor=#56517e;fontStyle=1;" parent="1" vertex="1">
          <mxGeometry x="250" y="-24" width="160" height="30" as="geometry" />
        </mxCell>
        <mxCell id="sXhZIEtFCcbckbwbebA3-3" value="loki" style="rounded=1;whiteSpace=wrap;html=1;fillColor=#cdeb8b;strokeColor=#36393d;fontStyle=1;" parent="1" vertex="1">
          <mxGeometry x="1348.5" y="617.25" width="160" height="30" as="geometry" />
        </mxCell>
        <mxCell id="sXhZIEtFCcbckbwbebA3-4" value="promtail" style="rounded=1;whiteSpace=wrap;html=1;fillColor=#cdeb8b;strokeColor=#36393d;fontStyle=1;" parent="1" vertex="1">
          <mxGeometry x="1348.5" y="658.25" width="160" height="30" as="geometry" />
        </mxCell>
        <mxCell id="sXhZIEtFCcbckbwbebA3-5" value="&lt;span&gt;kafka-magic&lt;/span&gt;" style="rounded=1;whiteSpace=wrap;html=1;fillColor=#d5e8d4;strokeColor=#82b366;fontStyle=1;" parent="1" vertex="1">
          <mxGeometry x="-10" y="83" width="160" height="30" as="geometry" />
        </mxCell>
        <mxCell id="sXhZIEtFCcbckbwbebA3-6" value="&lt;span&gt;streampipes-ui&lt;/span&gt;" style="rounded=1;whiteSpace=wrap;html=1;fillColor=#d0cee2;strokeColor=#56517e;fontStyle=1;" parent="1" vertex="1">
          <mxGeometry x="250" y="18.25" width="160" height="30" as="geometry" />
        </mxCell>
        <mxCell id="sXhZIEtFCcbckbwbebA3-7" value="&lt;span&gt;streampipes-backend&lt;/span&gt;" style="rounded=1;whiteSpace=wrap;html=1;fillColor=#d0cee2;strokeColor=#56517e;fontStyle=1;" parent="1" vertex="1">
          <mxGeometry x="250" y="231.25" width="160" height="30" as="geometry" />
        </mxCell>
        <mxCell id="sXhZIEtFCcbckbwbebA3-8" value="&lt;span&gt;streampipes-connect-worker&lt;/span&gt;" style="rounded=1;whiteSpace=wrap;html=1;fillColor=#d0cee2;strokeColor=#56517e;fontStyle=1;" parent="1" vertex="1">
          <mxGeometry x="250" y="271.25" width="160" height="30" as="geometry" />
        </mxCell>
        <mxCell id="sXhZIEtFCcbckbwbebA3-9" value="&lt;span&gt;remora&lt;/span&gt;" style="rounded=1;whiteSpace=wrap;html=1;fillColor=#d5e8d4;strokeColor=#82b366;fontStyle=1;" parent="1" vertex="1">
          <mxGeometry x="-200" y="205" width="160" height="30" as="geometry" />
        </mxCell>
        <mxCell id="sXhZIEtFCcbckbwbebA3-10" value="jikkou" style="rounded=1;whiteSpace=wrap;html=1;fillColor=#d5e8d4;strokeColor=#82b366;fontStyle=1;" parent="1" vertex="1">
          <mxGeometry x="-10" y="296" width="160" height="30" as="geometry" />
        </mxCell>
        <mxCell id="sXhZIEtFCcbckbwbebA3-11" value="metabase" style="rounded=1;whiteSpace=wrap;html=1;fillColor=#fff2cc;strokeColor=#d6b656;fontStyle=1;" parent="1" vertex="1">
          <mxGeometry x="1595" y="-480.5" width="160" height="30" as="geometry" />
        </mxCell>
        <mxCell id="sXhZIEtFCcbckbwbebA3-12" value="&lt;span&gt;avro-tools&lt;/span&gt;" style="rounded=1;whiteSpace=wrap;html=1;fillColor=#f8cecc;strokeColor=#b85450;fontStyle=1;" parent="1" vertex="1">
          <mxGeometry x="800" y="-790" width="160" height="30" as="geometry" />
        </mxCell>
        <mxCell id="sV9VrbcCdyO6pG6SmuX6-1" value="jaeger" style="rounded=1;whiteSpace=wrap;html=1;fillColor=#ffff88;strokeColor=#36393d;fontStyle=1;" parent="1" vertex="1">
          <mxGeometry x="180" y="-710" width="160" height="30" as="geometry" />
        </mxCell>
        <mxCell id="C6CPtw9BYjPgvVQhgBcI-1" value="pitchfork" style="rounded=1;whiteSpace=wrap;html=1;fillColor=#ffff88;strokeColor=#36393d;fontStyle=1;" parent="1" vertex="1">
          <mxGeometry x="180" y="-667.5" width="160" height="30" as="geometry" />
        </mxCell>
        <mxCell id="HFgsfmsOMwEeYktq85Mp-1" value="otel-collector" style="rounded=1;whiteSpace=wrap;html=1;fillColor=#ffff88;strokeColor=#36393d;fontStyle=1;" parent="1" vertex="1">
          <mxGeometry x="180" y="-790" width="160" height="30" as="geometry" />
        </mxCell>
        <mxCell id="HFgsfmsOMwEeYktq85Mp-2" value="&lt;span&gt;bpm-platform&lt;/span&gt;" style="rounded=1;whiteSpace=wrap;html=1;fillColor=#d0cee2;strokeColor=#56517e;fontStyle=1;" parent="1" vertex="1">
          <mxGeometry x="440" y="-144" width="160" height="30" as="geometry" />
        </mxCell>
        <mxCell id="HFgsfmsOMwEeYktq85Mp-3" value="&lt;span&gt;optimize&lt;/span&gt;" style="rounded=1;whiteSpace=wrap;html=1;fillColor=#d0cee2;strokeColor=#56517e;fontStyle=1;" parent="1" vertex="1">
          <mxGeometry x="440" y="-104" width="160" height="30" as="geometry" />
        </mxCell>
        <mxCell id="HFgsfmsOMwEeYktq85Mp-4" value="&lt;span&gt;lenses-box&lt;/span&gt;" style="rounded=1;whiteSpace=wrap;html=1;fillColor=#d5e8d4;strokeColor=#82b366;fontStyle=1;" parent="1" vertex="1">
          <mxGeometry x="-200" y="-293.5" width="160" height="30" as="geometry" />
        </mxCell>
        <mxCell id="kK8PEYuBefdTcSVyodPa-1" value="promtail" style="rounded=1;whiteSpace=wrap;html=1;fillColor=#ffff88;strokeColor=#36393d;fontStyle=1;" parent="1" vertex="1">
          <mxGeometry x="-10" y="-584" width="160" height="30" as="geometry" />
        </mxCell>
        <mxCell id="kK8PEYuBefdTcSVyodPa-2" value="tempo" style="rounded=1;whiteSpace=wrap;html=1;fillColor=#ffff88;strokeColor=#36393d;fontStyle=1;" parent="1" vertex="1">
          <mxGeometry x="180" y="-627.5" width="160" height="30" as="geometry" />
        </mxCell>
        <mxCell id="kK8PEYuBefdTcSVyodPa-3" value="tempo-query" style="rounded=1;whiteSpace=wrap;html=1;fillColor=#ffff88;strokeColor=#36393d;fontStyle=1;" parent="1" vertex="1">
          <mxGeometry x="180" y="-584" width="160" height="30" as="geometry" />
        </mxCell>
        <mxCell id="kK8PEYuBefdTcSVyodPa-4" value="loki" style="rounded=1;whiteSpace=wrap;html=1;fillColor=#ffff88;strokeColor=#36393d;fontStyle=1;" parent="1" vertex="1">
          <mxGeometry x="-10" y="-627.5" width="160" height="30" as="geometry" />
        </mxCell>
        <mxCell id="6L8EADluBYmrNNKkOHeg-3" value="&lt;span&gt;kibana&lt;/span&gt;" style="rounded=1;whiteSpace=wrap;html=1;fillColor=#fff2cc;strokeColor=#d6b656;fontStyle=1;" parent="1" vertex="1">
          <mxGeometry x="1595" y="-786" width="160" height="30" as="geometry" />
        </mxCell>
        <mxCell id="6L8EADluBYmrNNKkOHeg-4" value="&lt;span&gt;neo4j&lt;/span&gt;" style="rounded=1;whiteSpace=wrap;html=1;fillColor=#cdeb8b;strokeColor=#36393d;fontStyle=1;" parent="1" vertex="1">
          <mxGeometry x="750" y="535" width="160" height="30" as="geometry" />
        </mxCell>
        <mxCell id="6L8EADluBYmrNNKkOHeg-5" value="&lt;span&gt;influxdb&lt;/span&gt;&lt;span style=&quot;font-family: monospace; font-size: 0px; white-space: nowrap;&quot;&gt;%3CmxGraphModel%3E%3Croot%3E%3CmxCell%20id%3D%220%22%2F%3E%3CmxCell%20id%3D%221%22%20parent%3D%220%22%2F%3E%3CmxCell%20id%3D%222%22%20value%3D%22%26lt%3Bb%26gt%3Bneo4j%26lt%3B%2Fb%26gt%3B%22%20style%3D%22rounded%3D1%3BwhiteSpace%3Dwrap%3Bhtml%3D1%3B%22%20vertex%3D%221%22%20parent%3D%221%22%3E%3CmxGeometry%20x%3D%22720%22%20y%3D%22900%22%20width%3D%22160%22%20height%3D%2230%22%20as%3D%22geometry%22%2F%3E%3C%2FmxCell%3E%3C%2Froot%3E%3C%2FmxGraphModel%3E&lt;/span&gt;" style="rounded=1;whiteSpace=wrap;html=1;fillColor=#cdeb8b;strokeColor=#36393d;fontStyle=1;" parent="1" vertex="1">
          <mxGeometry x="560" y="575" width="160" height="30" as="geometry" />
        </mxCell>
        <mxCell id="6L8EADluBYmrNNKkOHeg-6" value="&lt;span&gt;influxdb-ui&lt;/span&gt;&lt;span style=&quot;font-family: monospace; font-size: 0px; white-space: nowrap;&quot;&gt;%3CmxGraphModel%3E%3Croot%3E%3CmxCell%20id%3D%220%22%2F%3E%3CmxCell%20id%3D%221%22%20parent%3D%220%22%2F%3E%3CmxCell%20id%3D%222%22%20value%3D%22%26lt%3Bb%26gt%3Bneo4j%26lt%3B%2Fb%26gt%3B%22%20style%3D%22rounded%3D1%3BwhiteSpace%3Dwrap%3Bhtml%3D1%3B%22%20vertex%3D%221%22%20parent%3D%221%22%3E%3CmxGeometry%20x%3D%22720%22%20y%3D%22900%22%20width%3D%22160%22%20height%3D%2230%22%20as%3D%22geometry%22%2F%3E%3C%2FmxCell%3E%3C%2Froot%3E%3C%2FmxGraphModel%3E-ui-&lt;/span&gt;" style="rounded=1;whiteSpace=wrap;html=1;fillColor=#E6FFCC;strokeColor=#36393d;fontStyle=1;" parent="1" vertex="1">
          <mxGeometry x="560" y="930" width="160" height="30" as="geometry" />
        </mxCell>
        <mxCell id="6L8EADluBYmrNNKkOHeg-7" value="&lt;span&gt;chronograf&lt;/span&gt;" style="rounded=1;whiteSpace=wrap;html=1;fillColor=#cdeb8b;strokeColor=#36393d;fontStyle=1;" parent="1" vertex="1">
          <mxGeometry x="560" y="617.25" width="160" height="30" as="geometry" />
        </mxCell>
        <mxCell id="6L8EADluBYmrNNKkOHeg-8" value="&lt;span&gt;kapacitor&lt;/span&gt;" style="rounded=1;whiteSpace=wrap;html=1;fillColor=#cdeb8b;strokeColor=#36393d;fontStyle=1;" parent="1" vertex="1">
          <mxGeometry x="560" y="657.25" width="160" height="30" as="geometry" />
        </mxCell>
        <mxCell id="6L8EADluBYmrNNKkOHeg-9" value="&lt;span&gt;telegraf&lt;/span&gt;" style="rounded=1;whiteSpace=wrap;html=1;fillColor=#cdeb8b;strokeColor=#36393d;fontStyle=1;" parent="1" vertex="1">
          <mxGeometry x="560" y="697.25" width="160" height="30" as="geometry" />
        </mxCell>
        <mxCell id="6L8EADluBYmrNNKkOHeg-10" value="&lt;span&gt;influxdb2&lt;/span&gt;" style="rounded=1;whiteSpace=wrap;html=1;fillColor=#cdeb8b;strokeColor=#36393d;fontStyle=1;" parent="1" vertex="1">
          <mxGeometry x="560" y="739.25" width="160" height="30" as="geometry" />
        </mxCell>
        <mxCell id="6L8EADluBYmrNNKkOHeg-11" value="&lt;span&gt;hazelcast-[1-3]&lt;/span&gt;" style="rounded=1;whiteSpace=wrap;html=1;fillColor=#cdeb8b;strokeColor=#36393d;fontStyle=1;" parent="1" vertex="1">
          <mxGeometry x="180" y="535" width="160" height="30" as="geometry" />
        </mxCell>
        <mxCell id="6L8EADluBYmrNNKkOHeg-12" value="&lt;span&gt;hazelcast-mc&lt;/span&gt;" style="rounded=1;whiteSpace=wrap;html=1;fillColor=#cdeb8b;strokeColor=#36393d;fontStyle=1;" parent="1" vertex="1">
          <mxGeometry x="180" y="576" width="160" height="30" as="geometry" />
        </mxCell>
        <mxCell id="6L8EADluBYmrNNKkOHeg-13" value="&lt;span&gt;questdb&lt;/span&gt;" style="rounded=1;whiteSpace=wrap;html=1;fillColor=#cdeb8b;strokeColor=#36393d;fontStyle=1;" parent="1" vertex="1">
          <mxGeometry x="560" y="535" width="160" height="30" as="geometry" />
        </mxCell>
        <mxCell id="6L8EADluBYmrNNKkOHeg-14" value="&lt;span&gt;ignite-[1-3]&lt;/span&gt;" style="rounded=1;whiteSpace=wrap;html=1;fillColor=#cdeb8b;strokeColor=#36393d;fontStyle=1;" parent="1" vertex="1">
          <mxGeometry x="180" y="621" width="160" height="30" as="geometry" />
        </mxCell>
        <mxCell id="omCNdxR7SjSAZw2nMjmR-1" value="zilla" style="rounded=1;whiteSpace=wrap;html=1;fillColor=#d5e8d4;strokeColor=#82b366;fontStyle=1;" parent="1" vertex="1">
          <mxGeometry x="-10" y="336" width="160" height="30" as="geometry" />
        </mxCell>
        <mxCell id="omCNdxR7SjSAZw2nMjmR-2" value="&lt;span&gt;nocodb&lt;/span&gt;" style="rounded=1;whiteSpace=wrap;html=1;fillColor=#fff2cc;strokeColor=#d6b656;fontStyle=1;" parent="1" vertex="1">
          <mxGeometry x="1595" y="-705" width="160" height="30" as="geometry" />
        </mxCell>
        <mxCell id="omCNdxR7SjSAZw2nMjmR-4" value="dbt" style="rounded=1;whiteSpace=wrap;html=1;fillColor=#d5e8d4;strokeColor=#82b366;fontStyle=1;" parent="1" vertex="1">
          <mxGeometry x="1595" y="415" width="160" height="30" as="geometry" />
        </mxCell>
        <mxCell id="omCNdxR7SjSAZw2nMjmR-5" value="quine" style="rounded=1;whiteSpace=wrap;html=1;fillColor=#b1ddf0;strokeColor=#10739e;fontStyle=1;" parent="1" vertex="1">
          <mxGeometry x="704" y="6.5" width="160" height="30" as="geometry" />
        </mxCell>
        <mxCell id="omCNdxR7SjSAZw2nMjmR-8" value="&lt;span&gt;nifi-registry&lt;/span&gt;" style="rounded=1;whiteSpace=wrap;html=1;fillColor=#d0cee2;strokeColor=#56517e;fontStyle=1;" parent="1" vertex="1">
          <mxGeometry x="250" y="355" width="160" height="30" as="geometry" />
        </mxCell>
        <mxCell id="omCNdxR7SjSAZw2nMjmR-9" value="&lt;span&gt;nifi-toolkit&lt;/span&gt;" style="rounded=1;whiteSpace=wrap;html=1;fillColor=#d0cee2;strokeColor=#56517e;fontStyle=1;" parent="1" vertex="1">
          <mxGeometry x="250" y="395" width="160" height="30" as="geometry" />
        </mxCell>
        <mxCell id="omCNdxR7SjSAZw2nMjmR-11" value="&lt;span&gt;conduit&lt;/span&gt;" style="rounded=1;whiteSpace=wrap;html=1;fillColor=#d0cee2;strokeColor=#56517e;fontStyle=1;" parent="1" vertex="1">
          <mxGeometry x="440" y="316" width="160" height="30" as="geometry" />
        </mxCell>
        <mxCell id="omCNdxR7SjSAZw2nMjmR-12" value="&lt;span&gt;retool&lt;/span&gt;" style="rounded=1;whiteSpace=wrap;html=1;fillColor=#fff2cc;strokeColor=#d6b656;fontStyle=1;" parent="1" vertex="1">
          <mxGeometry x="1595" y="-259" width="160" height="30" as="geometry" />
        </mxCell>
        <mxCell id="omCNdxR7SjSAZw2nMjmR-13" value="&lt;span&gt;airbyte&lt;/span&gt;" style="rounded=1;whiteSpace=wrap;html=1;fillColor=#d0cee2;strokeColor=#56517e;fontStyle=1;" parent="1" vertex="1">
          <mxGeometry x="440" y="357" width="160" height="30" as="geometry" />
        </mxCell>
        <mxCell id="omCNdxR7SjSAZw2nMjmR-14" value="oracle sqlcl" style="rounded=1;whiteSpace=wrap;html=1;fillColor=#E6FFCC;strokeColor=#36393d;fontStyle=1;" parent="1" vertex="1">
          <mxGeometry x="940" y="930" width="160" height="30" as="geometry" />
        </mxCell>
        <mxCell id="omCNdxR7SjSAZw2nMjmR-15" value="mock-server" style="rounded=1;whiteSpace=wrap;html=1;fillColor=#d5e8d4;strokeColor=#82b366;fontStyle=1;" parent="1" vertex="1">
          <mxGeometry x="1595" y="480" width="160" height="30" as="geometry" />
        </mxCell>
        <mxCell id="omCNdxR7SjSAZw2nMjmR-17" value="kafka-webview" style="rounded=1;whiteSpace=wrap;html=1;fillColor=#d5e8d4;strokeColor=#82b366;fontStyle=1;" parent="1" vertex="1">
          <mxGeometry x="-200" y="250" width="160" height="30" as="geometry" />
        </mxCell>
        <mxCell id="omCNdxR7SjSAZw2nMjmR-18" value="&lt;span&gt;opensearch&lt;/span&gt;" style="rounded=1;whiteSpace=wrap;html=1;fillColor=#cdeb8b;strokeColor=#36393d;fontStyle=1;" parent="1" vertex="1">
          <mxGeometry x="370" y="617.25" width="160" height="30" as="geometry" />
        </mxCell>
        <mxCell id="omCNdxR7SjSAZw2nMjmR-19" value="&lt;span&gt;opensearch-dashboards&lt;/span&gt;" style="rounded=1;whiteSpace=wrap;html=1;fillColor=#fff2cc;strokeColor=#d6b656;fontStyle=1;" parent="1" vertex="1">
          <mxGeometry x="1595" y="-747" width="160" height="30" as="geometry" />
        </mxCell>
        <mxCell id="omCNdxR7SjSAZw2nMjmR-20" value="&lt;span&gt;elasticvue&lt;/span&gt;" style="rounded=1;whiteSpace=wrap;html=1;fillColor=#E6FFCC;strokeColor=#36393d;fontStyle=1;" parent="1" vertex="1">
          <mxGeometry x="370" y="1050.75" width="160" height="30" as="geometry" />
        </mxCell>
        <mxCell id="omCNdxR7SjSAZw2nMjmR-21" value="azure-storage-explorer" style="rounded=1;whiteSpace=wrap;html=1;fillColor=#E6FFCC;strokeColor=#36393d;fontStyle=1;" parent="1" vertex="1">
          <mxGeometry x="1150" y="1134.13" width="160" height="30" as="geometry" />
        </mxCell>
        <mxCell id="omCNdxR7SjSAZw2nMjmR-22" value="azurecli" style="rounded=1;whiteSpace=wrap;html=1;fillColor=#E6FFCC;strokeColor=#36393d;fontStyle=1;" parent="1" vertex="1">
          <mxGeometry x="1150" y="1172.88" width="160" height="30" as="geometry" />
        </mxCell>
        <mxCell id="tMdNKpauO8_66jlT0dNw-1" value="&lt;span&gt;kafkactl&lt;/span&gt;" style="rounded=1;whiteSpace=wrap;html=1;fillColor=#d5e8d4;strokeColor=#82b366;fontStyle=1;" parent="1" vertex="1">
          <mxGeometry x="-200" y="-210" width="160" height="30" as="geometry" />
        </mxCell>
        <mxCell id="59N4zCQJsA-DeAXp29bP-1" value="&lt;span&gt;memgraph&lt;/span&gt;" style="rounded=1;whiteSpace=wrap;html=1;fillColor=#cdeb8b;strokeColor=#36393d;fontStyle=1;" parent="1" vertex="1">
          <mxGeometry x="750" y="697.25" width="160" height="30" as="geometry" />
        </mxCell>
        <mxCell id="59N4zCQJsA-DeAXp29bP-2" value="conduktor-platform" style="rounded=1;whiteSpace=wrap;html=1;fillColor=#d5e8d4;strokeColor=#82b366;fontStyle=1;" parent="1" vertex="1">
          <mxGeometry x="-10" y="251" width="160" height="30" as="geometry" />
        </mxCell>
        <mxCell id="59N4zCQJsA-DeAXp29bP-3" value="&lt;span&gt;jupyterhub&lt;/span&gt;" style="rounded=1;whiteSpace=wrap;html=1;fillColor=#ffff88;strokeColor=#36393d;fontStyle=1;" parent="1" vertex="1">
          <mxGeometry x="1348.5" y="38.25" width="160" height="30" as="geometry" />
        </mxCell>
        <mxCell id="59N4zCQJsA-DeAXp29bP-4" value="kpow" style="rounded=1;whiteSpace=wrap;html=1;fillColor=#d5e8d4;strokeColor=#82b366;fontStyle=1;" parent="1" vertex="1">
          <mxGeometry x="-10" y="126.5" width="160" height="30" as="geometry" />
        </mxCell>
        <mxCell id="59N4zCQJsA-DeAXp29bP-5" value="kaskade" style="rounded=1;whiteSpace=wrap;html=1;fillColor=#d5e8d4;strokeColor=#82b366;fontStyle=1;" parent="1" vertex="1">
          <mxGeometry x="-10" y="166" width="160" height="30" as="geometry" />
        </mxCell>
        <mxCell id="59N4zCQJsA-DeAXp29bP-6" value="kafka-connector-board" style="rounded=1;whiteSpace=wrap;html=1;fillColor=#d5e8d4;strokeColor=#82b366;fontStyle=1;" parent="1" vertex="1">
          <mxGeometry x="-10" y="206" width="160" height="30" as="geometry" />
        </mxCell>
        <mxCell id="59N4zCQJsA-DeAXp29bP-7" value="API Management" style="rounded=1;whiteSpace=wrap;html=1;labelBackgroundColor=none;strokeColor=#666666;strokeWidth=1;fillColor=#f5f5f5;fontColor=#333333;arcSize=20;absoluteArcSize=1;dashed=1;align=center;horizontal=1;verticalAlign=top;" parent="1" vertex="1">
          <mxGeometry x="1120" y="217.38" width="410" height="262.62" as="geometry" />
        </mxCell>
        <mxCell id="59N4zCQJsA-DeAXp29bP-8" value="kong-gateway" style="rounded=1;whiteSpace=wrap;html=1;fillColor=#bac8d3;strokeColor=#23445d;fontStyle=1;" parent="1" vertex="1">
          <mxGeometry x="1151.5" y="247.38" width="160" height="30" as="geometry" />
        </mxCell>
        <mxCell id="59N4zCQJsA-DeAXp29bP-9" value="kong-deck" style="rounded=1;whiteSpace=wrap;html=1;fillColor=#bac8d3;strokeColor=#23445d;fontStyle=1;" parent="1" vertex="1">
          <mxGeometry x="1151.5" y="286" width="160" height="30" as="geometry" />
        </mxCell>
        <mxCell id="59N4zCQJsA-DeAXp29bP-10" value="konga" style="rounded=1;whiteSpace=wrap;html=1;fillColor=#bac8d3;strokeColor=#23445d;fontStyle=1;" parent="1" vertex="1">
          <mxGeometry x="1151.5" y="327" width="160" height="30" as="geometry" />
        </mxCell>
        <mxCell id="59N4zCQJsA-DeAXp29bP-11" value="kong-admin-ui" style="rounded=1;whiteSpace=wrap;html=1;fillColor=#bac8d3;strokeColor=#23445d;fontStyle=1;" parent="1" vertex="1">
          <mxGeometry x="1151.5" y="367" width="160" height="30" as="geometry" />
        </mxCell>
        <mxCell id="59N4zCQJsA-DeAXp29bP-12" value="kong-map" style="rounded=1;whiteSpace=wrap;html=1;fillColor=#bac8d3;strokeColor=#23445d;fontStyle=1;" parent="1" vertex="1">
          <mxGeometry x="1151.5" y="407" width="160" height="30" as="geometry" />
        </mxCell>
        <mxCell id="59N4zCQJsA-DeAXp29bP-13" value="tyk-gateway" style="rounded=1;whiteSpace=wrap;html=1;fillColor=#bac8d3;strokeColor=#23445d;fontStyle=1;" parent="1" vertex="1">
          <mxGeometry x="1350" y="247.38" width="160" height="30" as="geometry" />
        </mxCell>
        <mxCell id="59N4zCQJsA-DeAXp29bP-14" value="tyk-pump" style="rounded=1;whiteSpace=wrap;html=1;fillColor=#bac8d3;strokeColor=#23445d;fontStyle=1;" parent="1" vertex="1">
          <mxGeometry x="1350" y="286" width="160" height="30" as="geometry" />
        </mxCell>
        <mxCell id="59N4zCQJsA-DeAXp29bP-15" value="tyk-dashboard" style="rounded=1;whiteSpace=wrap;html=1;fillColor=#bac8d3;strokeColor=#23445d;fontStyle=1;" parent="1" vertex="1">
          <mxGeometry x="1348.5" y="327" width="160" height="30" as="geometry" />
        </mxCell>
        <mxCell id="59N4zCQJsA-DeAXp29bP-16" value="&lt;span&gt;curity&lt;/span&gt;" style="rounded=1;whiteSpace=wrap;html=1;fillColor=#ffcccc;strokeColor=#36393d;fontStyle=1;" parent="1" vertex="1">
          <mxGeometry x="1170" y="-747" width="160" height="30" as="geometry" />
        </mxCell>
        <mxCell id="59N4zCQJsA-DeAXp29bP-17" value="&lt;span&gt;anaconda&lt;/span&gt;" style="rounded=1;whiteSpace=wrap;html=1;fillColor=#ffff88;strokeColor=#36393d;fontStyle=1;" parent="1" vertex="1">
          <mxGeometry x="1348.5" y="80" width="160" height="30" as="geometry" />
        </mxCell>
        <mxCell id="XGxU2RQ1BbT2GL4TR0q_-1" value="redpanda-console" style="rounded=1;whiteSpace=wrap;html=1;fillColor=#d5e8d4;strokeColor=#82b366;fontStyle=1;" parent="1" vertex="1">
          <mxGeometry x="-10" y="41" width="160" height="30" as="geometry" />
        </mxCell>
        <mxCell id="nXC0okhP8pfNGAgkVtu_-1" value="iceberg-rest" style="rounded=1;whiteSpace=wrap;html=1;fillColor=#FFCC99;strokeColor=#36393D;fontStyle=1;" parent="1" vertex="1">
          <mxGeometry x="898.5" y="-91.75" width="160" height="30" as="geometry" />
        </mxCell>
        <mxCell id="hNrkheXuV3fZ_5jc6I62-1" value="&lt;span&gt;janusgraph&lt;/span&gt;" style="rounded=1;whiteSpace=wrap;html=1;fillColor=#cdeb8b;strokeColor=#36393d;fontStyle=1;" parent="1" vertex="1">
          <mxGeometry x="750" y="738" width="160" height="30" as="geometry" />
        </mxCell>
        <mxCell id="hNrkheXuV3fZ_5jc6I62-2" value="&lt;span&gt;gremlin-console&lt;/span&gt;" style="rounded=1;whiteSpace=wrap;html=1;fillColor=#E6FFCC;strokeColor=#36393d;fontStyle=1;" parent="1" vertex="1">
          <mxGeometry x="750" y="972" width="160" height="30" as="geometry" />
        </mxCell>
        <mxCell id="hNrkheXuV3fZ_5jc6I62-4" value="mock-server" style="rounded=1;whiteSpace=wrap;html=1;fillColor=#d5e8d4;strokeColor=#82b366;fontStyle=1;" parent="1" vertex="1">
          <mxGeometry x="1595" y="480" width="160" height="30" as="geometry" />
        </mxCell>
        <mxCell id="hNrkheXuV3fZ_5jc6I62-8" value="&lt;span&gt;invana-engine&lt;/span&gt;" style="rounded=1;whiteSpace=wrap;html=1;fillColor=#E6FFCC;strokeColor=#36393d;fontStyle=1;" parent="1" vertex="1">
          <mxGeometry x="750" y="1012" width="160" height="30" as="geometry" />
        </mxCell>
        <mxCell id="hNrkheXuV3fZ_5jc6I62-9" value="&lt;span&gt;invana-studio&lt;/span&gt;" style="rounded=1;whiteSpace=wrap;html=1;fillColor=#E6FFCC;strokeColor=#36393d;fontStyle=1;" parent="1" vertex="1">
          <mxGeometry x="750" y="1049.63" width="160" height="30" as="geometry" />
        </mxCell>
        <mxCell id="QS7YwrT1eDq-Ie9Mm9in-1" value="&lt;span&gt;arcadedb&lt;/span&gt;" style="rounded=1;whiteSpace=wrap;html=1;fillColor=#cdeb8b;strokeColor=#36393d;fontStyle=1;" parent="1" vertex="1">
          <mxGeometry x="750" y="777" width="160" height="30" as="geometry" />
        </mxCell>
        <mxCell id="ULKrH0CnpLnqIblVgWq7-1" value="quine" style="rounded=1;whiteSpace=wrap;html=1;fillColor=#b1ddf0;strokeColor=#10739e;fontStyle=1;" parent="1" vertex="1">
          <mxGeometry x="898.5" y="6" width="160" height="30" as="geometry" />
        </mxCell>
        <mxCell id="bsXFlNkdTKe16YtiueZq-1" value="&lt;span&gt;kafka-cli&lt;/span&gt;" style="rounded=1;whiteSpace=wrap;html=1;fillColor=#d5e8d4;strokeColor=#82b366;fontStyle=1;" parent="1" vertex="1">
          <mxGeometry x="-200" y="295.75" width="160" height="30" as="geometry" />
        </mxCell>
        <mxCell id="qun7cKCzv8F0SJJop1Fz-1" value="&lt;span&gt;kafkistry&lt;/span&gt;" style="rounded=1;whiteSpace=wrap;html=1;fillColor=#d5e8d4;strokeColor=#82b366;fontStyle=1;" parent="1" vertex="1">
          <mxGeometry x="-200" y="337" width="160" height="30" as="geometry" />
        </mxCell>
        <mxCell id="lFKLQ1aLUPMu__qkMjO7-1" value="&lt;span&gt;minio-[1-3]&lt;/span&gt;" style="rounded=1;whiteSpace=wrap;html=1;fillColor=#cdeb8b;strokeColor=#36393d;fontStyle=1;" vertex="1" parent="1">
          <mxGeometry x="-200" y="815.75" width="160" height="30" as="geometry" />
        </mxCell>
        <mxCell id="lFKLQ1aLUPMu__qkMjO7-2" value="&lt;span&gt;oracledb-free&lt;/span&gt;" style="rounded=1;whiteSpace=wrap;html=1;fillColor=#cdeb8b;strokeColor=#36393d;fontStyle=1;" vertex="1" parent="1">
          <mxGeometry x="1150" y="576" width="160" height="30" as="geometry" />
        </mxCell>
        <mxCell id="lFKLQ1aLUPMu__qkMjO7-3" value="&lt;span&gt;parquet-tools&lt;/span&gt;" style="rounded=1;whiteSpace=wrap;html=1;fillColor=#f8cecc;strokeColor=#b85450;fontStyle=1;" vertex="1" parent="1">
          <mxGeometry x="800" y="-830" width="160" height="30" as="geometry" />
        </mxCell>
      </root>
    </mxGraphModel>
  </diagram>
  <diagram id="HMCFRp-6oSrEt8SFOTWf" name="badges">
    <mxGraphModel dx="1106" dy="868" grid="1" gridSize="10" guides="1" tooltips="1" connect="1" arrows="1" fold="1" page="1" pageScale="1" pageWidth="827" pageHeight="1169" math="0" shadow="0">
      <root>
        <mxCell id="3RSdGhZLzvzM3jCUpRib-0" />
        <mxCell id="3RSdGhZLzvzM3jCUpRib-1" parent="3RSdGhZLzvzM3jCUpRib-0" />
        <mxCell id="3RSdGhZLzvzM3jCUpRib-2" value="x86-64" style="rounded=1;whiteSpace=wrap;html=1;fillColor=#0066CC;strokeColor=none;fontColor=#FFFFFF;fontStyle=1" parent="3RSdGhZLzvzM3jCUpRib-1" vertex="1">
          <mxGeometry x="170" y="150" width="50" height="20" as="geometry" />
        </mxCell>
        <mxCell id="3RSdGhZLzvzM3jCUpRib-3" value="ARM" style="rounded=1;whiteSpace=wrap;html=1;fillColor=#0066CC;strokeColor=none;fontColor=#FFFFFF;fontStyle=1" parent="3RSdGhZLzvzM3jCUpRib-1" vertex="1">
          <mxGeometry x="240" y="150" width="50" height="20" as="geometry" />
        </mxCell>
      </root>
    </mxGraphModel>
  </diagram>
  <diagram id="dSMBR9a6UXELVA6DsV7H" name="Buidling Blocks &amp; Workflow">
    <mxGraphModel dx="1106" dy="868" grid="1" gridSize="10" guides="1" tooltips="1" connect="1" arrows="1" fold="1" page="1" pageScale="1" pageWidth="827" pageHeight="1169" math="0" shadow="0">
      <root>
        <mxCell id="MPk_wKv6yI4lPM2UqZ1F-0" />
        <mxCell id="MPk_wKv6yI4lPM2UqZ1F-1" parent="MPk_wKv6yI4lPM2UqZ1F-0" />
        <mxCell id="MPk_wKv6yI4lPM2UqZ1F-19" value="Platys" style="rounded=1;whiteSpace=wrap;html=1;labelBackgroundColor=none;strokeColor=#82b366;strokeWidth=1;fillColor=#d5e8d4;arcSize=20;absoluteArcSize=1;fontStyle=1;fontSize=14;verticalAlign=top;align=left;" parent="MPk_wKv6yI4lPM2UqZ1F-1" vertex="1">
          <mxGeometry x="203" y="251" width="500" height="70" as="geometry" />
        </mxCell>
        <mxCell id="MPk_wKv6yI4lPM2UqZ1F-17" value="" style="shape=document;whiteSpace=wrap;html=1;boundedLbl=1;size=0.325;" parent="MPk_wKv6yI4lPM2UqZ1F-1" vertex="1">
          <mxGeometry x="566" y="139" width="80" height="50" as="geometry" />
        </mxCell>
        <mxCell id="MPk_wKv6yI4lPM2UqZ1F-3" value="A Platform Stack" style="rounded=1;whiteSpace=wrap;html=1;labelBackgroundColor=none;strokeColor=#6c8ebf;strokeWidth=1;fillColor=#dae8fc;arcSize=20;absoluteArcSize=1;fontStyle=1;fontSize=14;verticalAlign=top;align=left;" parent="MPk_wKv6yI4lPM2UqZ1F-1" vertex="1">
          <mxGeometry x="203" y="120" width="500" height="99" as="geometry" />
        </mxCell>
        <mxCell id="MPk_wKv6yI4lPM2UqZ1F-16" value="" style="shape=document;whiteSpace=wrap;html=1;boundedLbl=1;size=0.325;" parent="MPk_wKv6yI4lPM2UqZ1F-1" vertex="1">
          <mxGeometry x="556" y="149" width="80" height="50" as="geometry" />
        </mxCell>
        <mxCell id="MPk_wKv6yI4lPM2UqZ1F-2" value="(1) init" style="rounded=1;whiteSpace=wrap;html=1;labelBackgroundColor=none;strokeWidth=1;arcSize=20;absoluteArcSize=1;fontSize=14;fontStyle=1" parent="MPk_wKv6yI4lPM2UqZ1F-1" vertex="1">
          <mxGeometry x="231" y="280" width="120" height="30" as="geometry" />
        </mxCell>
        <mxCell id="MPk_wKv6yI4lPM2UqZ1F-4" value="(3) gen" style="rounded=1;whiteSpace=wrap;html=1;labelBackgroundColor=none;strokeWidth=1;arcSize=20;absoluteArcSize=1;fontSize=14;fontStyle=1" parent="MPk_wKv6yI4lPM2UqZ1F-1" vertex="1">
          <mxGeometry x="488" y="280" width="120" height="30" as="geometry" />
        </mxCell>
        <mxCell id="MPk_wKv6yI4lPM2UqZ1F-5" value="&lt;b&gt;&lt;font style=&quot;font-size: 14px&quot;&gt;config.yml&lt;/font&gt;&lt;/b&gt;" style="shape=document;whiteSpace=wrap;html=1;boundedLbl=1;size=0.325;" parent="MPk_wKv6yI4lPM2UqZ1F-1" vertex="1">
          <mxGeometry x="251" y="370" width="80" height="43" as="geometry" />
        </mxCell>
        <mxCell id="MPk_wKv6yI4lPM2UqZ1F-6" value="" style="endArrow=classic;html=1;fontColor=#1A1A1A;exitX=0.5;exitY=1;exitDx=0;exitDy=0;entryX=0.5;entryY=0;entryDx=0;entryDy=0;" parent="MPk_wKv6yI4lPM2UqZ1F-1" source="MPk_wKv6yI4lPM2UqZ1F-2" target="MPk_wKv6yI4lPM2UqZ1F-5" edge="1">
          <mxGeometry width="50" height="50" relative="1" as="geometry">
            <mxPoint x="223" y="440" as="sourcePoint" />
            <mxPoint x="403" y="330" as="targetPoint" />
          </mxGeometry>
        </mxCell>
        <mxCell id="MPk_wKv6yI4lPM2UqZ1F-7" value="" style="endArrow=classic;html=1;fontColor=#1A1A1A;entryX=0;entryY=0.5;entryDx=0;entryDy=0;" parent="MPk_wKv6yI4lPM2UqZ1F-1" source="MPk_wKv6yI4lPM2UqZ1F-5" target="MPk_wKv6yI4lPM2UqZ1F-4" edge="1">
          <mxGeometry width="50" height="50" relative="1" as="geometry">
            <mxPoint x="533" y="330" as="sourcePoint" />
            <mxPoint x="413" y="340" as="targetPoint" />
          </mxGeometry>
        </mxCell>
        <mxCell id="MPk_wKv6yI4lPM2UqZ1F-9" value="&lt;b&gt;&lt;font style=&quot;font-size: 14px&quot;&gt;docker-compose.yml&lt;/font&gt;&lt;/b&gt;" style="shape=document;whiteSpace=wrap;html=1;boundedLbl=1;size=0.325;" parent="MPk_wKv6yI4lPM2UqZ1F-1" vertex="1">
          <mxGeometry x="413" y="370" width="120" height="53" as="geometry" />
        </mxCell>
        <mxCell id="MPk_wKv6yI4lPM2UqZ1F-10" value="" style="endArrow=classic;html=1;fontColor=#1A1A1A;entryX=0.5;entryY=0;entryDx=0;entryDy=0;exitX=0.5;exitY=1;exitDx=0;exitDy=0;" parent="MPk_wKv6yI4lPM2UqZ1F-1" source="MPk_wKv6yI4lPM2UqZ1F-4" target="MPk_wKv6yI4lPM2UqZ1F-9" edge="1">
          <mxGeometry width="50" height="50" relative="1" as="geometry">
            <mxPoint x="533" y="340" as="sourcePoint" />
            <mxPoint x="593" y="340" as="targetPoint" />
          </mxGeometry>
        </mxCell>
        <mxCell id="yEh39fcaKmCXRiqcLI0V-5" value="" style="edgeStyle=orthogonalEdgeStyle;rounded=0;orthogonalLoop=1;jettySize=auto;html=1;" edge="1" parent="MPk_wKv6yI4lPM2UqZ1F-1" source="MPk_wKv6yI4lPM2UqZ1F-11" target="MPk_wKv6yI4lPM2UqZ1F-5">
          <mxGeometry relative="1" as="geometry" />
        </mxCell>
        <mxCell id="MPk_wKv6yI4lPM2UqZ1F-11" value="(2) edit" style="rounded=1;whiteSpace=wrap;html=1;labelBackgroundColor=none;strokeColor=#000000;strokeWidth=1;fillColor=none;fontColor=#000000;arcSize=20;absoluteArcSize=1;fontSize=14;fontStyle=1;dashed=1;" parent="MPk_wKv6yI4lPM2UqZ1F-1" vertex="1">
          <mxGeometry x="123" y="376" width="86" height="30" as="geometry" />
        </mxCell>
        <mxCell id="MPk_wKv6yI4lPM2UqZ1F-12" value="" style="endArrow=classic;html=1;fontColor=#1A1A1A;entryX=0;entryY=0.5;entryDx=0;entryDy=0;dashed=1;" parent="MPk_wKv6yI4lPM2UqZ1F-1" target="MPk_wKv6yI4lPM2UqZ1F-5" edge="1">
          <mxGeometry width="50" height="50" relative="1" as="geometry">
            <mxPoint x="210" y="392" as="sourcePoint" />
            <mxPoint x="413" y="333" as="targetPoint" />
            <Array as="points">
              <mxPoint x="230" y="392" />
            </Array>
          </mxGeometry>
        </mxCell>
        <mxCell id="MPk_wKv6yI4lPM2UqZ1F-15" value="&lt;span style=&quot;font-size: 14px&quot;&gt;&lt;b&gt;static-config&lt;/b&gt;&lt;/span&gt;" style="shape=document;whiteSpace=wrap;html=1;boundedLbl=1;size=0.325;" parent="MPk_wKv6yI4lPM2UqZ1F-1" vertex="1">
          <mxGeometry x="546" y="159" width="80" height="50" as="geometry" />
        </mxCell>
        <mxCell id="MPk_wKv6yI4lPM2UqZ1F-18" value="" style="endArrow=classic;html=1;fontColor=#1A1A1A;" parent="MPk_wKv6yI4lPM2UqZ1F-1" target="MPk_wKv6yI4lPM2UqZ1F-2" edge="1">
          <mxGeometry width="50" height="50" relative="1" as="geometry">
            <mxPoint x="291" y="190" as="sourcePoint" />
            <mxPoint x="413" y="340" as="targetPoint" />
          </mxGeometry>
        </mxCell>
        <mxCell id="MPk_wKv6yI4lPM2UqZ1F-20" value="" style="endArrow=classic;html=1;fontColor=#1A1A1A;entryX=0.5;entryY=0;entryDx=0;entryDy=0;" parent="MPk_wKv6yI4lPM2UqZ1F-1" target="MPk_wKv6yI4lPM2UqZ1F-4" edge="1">
          <mxGeometry width="50" height="50" relative="1" as="geometry">
            <mxPoint x="452" y="189" as="sourcePoint" />
            <mxPoint x="663" y="380" as="targetPoint" />
          </mxGeometry>
        </mxCell>
        <mxCell id="MPk_wKv6yI4lPM2UqZ1F-21" value="" style="endArrow=classic;html=1;fontColor=#1A1A1A;entryX=0.5;entryY=0;entryDx=0;entryDy=0;exitX=0.163;exitY=0.98;exitDx=0;exitDy=0;exitPerimeter=0;" parent="MPk_wKv6yI4lPM2UqZ1F-1" source="MPk_wKv6yI4lPM2UqZ1F-15" target="MPk_wKv6yI4lPM2UqZ1F-4" edge="1">
          <mxGeometry width="50" height="50" relative="1" as="geometry">
            <mxPoint x="462" y="199" as="sourcePoint" />
            <mxPoint x="453" y="290" as="targetPoint" />
          </mxGeometry>
        </mxCell>
        <mxCell id="MPk_wKv6yI4lPM2UqZ1F-22" value="" style="shape=document;whiteSpace=wrap;html=1;boundedLbl=1;size=0.325;" parent="MPk_wKv6yI4lPM2UqZ1F-1" vertex="1">
          <mxGeometry x="573" y="357" width="80" height="50" as="geometry" />
        </mxCell>
        <mxCell id="MPk_wKv6yI4lPM2UqZ1F-23" value="" style="shape=document;whiteSpace=wrap;html=1;boundedLbl=1;size=0.325;" parent="MPk_wKv6yI4lPM2UqZ1F-1" vertex="1">
          <mxGeometry x="563" y="367" width="80" height="50" as="geometry" />
        </mxCell>
        <mxCell id="MPk_wKv6yI4lPM2UqZ1F-24" value="&lt;span style=&quot;font-size: 14px&quot;&gt;&lt;b&gt;static-config&lt;/b&gt;&lt;/span&gt;" style="shape=document;whiteSpace=wrap;html=1;boundedLbl=1;size=0.325;" parent="MPk_wKv6yI4lPM2UqZ1F-1" vertex="1">
          <mxGeometry x="553" y="377" width="80" height="50" as="geometry" />
        </mxCell>
        <mxCell id="MPk_wKv6yI4lPM2UqZ1F-25" value="" style="endArrow=classic;html=1;fontColor=#1A1A1A;entryX=0.5;entryY=0;entryDx=0;entryDy=0;exitX=0.5;exitY=1;exitDx=0;exitDy=0;" parent="MPk_wKv6yI4lPM2UqZ1F-1" source="MPk_wKv6yI4lPM2UqZ1F-4" target="MPk_wKv6yI4lPM2UqZ1F-24" edge="1">
          <mxGeometry width="50" height="50" relative="1" as="geometry">
            <mxPoint x="483" y="320" as="sourcePoint" />
            <mxPoint x="483" y="380" as="targetPoint" />
          </mxGeometry>
        </mxCell>
        <mxCell id="MPk_wKv6yI4lPM2UqZ1F-32" value="Your Platform (as containers on Docker)" style="rounded=1;whiteSpace=wrap;html=1;labelBackgroundColor=none;strokeColor=#23445d;strokeWidth=1;fillColor=#bac8d3;arcSize=20;absoluteArcSize=1;fontStyle=1;fontSize=14;verticalAlign=top;align=left;" parent="MPk_wKv6yI4lPM2UqZ1F-1" vertex="1">
          <mxGeometry x="393" y="566" width="297" height="70" as="geometry" />
        </mxCell>
        <mxCell id="MPk_wKv6yI4lPM2UqZ1F-37" value="" style="shape=image;verticalLabelPosition=bottom;labelBackgroundColor=#ffffff;verticalAlign=top;aspect=fixed;imageAspect=0;image=data:image/png,iVBORw0KGgoAAAANSUhEUgAAADkAAAAxCAYAAABgSwHoAAALeUlEQVRoBc2aCWxVVRPHB6i0gGVTKJGylcUNZNXIToUoq2IAE4msAmWxLBqWEAhLAg2UgilLrUApMbJESYhGCYLGiCBLgADKouwoi+xqlf1++c3H3Jxe3ns8WkAneb3LOWfO+c/MmZkzt0U8z/PkAdKJEyfkzJkz0rhxYylSpMgDnCk865jwTffW8s8//8jVq1fl0qVL8umnn8quXbvk+vXr8sMPP8jx48fl5ZdflqSkJOndu7fUrVtX4uPj722CQvQuUlBN/vHHH7J+/Xo5f/68cL9s2TLZv3+/YBgADkcxMTHy6KOPysCBA6V+/frSvn17eeyxx8J1vy/v7woS7ezZs0e19Msvv8jSpUvl7NmzcuXKFTl06FChF1GtWjWpWLGiDB06VJ599ll5/vnnC80zyEBBIn3bL4cPH1ZQq1evlry8PDl16pSa3M2bN4NjH8hz27ZtpXr16jJgwACpU6eOlC9fvtDz+JpEWzt27JBjx47J2rVrZdOmTYVmXhgGRYsWldKlS8uQIUPkySeflFdffVXKlStXMJbsSSg9PR0v6zVu3NibMWOGl5ub66WmpnqNGjXS97T9m7/ExESvXr16Xk5Ojrdx48bbq47ugqNQmjt3roLo0aOHXmNjY71OnTp5aWlpXnZ2ttenTx8vKSnpXwXqCjk5Odnr1auXt2nTJu/06dMGI+TVB5mZmakAsrKyvJiYGK9+/fpeQkKCvitdurSXkpLiZWRkeLNmzVLA8fHx/xnAcXFx3ttvv+3NnDnTy8vLuwPoHXGS2Hbjxg158cUX5ejRo7o/W7duLefOnZPs7GypXbu28JyVlSUHDx6UrVu3yrp16zQmFmzDFH5U06ZN5ffffxfCE2EtNjZWcGA8Q3eAtCkNLM/EtQoVKmjTb7/9poPfeustdffNmzeXN954Q/bu3atgcWAI6UEQDoiFlylTRl5//XUNPaVKlZKdO3fKTz/9pE5z6tSp8ueff8qWLVukbNmyuoywIN1FXrt2TYM870qUKCEvvPCCfPDBByqxzz77TN5//3156aWXpF27dhrvCEO5ubkq3YKGHoDgYZOTk6VZs2YCGEIdlvTxxx8rwM8//1xatGgh06ZN0+VWrlxZfv75Z00j3Ww1KpDFihXTCeHEYNMUJrFx40YBFMx3796t7U2aNJEpU6Zov82bN6vJk79GIrIeAGFqTz31lCQkJGgmxdaYMGGCauqRRx6R/v37qwABDZGUGF2+fFk++ugj3Vqpqan2Ory5+j1ENFHAfIOEhk1Tb775pvz666+yZs0aeeKJJ2TQoEFStWpV3RvTp0/XxAKtIwjiH1kOwMhp0RiZDxkVmmLvoyWIsaSL8K5Ro4YKgfcIOi4uTm7duuUv66+//pLBgwergEaMGOG/9zVpGY/fErhBikYuY3v3999/a+rH/iUBh1j4l19+KUuWLBGcQ8OGDRU8EmfvIqQFCxbIvn37pEuXLgqevPfbb781troHsSSINZpQSTd5z7oQGon/4sWLNW/GGtw1+iBdG/ZnuH2D1NxBNqk7xjwZ/cycyUMBj6niqMaMGaN8MGf2cPfu3f2+JPnsKfgUL17cX4KB4gX3mHGHDh0Eh9eyZUtNAYcPH67ePScnxx/n3vggI2nS1aJNxtUdgzm7z7TzzoSDp8OZoMXXXntNHn/8calZs6YcOHBA10NfhIfg8I4QxzGAG1C03K1bN+nXr5+284xwMPPZs2erQLUh8McH6Wol0EcfbbE8hNJkUBBBHvDnh8OYNGmSavfkyZP5upGMs1dXrFihwkBTCOLdd9/VfggRATD+mWee0X3Kvhw/fnw+PsEHH2SwwX3G/AwY702yrubMTN13Lg/uaYMPRzQOARDnSc6Vw4a9I4mJlfNZA6b+448/6r6jb8mSJWXlypUasjB1hMK+vxtFBRLv5y6e51CENiNZhLXZ/oUHWiG7gjjW0WfWrFnqpS9evKhaJDZDrMH2O84FPsZTO4T5ExVImIcKIS7PaCZz+9v9e++9p6EG63juuedUa4sWLfL3pfWzqwmb/YhQ2etolHBEvDYrs/5cfZA22G10713pGyCuNg7tImV7dse69zbW3nFu5cdexeuycNe7BvsDgmSBtI45O3bsKMOGDdMyTJUqVUKWXnyQQWa2CK4s3m03cwWQvefe3rtjg/eRhIAJMhcx0IiDsjk9KhV9+/YVtG+OjoMDSfmRI0fCWpsP0piGuqJFd3GhTMJCiIEOxSfSO9Iz23t4U/YpTopS5sSJE3UovOnzzTff6OmHjArgaDISRQUSBi4w19Mac5OsKwxri3QlU6FUya9Xr153dAW8CQ6TXrhwoYwePVpeeeUVOXnylFSvXk1TPVf7QSZRgcRc3D3pAjaGFkLsOdorNRzzrnjTCxcu6LEN7VGvJXcFHBVCBGimSzgpUSIuX2gLN2dUIIODQ2mSPmjTpB4cE+6Z3DU9PV1IrilW4TXnzJkjliiQIYXa64Al97VMicoePGycO19UIJnEDSEmTZeRvYtkrqHaOBoZtWnTRlM517u6ABGgCRgH1bNnT/XEnG859sEL8w8KOiqQLM4111CLpT2UGRsArsHJ3TbuAYR2XJCAMSIDAkSfPn10H9qnBvp88cUX6pDoG1xfVCDR4t0WaAspzNWERFLAaYNQQcqXmZnps0WT1HM4XvFpAoHgjPjmEo58kEH07oBgCDHTpI+NQxBooiDCIKAT3ClzcFIZO3asPz0hwsD/H9AiGTdurB6zMFP6c6iORD5IMwvXLN2B1s472xfcGygbZ6DdsZHuExMT5ZNPPtHk2/p9/fXXmsdSSeCwzUEc74op79mzW7sRLxEqocPdt8bDvfogmQypUPUKEpqzOEibSdbtB1hXEG5bpHuqfx9++KEGddbAp79Vq1bJhg0bdBipngmOqwmTUMMe5ahFH7wqoYi9GVyfD5KjC+c3JoSZG1wBYBpjZleTBoAxriDsvXu1xbrv4Dtq1Ch9lZaWpiBd/u4Y+pL6AQzzpkKARilDQrSTv7pr5b0Pkgc2O0GYotRXX30l8+fP18GYg7sPg5KiE1qEeXACZXD7z93amYcMxwXpzksb2Q6FLpfQ3unTp1X7WAZAXcoH0hpq1aol/NAsUkJymIZRqD2AFlmQK3nr714jtRMSWCBJOYk4Zsg7kgPI9uH333+v1X0+1WO+JBRU+42C2yYkSOtcr149dQqkV9RQIMw41EIjadD4hbpiflgP1XECuvt5jmwHwRlvqwxQ7uCDLcUwFGCa55qRkSHbt2/Pl7xEBGmLItunSk6FHBNm8iBhwjZZsM2eQwkHoVHHwScAhoMv5RGOTwiWfUruamSOh3ACP36WPFD3od6KybrWFhVIm6Bz5856SP3uu+/k6aefVpduUjaA9mxj3Gu4tnnz5ikgTBSr4UMSHhYKtwUARxthxYBTD4IXgqKsYnRPIBmEhMgx+SpNNZzPBIUl49GpUyfdd5iwUSjt04bALBMDJCUQYqpdCYdG9wzSBrIXyDjQKp/x+IrEdw/ItGp9o72aybP3QhEnFDsoALJBgwZSqVIl6dq1qxabcUyhqMAgjRlelQo2ZQhyTEr8/N9BJLKFBvsQIgDoxltMktSOghXbhW8lKSkpMm7cOC2AuXsvyM+eCw3SGFERJ9xw8KVcjzMATNDc2EMslv2HkyBdM8L1ow2AGWF+/FsN9VUKWFCPHj2sOapr6AJqVENDdyIEcHqg/I+LJ02DAMsPk+OoRMJhH0mNE4deiHBCWFm+fLmWRCh1GEDrey/X+6bJ4KT8Lw4/jk2c/Mk1+W6BpiZPnqz71v7Zif3dqlUrdRxoiWfzmEG+BXn2/4+nIIPvZQyhgSoc3xi3bdum/3uH4xg5cqS+QxgPih4aSAPAZzzOf3yr5OD7MOihg3wYoIJz3HfHE5zgv/D8P2VCp8NZwXDmAAAAAElFTkSuQmCC;dashed=1;fillColor=none;fontSize=14;fontColor=#1A1A1A;align=left;" parent="MPk_wKv6yI4lPM2UqZ1F-1" vertex="1">
          <mxGeometry x="413" y="596" width="34.9" height="30" as="geometry" />
        </mxCell>
        <mxCell id="MPk_wKv6yI4lPM2UqZ1F-38" value="" style="shape=image;verticalLabelPosition=bottom;labelBackgroundColor=#ffffff;verticalAlign=top;aspect=fixed;imageAspect=0;image=data:image/png,iVBORw0KGgoAAAANSUhEUgAAADkAAAAxCAYAAABgSwHoAAALeUlEQVRoBc2aCWxVVRPHB6i0gGVTKJGylcUNZNXIToUoq2IAE4msAmWxLBqWEAhLAg2UgilLrUApMbJESYhGCYLGiCBLgADKouwoi+xqlf1++c3H3Jxe3ns8WkAneb3LOWfO+c/MmZkzt0U8z/PkAdKJEyfkzJkz0rhxYylSpMgDnCk865jwTffW8s8//8jVq1fl0qVL8umnn8quXbvk+vXr8sMPP8jx48fl5ZdflqSkJOndu7fUrVtX4uPj722CQvQuUlBN/vHHH7J+/Xo5f/68cL9s2TLZv3+/YBgADkcxMTHy6KOPysCBA6V+/frSvn17eeyxx8J1vy/v7woS7ezZs0e19Msvv8jSpUvl7NmzcuXKFTl06FChF1GtWjWpWLGiDB06VJ599ll5/vnnC80zyEBBIn3bL4cPH1ZQq1evlry8PDl16pSa3M2bN4NjH8hz27ZtpXr16jJgwACpU6eOlC9fvtDz+JpEWzt27JBjx47J2rVrZdOmTYVmXhgGRYsWldKlS8uQIUPkySeflFdffVXKlStXMJbsSSg9PR0v6zVu3NibMWOGl5ub66WmpnqNGjXS97T9m7/ExESvXr16Xk5Ojrdx48bbq47ugqNQmjt3roLo0aOHXmNjY71OnTp5aWlpXnZ2ttenTx8vKSnpXwXqCjk5Odnr1auXt2nTJu/06dMGI+TVB5mZmakAsrKyvJiYGK9+/fpeQkKCvitdurSXkpLiZWRkeLNmzVLA8fHx/xnAcXFx3ttvv+3NnDnTy8vLuwPoHXGS2Hbjxg158cUX5ejRo7o/W7duLefOnZPs7GypXbu28JyVlSUHDx6UrVu3yrp16zQmFmzDFH5U06ZN5ffffxfCE2EtNjZWcGA8Q3eAtCkNLM/EtQoVKmjTb7/9poPfeustdffNmzeXN954Q/bu3atgcWAI6UEQDoiFlylTRl5//XUNPaVKlZKdO3fKTz/9pE5z6tSp8ueff8qWLVukbNmyuoywIN1FXrt2TYM870qUKCEvvPCCfPDBByqxzz77TN5//3156aWXpF27dhrvCEO5ubkq3YKGHoDgYZOTk6VZs2YCGEIdlvTxxx8rwM8//1xatGgh06ZN0+VWrlxZfv75Z00j3Ww1KpDFihXTCeHEYNMUJrFx40YBFMx3796t7U2aNJEpU6Zov82bN6vJk79GIrIeAGFqTz31lCQkJGgmxdaYMGGCauqRRx6R/v37qwABDZGUGF2+fFk++ugj3Vqpqan2Ory5+j1ENFHAfIOEhk1Tb775pvz666+yZs0aeeKJJ2TQoEFStWpV3RvTp0/XxAKtIwjiH1kOwMhp0RiZDxkVmmLvoyWIsaSL8K5Ro4YKgfcIOi4uTm7duuUv66+//pLBgwergEaMGOG/9zVpGY/fErhBikYuY3v3999/a+rH/iUBh1j4l19+KUuWLBGcQ8OGDRU8EmfvIqQFCxbIvn37pEuXLgqevPfbb781troHsSSINZpQSTd5z7oQGon/4sWLNW/GGtw1+iBdG/ZnuH2D1NxBNqk7xjwZ/cycyUMBj6niqMaMGaN8MGf2cPfu3f2+JPnsKfgUL17cX4KB4gX3mHGHDh0Eh9eyZUtNAYcPH67ePScnxx/n3vggI2nS1aJNxtUdgzm7z7TzzoSDp8OZoMXXXntNHn/8calZs6YcOHBA10NfhIfg8I4QxzGAG1C03K1bN+nXr5+284xwMPPZs2erQLUh8McH6Wol0EcfbbE8hNJkUBBBHvDnh8OYNGmSavfkyZP5upGMs1dXrFihwkBTCOLdd9/VfggRATD+mWee0X3Kvhw/fnw+PsEHH2SwwX3G/AwY702yrubMTN13Lg/uaYMPRzQOARDnSc6Vw4a9I4mJlfNZA6b+448/6r6jb8mSJWXlypUasjB1hMK+vxtFBRLv5y6e51CENiNZhLXZ/oUHWiG7gjjW0WfWrFnqpS9evKhaJDZDrMH2O84FPsZTO4T5ExVImIcKIS7PaCZz+9v9e++9p6EG63juuedUa4sWLfL3pfWzqwmb/YhQ2etolHBEvDYrs/5cfZA22G10713pGyCuNg7tImV7dse69zbW3nFu5cdexeuycNe7BvsDgmSBtI45O3bsKMOGDdMyTJUqVUKWXnyQQWa2CK4s3m03cwWQvefe3rtjg/eRhIAJMhcx0IiDsjk9KhV9+/YVtG+OjoMDSfmRI0fCWpsP0piGuqJFd3GhTMJCiIEOxSfSO9Iz23t4U/YpTopS5sSJE3UovOnzzTff6OmHjArgaDISRQUSBi4w19Mac5OsKwxri3QlU6FUya9Xr153dAW8CQ6TXrhwoYwePVpeeeUVOXnylFSvXk1TPVf7QSZRgcRc3D3pAjaGFkLsOdorNRzzrnjTCxcu6LEN7VGvJXcFHBVCBGimSzgpUSIuX2gLN2dUIIODQ2mSPmjTpB4cE+6Z3DU9PV1IrilW4TXnzJkjliiQIYXa64Al97VMicoePGycO19UIJnEDSEmTZeRvYtkrqHaOBoZtWnTRlM517u6ABGgCRgH1bNnT/XEnG859sEL8w8KOiqQLM4111CLpT2UGRsArsHJ3TbuAYR2XJCAMSIDAkSfPn10H9qnBvp88cUX6pDoG1xfVCDR4t0WaAspzNWERFLAaYNQQcqXmZnps0WT1HM4XvFpAoHgjPjmEo58kEH07oBgCDHTpI+NQxBooiDCIKAT3ClzcFIZO3asPz0hwsD/H9AiGTdurB6zMFP6c6iORD5IMwvXLN2B1s472xfcGygbZ6DdsZHuExMT5ZNPPtHk2/p9/fXXmsdSSeCwzUEc74op79mzW7sRLxEqocPdt8bDvfogmQypUPUKEpqzOEibSdbtB1hXEG5bpHuqfx9++KEGddbAp79Vq1bJhg0bdBipngmOqwmTUMMe5ahFH7wqoYi9GVyfD5KjC+c3JoSZG1wBYBpjZleTBoAxriDsvXu1xbrv4Dtq1Ch9lZaWpiBd/u4Y+pL6AQzzpkKARilDQrSTv7pr5b0Pkgc2O0GYotRXX30l8+fP18GYg7sPg5KiE1qEeXACZXD7z93amYcMxwXpzksb2Q6FLpfQ3unTp1X7WAZAXcoH0hpq1aol/NAsUkJymIZRqD2AFlmQK3nr714jtRMSWCBJOYk4Zsg7kgPI9uH333+v1X0+1WO+JBRU+42C2yYkSOtcr149dQqkV9RQIMw41EIjadD4hbpiflgP1XECuvt5jmwHwRlvqwxQ7uCDLcUwFGCa55qRkSHbt2/Pl7xEBGmLItunSk6FHBNm8iBhwjZZsM2eQwkHoVHHwScAhoMv5RGOTwiWfUruamSOh3ACP36WPFD3od6KybrWFhVIm6Bz5856SP3uu+/k6aefVpduUjaA9mxj3Gu4tnnz5ikgTBSr4UMSHhYKtwUARxthxYBTD4IXgqKsYnRPIBmEhMgx+SpNNZzPBIUl49GpUyfdd5iwUSjt04bALBMDJCUQYqpdCYdG9wzSBrIXyDjQKp/x+IrEdw/ItGp9o72aybP3QhEnFDsoALJBgwZSqVIl6dq1qxabcUyhqMAgjRlelQo2ZQhyTEr8/N9BJLKFBvsQIgDoxltMktSOghXbhW8lKSkpMm7cOC2AuXsvyM+eCw3SGFERJ9xw8KVcjzMATNDc2EMslv2HkyBdM8L1ow2AGWF+/FsN9VUKWFCPHj2sOapr6AJqVENDdyIEcHqg/I+LJ02DAMsPk+OoRMJhH0mNE4deiHBCWFm+fLmWRCh1GEDrey/X+6bJ4KT8Lw4/jk2c/Mk1+W6BpiZPnqz71v7Zif3dqlUrdRxoiWfzmEG+BXn2/4+nIIPvZQyhgSoc3xi3bdum/3uH4xg5cqS+QxgPih4aSAPAZzzOf3yr5OD7MOihg3wYoIJz3HfHE5zgv/D8P2VCp8NZwXDmAAAAAElFTkSuQmCC;dashed=1;fillColor=none;fontSize=14;fontColor=#1A1A1A;align=left;" parent="MPk_wKv6yI4lPM2UqZ1F-1" vertex="1">
          <mxGeometry x="608.1" y="596" width="34.9" height="30" as="geometry" />
        </mxCell>
        <mxCell id="MPk_wKv6yI4lPM2UqZ1F-39" value="" style="shape=image;verticalLabelPosition=bottom;labelBackgroundColor=#ffffff;verticalAlign=top;aspect=fixed;imageAspect=0;image=data:image/png,iVBORw0KGgoAAAANSUhEUgAAADkAAAAxCAYAAABgSwHoAAALeUlEQVRoBc2aCWxVVRPHB6i0gGVTKJGylcUNZNXIToUoq2IAE4msAmWxLBqWEAhLAg2UgilLrUApMbJESYhGCYLGiCBLgADKouwoi+xqlf1++c3H3Jxe3ns8WkAneb3LOWfO+c/MmZkzt0U8z/PkAdKJEyfkzJkz0rhxYylSpMgDnCk865jwTffW8s8//8jVq1fl0qVL8umnn8quXbvk+vXr8sMPP8jx48fl5ZdflqSkJOndu7fUrVtX4uPj722CQvQuUlBN/vHHH7J+/Xo5f/68cL9s2TLZv3+/YBgADkcxMTHy6KOPysCBA6V+/frSvn17eeyxx8J1vy/v7woS7ezZs0e19Msvv8jSpUvl7NmzcuXKFTl06FChF1GtWjWpWLGiDB06VJ599ll5/vnnC80zyEBBIn3bL4cPH1ZQq1evlry8PDl16pSa3M2bN4NjH8hz27ZtpXr16jJgwACpU6eOlC9fvtDz+JpEWzt27JBjx47J2rVrZdOmTYVmXhgGRYsWldKlS8uQIUPkySeflFdffVXKlStXMJbsSSg9PR0v6zVu3NibMWOGl5ub66WmpnqNGjXS97T9m7/ExESvXr16Xk5Ojrdx48bbq47ugqNQmjt3roLo0aOHXmNjY71OnTp5aWlpXnZ2ttenTx8vKSnpXwXqCjk5Odnr1auXt2nTJu/06dMGI+TVB5mZmakAsrKyvJiYGK9+/fpeQkKCvitdurSXkpLiZWRkeLNmzVLA8fHx/xnAcXFx3ttvv+3NnDnTy8vLuwPoHXGS2Hbjxg158cUX5ejRo7o/W7duLefOnZPs7GypXbu28JyVlSUHDx6UrVu3yrp16zQmFmzDFH5U06ZN5ffffxfCE2EtNjZWcGA8Q3eAtCkNLM/EtQoVKmjTb7/9poPfeustdffNmzeXN954Q/bu3atgcWAI6UEQDoiFlylTRl5//XUNPaVKlZKdO3fKTz/9pE5z6tSp8ueff8qWLVukbNmyuoywIN1FXrt2TYM870qUKCEvvPCCfPDBByqxzz77TN5//3156aWXpF27dhrvCEO5ubkq3YKGHoDgYZOTk6VZs2YCGEIdlvTxxx8rwM8//1xatGgh06ZN0+VWrlxZfv75Z00j3Ww1KpDFihXTCeHEYNMUJrFx40YBFMx3796t7U2aNJEpU6Zov82bN6vJk79GIrIeAGFqTz31lCQkJGgmxdaYMGGCauqRRx6R/v37qwABDZGUGF2+fFk++ugj3Vqpqan2Ory5+j1ENFHAfIOEhk1Tb775pvz666+yZs0aeeKJJ2TQoEFStWpV3RvTp0/XxAKtIwjiH1kOwMhp0RiZDxkVmmLvoyWIsaSL8K5Ro4YKgfcIOi4uTm7duuUv66+//pLBgwergEaMGOG/9zVpGY/fErhBikYuY3v3999/a+rH/iUBh1j4l19+KUuWLBGcQ8OGDRU8EmfvIqQFCxbIvn37pEuXLgqevPfbb781troHsSSINZpQSTd5z7oQGon/4sWLNW/GGtw1+iBdG/ZnuH2D1NxBNqk7xjwZ/cycyUMBj6niqMaMGaN8MGf2cPfu3f2+JPnsKfgUL17cX4KB4gX3mHGHDh0Eh9eyZUtNAYcPH67ePScnxx/n3vggI2nS1aJNxtUdgzm7z7TzzoSDp8OZoMXXXntNHn/8calZs6YcOHBA10NfhIfg8I4QxzGAG1C03K1bN+nXr5+284xwMPPZs2erQLUh8McH6Wol0EcfbbE8hNJkUBBBHvDnh8OYNGmSavfkyZP5upGMs1dXrFihwkBTCOLdd9/VfggRATD+mWee0X3Kvhw/fnw+PsEHH2SwwX3G/AwY702yrubMTN13Lg/uaYMPRzQOARDnSc6Vw4a9I4mJlfNZA6b+448/6r6jb8mSJWXlypUasjB1hMK+vxtFBRLv5y6e51CENiNZhLXZ/oUHWiG7gjjW0WfWrFnqpS9evKhaJDZDrMH2O84FPsZTO4T5ExVImIcKIS7PaCZz+9v9e++9p6EG63juuedUa4sWLfL3pfWzqwmb/YhQ2etolHBEvDYrs/5cfZA22G10713pGyCuNg7tImV7dse69zbW3nFu5cdexeuycNe7BvsDgmSBtI45O3bsKMOGDdMyTJUqVUKWXnyQQWa2CK4s3m03cwWQvefe3rtjg/eRhIAJMhcx0IiDsjk9KhV9+/YVtG+OjoMDSfmRI0fCWpsP0piGuqJFd3GhTMJCiIEOxSfSO9Iz23t4U/YpTopS5sSJE3UovOnzzTff6OmHjArgaDISRQUSBi4w19Mac5OsKwxri3QlU6FUya9Xr153dAW8CQ6TXrhwoYwePVpeeeUVOXnylFSvXk1TPVf7QSZRgcRc3D3pAjaGFkLsOdorNRzzrnjTCxcu6LEN7VGvJXcFHBVCBGimSzgpUSIuX2gLN2dUIIODQ2mSPmjTpB4cE+6Z3DU9PV1IrilW4TXnzJkjliiQIYXa64Al97VMicoePGycO19UIJnEDSEmTZeRvYtkrqHaOBoZtWnTRlM517u6ABGgCRgH1bNnT/XEnG859sEL8w8KOiqQLM4111CLpT2UGRsArsHJ3TbuAYR2XJCAMSIDAkSfPn10H9qnBvp88cUX6pDoG1xfVCDR4t0WaAspzNWERFLAaYNQQcqXmZnps0WT1HM4XvFpAoHgjPjmEo58kEH07oBgCDHTpI+NQxBooiDCIKAT3ClzcFIZO3asPz0hwsD/H9AiGTdurB6zMFP6c6iORD5IMwvXLN2B1s472xfcGygbZ6DdsZHuExMT5ZNPPtHk2/p9/fXXmsdSSeCwzUEc74op79mzW7sRLxEqocPdt8bDvfogmQypUPUKEpqzOEibSdbtB1hXEG5bpHuqfx9++KEGddbAp79Vq1bJhg0bdBipngmOqwmTUMMe5ahFH7wqoYi9GVyfD5KjC+c3JoSZG1wBYBpjZleTBoAxriDsvXu1xbrv4Dtq1Ch9lZaWpiBd/u4Y+pL6AQzzpkKARilDQrSTv7pr5b0Pkgc2O0GYotRXX30l8+fP18GYg7sPg5KiE1qEeXACZXD7z93amYcMxwXpzksb2Q6FLpfQ3unTp1X7WAZAXcoH0hpq1aol/NAsUkJymIZRqD2AFlmQK3nr714jtRMSWCBJOYk4Zsg7kgPI9uH333+v1X0+1WO+JBRU+42C2yYkSOtcr149dQqkV9RQIMw41EIjadD4hbpiflgP1XECuvt5jmwHwRlvqwxQ7uCDLcUwFGCa55qRkSHbt2/Pl7xEBGmLItunSk6FHBNm8iBhwjZZsM2eQwkHoVHHwScAhoMv5RGOTwiWfUruamSOh3ACP36WPFD3od6KybrWFhVIm6Bz5856SP3uu+/k6aefVpduUjaA9mxj3Gu4tnnz5ikgTBSr4UMSHhYKtwUARxthxYBTD4IXgqKsYnRPIBmEhMgx+SpNNZzPBIUl49GpUyfdd5iwUSjt04bALBMDJCUQYqpdCYdG9wzSBrIXyDjQKp/x+IrEdw/ItGp9o72aybP3QhEnFDsoALJBgwZSqVIl6dq1qxabcUyhqMAgjRlelQo2ZQhyTEr8/N9BJLKFBvsQIgDoxltMktSOghXbhW8lKSkpMm7cOC2AuXsvyM+eCw3SGFERJ9xw8KVcjzMATNDc2EMslv2HkyBdM8L1ow2AGWF+/FsN9VUKWFCPHj2sOapr6AJqVENDdyIEcHqg/I+LJ02DAMsPk+OoRMJhH0mNE4deiHBCWFm+fLmWRCh1GEDrey/X+6bJ4KT8Lw4/jk2c/Mk1+W6BpiZPnqz71v7Zif3dqlUrdRxoiWfzmEG+BXn2/4+nIIPvZQyhgSoc3xi3bdum/3uH4xg5cqS+QxgPih4aSAPAZzzOf3yr5OD7MOihg3wYoIJz3HfHE5zgv/D8P2VCp8NZwXDmAAAAAElFTkSuQmCC;dashed=1;fillColor=none;fontSize=14;fontColor=#1A1A1A;align=left;" parent="MPk_wKv6yI4lPM2UqZ1F-1" vertex="1">
          <mxGeometry x="464" y="596" width="34.9" height="30" as="geometry" />
        </mxCell>
        <mxCell id="MPk_wKv6yI4lPM2UqZ1F-40" value="&lt;b&gt;&lt;font style=&quot;font-size: 17px&quot;&gt;...&lt;/font&gt;&lt;/b&gt;" style="text;html=1;resizable=0;autosize=1;align=center;verticalAlign=middle;points=[];fillColor=none;strokeColor=none;rounded=0;dashed=1;fontSize=14;fontColor=#1A1A1A;" parent="MPk_wKv6yI4lPM2UqZ1F-1" vertex="1">
          <mxGeometry x="562" y="596" width="30" height="20" as="geometry" />
        </mxCell>
        <mxCell id="MPk_wKv6yI4lPM2UqZ1F-41" value="Docker Compose" style="rounded=1;whiteSpace=wrap;html=1;labelBackgroundColor=none;strokeColor=#23445d;strokeWidth=1;fillColor=#bac8d3;arcSize=20;absoluteArcSize=1;fontStyle=1;fontSize=14;verticalAlign=top;align=left;" parent="MPk_wKv6yI4lPM2UqZ1F-1" vertex="1">
          <mxGeometry x="393" y="475" width="297" height="70" as="geometry" />
        </mxCell>
        <mxCell id="MPk_wKv6yI4lPM2UqZ1F-42" value="(4) up" style="rounded=1;whiteSpace=wrap;html=1;labelBackgroundColor=none;strokeWidth=1;arcSize=20;absoluteArcSize=1;fontSize=14;fontStyle=1" parent="MPk_wKv6yI4lPM2UqZ1F-1" vertex="1">
          <mxGeometry x="481.1" y="500" width="120" height="30" as="geometry" />
        </mxCell>
        <mxCell id="MPk_wKv6yI4lPM2UqZ1F-43" value="" style="endArrow=classic;html=1;fontColor=#1A1A1A;entryX=0.5;entryY=0;entryDx=0;entryDy=0;exitX=0.533;exitY=0.783;exitDx=0;exitDy=0;exitPerimeter=0;" parent="MPk_wKv6yI4lPM2UqZ1F-1" source="MPk_wKv6yI4lPM2UqZ1F-9" target="MPk_wKv6yI4lPM2UqZ1F-42" edge="1">
          <mxGeometry width="50" height="50" relative="1" as="geometry">
            <mxPoint x="483" y="320" as="sourcePoint" />
            <mxPoint x="483" y="380" as="targetPoint" />
          </mxGeometry>
        </mxCell>
        <mxCell id="MPk_wKv6yI4lPM2UqZ1F-44" value="" style="endArrow=classic;html=1;fontColor=#1A1A1A;exitX=0.513;exitY=0.82;exitDx=0;exitDy=0;exitPerimeter=0;" parent="MPk_wKv6yI4lPM2UqZ1F-1" source="MPk_wKv6yI4lPM2UqZ1F-24" edge="1">
          <mxGeometry width="50" height="50" relative="1" as="geometry">
            <mxPoint x="486.96000000000004" y="426.98" as="sourcePoint" />
            <mxPoint x="548" y="479" as="targetPoint" />
          </mxGeometry>
        </mxCell>
        <mxCell id="MPk_wKv6yI4lPM2UqZ1F-45" value="" style="shape=image;verticalLabelPosition=bottom;labelBackgroundColor=#ffffff;verticalAlign=top;aspect=fixed;imageAspect=0;image=data:image/png,iVBORw0KGgoAAAANSUhEUgAAADkAAAAxCAYAAABgSwHoAAALeUlEQVRoBc2aCWxVVRPHB6i0gGVTKJGylcUNZNXIToUoq2IAE4msAmWxLBqWEAhLAg2UgilLrUApMbJESYhGCYLGiCBLgADKouwoi+xqlf1++c3H3Jxe3ns8WkAneb3LOWfO+c/MmZkzt0U8z/PkAdKJEyfkzJkz0rhxYylSpMgDnCk865jwTffW8s8//8jVq1fl0qVL8umnn8quXbvk+vXr8sMPP8jx48fl5ZdflqSkJOndu7fUrVtX4uPj722CQvQuUlBN/vHHH7J+/Xo5f/68cL9s2TLZv3+/YBgADkcxMTHy6KOPysCBA6V+/frSvn17eeyxx8J1vy/v7woS7ezZs0e19Msvv8jSpUvl7NmzcuXKFTl06FChF1GtWjWpWLGiDB06VJ599ll5/vnnC80zyEBBIn3bL4cPH1ZQq1evlry8PDl16pSa3M2bN4NjH8hz27ZtpXr16jJgwACpU6eOlC9fvtDz+JpEWzt27JBjx47J2rVrZdOmTYVmXhgGRYsWldKlS8uQIUPkySeflFdffVXKlStXMJbsSSg9PR0v6zVu3NibMWOGl5ub66WmpnqNGjXS97T9m7/ExESvXr16Xk5Ojrdx48bbq47ugqNQmjt3roLo0aOHXmNjY71OnTp5aWlpXnZ2ttenTx8vKSnpXwXqCjk5Odnr1auXt2nTJu/06dMGI+TVB5mZmakAsrKyvJiYGK9+/fpeQkKCvitdurSXkpLiZWRkeLNmzVLA8fHx/xnAcXFx3ttvv+3NnDnTy8vLuwPoHXGS2Hbjxg158cUX5ejRo7o/W7duLefOnZPs7GypXbu28JyVlSUHDx6UrVu3yrp16zQmFmzDFH5U06ZN5ffffxfCE2EtNjZWcGA8Q3eAtCkNLM/EtQoVKmjTb7/9poPfeustdffNmzeXN954Q/bu3atgcWAI6UEQDoiFlylTRl5//XUNPaVKlZKdO3fKTz/9pE5z6tSp8ueff8qWLVukbNmyuoywIN1FXrt2TYM870qUKCEvvPCCfPDBByqxzz77TN5//3156aWXpF27dhrvCEO5ubkq3YKGHoDgYZOTk6VZs2YCGEIdlvTxxx8rwM8//1xatGgh06ZN0+VWrlxZfv75Z00j3Ww1KpDFihXTCeHEYNMUJrFx40YBFMx3796t7U2aNJEpU6Zov82bN6vJk79GIrIeAGFqTz31lCQkJGgmxdaYMGGCauqRRx6R/v37qwABDZGUGF2+fFk++ugj3Vqpqan2Ory5+j1ENFHAfIOEhk1Tb775pvz666+yZs0aeeKJJ2TQoEFStWpV3RvTp0/XxAKtIwjiH1kOwMhp0RiZDxkVmmLvoyWIsaSL8K5Ro4YKgfcIOi4uTm7duuUv66+//pLBgwergEaMGOG/9zVpGY/fErhBikYuY3v3999/a+rH/iUBh1j4l19+KUuWLBGcQ8OGDRU8EmfvIqQFCxbIvn37pEuXLgqevPfbb781troHsSSINZpQSTd5z7oQGon/4sWLNW/GGtw1+iBdG/ZnuH2D1NxBNqk7xjwZ/cycyUMBj6niqMaMGaN8MGf2cPfu3f2+JPnsKfgUL17cX4KB4gX3mHGHDh0Eh9eyZUtNAYcPH67ePScnxx/n3vggI2nS1aJNxtUdgzm7z7TzzoSDp8OZoMXXXntNHn/8calZs6YcOHBA10NfhIfg8I4QxzGAG1C03K1bN+nXr5+284xwMPPZs2erQLUh8McH6Wol0EcfbbE8hNJkUBBBHvDnh8OYNGmSavfkyZP5upGMs1dXrFihwkBTCOLdd9/VfggRATD+mWee0X3Kvhw/fnw+PsEHH2SwwX3G/AwY702yrubMTN13Lg/uaYMPRzQOARDnSc6Vw4a9I4mJlfNZA6b+448/6r6jb8mSJWXlypUasjB1hMK+vxtFBRLv5y6e51CENiNZhLXZ/oUHWiG7gjjW0WfWrFnqpS9evKhaJDZDrMH2O84FPsZTO4T5ExVImIcKIS7PaCZz+9v9e++9p6EG63juuedUa4sWLfL3pfWzqwmb/YhQ2etolHBEvDYrs/5cfZA22G10713pGyCuNg7tImV7dse69zbW3nFu5cdexeuycNe7BvsDgmSBtI45O3bsKMOGDdMyTJUqVUKWXnyQQWa2CK4s3m03cwWQvefe3rtjg/eRhIAJMhcx0IiDsjk9KhV9+/YVtG+OjoMDSfmRI0fCWpsP0piGuqJFd3GhTMJCiIEOxSfSO9Iz23t4U/YpTopS5sSJE3UovOnzzTff6OmHjArgaDISRQUSBi4w19Mac5OsKwxri3QlU6FUya9Xr153dAW8CQ6TXrhwoYwePVpeeeUVOXnylFSvXk1TPVf7QSZRgcRc3D3pAjaGFkLsOdorNRzzrnjTCxcu6LEN7VGvJXcFHBVCBGimSzgpUSIuX2gLN2dUIIODQ2mSPmjTpB4cE+6Z3DU9PV1IrilW4TXnzJkjliiQIYXa64Al97VMicoePGycO19UIJnEDSEmTZeRvYtkrqHaOBoZtWnTRlM517u6ABGgCRgH1bNnT/XEnG859sEL8w8KOiqQLM4111CLpT2UGRsArsHJ3TbuAYR2XJCAMSIDAkSfPn10H9qnBvp88cUX6pDoG1xfVCDR4t0WaAspzNWERFLAaYNQQcqXmZnps0WT1HM4XvFpAoHgjPjmEo58kEH07oBgCDHTpI+NQxBooiDCIKAT3ClzcFIZO3asPz0hwsD/H9AiGTdurB6zMFP6c6iORD5IMwvXLN2B1s472xfcGygbZ6DdsZHuExMT5ZNPPtHk2/p9/fXXmsdSSeCwzUEc74op79mzW7sRLxEqocPdt8bDvfogmQypUPUKEpqzOEibSdbtB1hXEG5bpHuqfx9++KEGddbAp79Vq1bJhg0bdBipngmOqwmTUMMe5ahFH7wqoYi9GVyfD5KjC+c3JoSZG1wBYBpjZleTBoAxriDsvXu1xbrv4Dtq1Ch9lZaWpiBd/u4Y+pL6AQzzpkKARilDQrSTv7pr5b0Pkgc2O0GYotRXX30l8+fP18GYg7sPg5KiE1qEeXACZXD7z93amYcMxwXpzksb2Q6FLpfQ3unTp1X7WAZAXcoH0hpq1aol/NAsUkJymIZRqD2AFlmQK3nr714jtRMSWCBJOYk4Zsg7kgPI9uH333+v1X0+1WO+JBRU+42C2yYkSOtcr149dQqkV9RQIMw41EIjadD4hbpiflgP1XECuvt5jmwHwRlvqwxQ7uCDLcUwFGCa55qRkSHbt2/Pl7xEBGmLItunSk6FHBNm8iBhwjZZsM2eQwkHoVHHwScAhoMv5RGOTwiWfUruamSOh3ACP36WPFD3od6KybrWFhVIm6Bz5856SP3uu+/k6aefVpduUjaA9mxj3Gu4tnnz5ikgTBSr4UMSHhYKtwUARxthxYBTD4IXgqKsYnRPIBmEhMgx+SpNNZzPBIUl49GpUyfdd5iwUSjt04bALBMDJCUQYqpdCYdG9wzSBrIXyDjQKp/x+IrEdw/ItGp9o72aybP3QhEnFDsoALJBgwZSqVIl6dq1qxabcUyhqMAgjRlelQo2ZQhyTEr8/N9BJLKFBvsQIgDoxltMktSOghXbhW8lKSkpMm7cOC2AuXsvyM+eCw3SGFERJ9xw8KVcjzMATNDc2EMslv2HkyBdM8L1ow2AGWF+/FsN9VUKWFCPHj2sOapr6AJqVENDdyIEcHqg/I+LJ02DAMsPk+OoRMJhH0mNE4deiHBCWFm+fLmWRCh1GEDrey/X+6bJ4KT8Lw4/jk2c/Mk1+W6BpiZPnqz71v7Zif3dqlUrdRxoiWfzmEG+BXn2/4+nIIPvZQyhgSoc3xi3bdum/3uH4xg5cqS+QxgPih4aSAPAZzzOf3yr5OD7MOihg3wYoIJz3HfHE5zgv/D8P2VCp8NZwXDmAAAAAElFTkSuQmCC;dashed=1;fillColor=none;fontSize=14;fontColor=#1A1A1A;align=left;" parent="MPk_wKv6yI4lPM2UqZ1F-1" vertex="1">
          <mxGeometry x="516" y="596" width="34.9" height="30" as="geometry" />
        </mxCell>
        <mxCell id="MPk_wKv6yI4lPM2UqZ1F-46" value="" style="endArrow=classic;html=1;fontColor=#1A1A1A;exitX=0.5;exitY=1;exitDx=0;exitDy=0;entryX=0.5;entryY=0;entryDx=0;entryDy=0;" parent="MPk_wKv6yI4lPM2UqZ1F-1" source="MPk_wKv6yI4lPM2UqZ1F-42" target="MPk_wKv6yI4lPM2UqZ1F-32" edge="1">
          <mxGeometry width="50" height="50" relative="1" as="geometry">
            <mxPoint x="486.96000000000004" y="446.98" as="sourcePoint" />
            <mxPoint x="543" y="560" as="targetPoint" />
          </mxGeometry>
        </mxCell>
        <mxCell id="MPk_wKv6yI4lPM2UqZ1F-13" value="&lt;b&gt;&lt;font style=&quot;font-size: 14px&quot;&gt;config.yml&lt;/font&gt;&lt;/b&gt;" style="shape=document;whiteSpace=wrap;html=1;boundedLbl=1;size=0.325;" parent="MPk_wKv6yI4lPM2UqZ1F-1" vertex="1">
          <mxGeometry x="253" y="159" width="80" height="50" as="geometry" />
        </mxCell>
        <mxCell id="MPk_wKv6yI4lPM2UqZ1F-14" value="&lt;b&gt;&lt;font style=&quot;font-size: 14px&quot;&gt;docker-compose.yml.templ&lt;/font&gt;&lt;/b&gt;" style="shape=document;whiteSpace=wrap;html=1;boundedLbl=1;size=0.325;verticalAlign=middle;" parent="MPk_wKv6yI4lPM2UqZ1F-1" vertex="1">
          <mxGeometry x="376" y="159" width="140" height="50" as="geometry" />
        </mxCell>
        <mxCell id="OcqpiRPA6Trd59Fm6vkp-1" value="" style="shape=image;verticalLabelPosition=bottom;labelBackgroundColor=#ffffff;verticalAlign=top;aspect=fixed;imageAspect=0;image=data:image/png,iVBORw0KGgoAAAANSUhEUgAAADkAAAAxCAYAAABgSwHoAAALeUlEQVRoBc2aCWxVVRPHB6i0gGVTKJGylcUNZNXIToUoq2IAE4msAmWxLBqWEAhLAg2UgilLrUApMbJESYhGCYLGiCBLgADKouwoi+xqlf1++c3H3Jxe3ns8WkAneb3LOWfO+c/MmZkzt0U8z/PkAdKJEyfkzJkz0rhxYylSpMgDnCk865jwTffW8s8//8jVq1fl0qVL8umnn8quXbvk+vXr8sMPP8jx48fl5ZdflqSkJOndu7fUrVtX4uPj722CQvQuUlBN/vHHH7J+/Xo5f/68cL9s2TLZv3+/YBgADkcxMTHy6KOPysCBA6V+/frSvn17eeyxx8J1vy/v7woS7ezZs0e19Msvv8jSpUvl7NmzcuXKFTl06FChF1GtWjWpWLGiDB06VJ599ll5/vnnC80zyEBBIn3bL4cPH1ZQq1evlry8PDl16pSa3M2bN4NjH8hz27ZtpXr16jJgwACpU6eOlC9fvtDz+JpEWzt27JBjx47J2rVrZdOmTYVmXhgGRYsWldKlS8uQIUPkySeflFdffVXKlStXMJbsSSg9PR0v6zVu3NibMWOGl5ub66WmpnqNGjXS97T9m7/ExESvXr16Xk5Ojrdx48bbq47ugqNQmjt3roLo0aOHXmNjY71OnTp5aWlpXnZ2ttenTx8vKSnpXwXqCjk5Odnr1auXt2nTJu/06dMGI+TVB5mZmakAsrKyvJiYGK9+/fpeQkKCvitdurSXkpLiZWRkeLNmzVLA8fHx/xnAcXFx3ttvv+3NnDnTy8vLuwPoHXGS2Hbjxg158cUX5ejRo7o/W7duLefOnZPs7GypXbu28JyVlSUHDx6UrVu3yrp16zQmFmzDFH5U06ZN5ffffxfCE2EtNjZWcGA8Q3eAtCkNLM/EtQoVKmjTb7/9poPfeustdffNmzeXN954Q/bu3atgcWAI6UEQDoiFlylTRl5//XUNPaVKlZKdO3fKTz/9pE5z6tSp8ueff8qWLVukbNmyuoywIN1FXrt2TYM870qUKCEvvPCCfPDBByqxzz77TN5//3156aWXpF27dhrvCEO5ubkq3YKGHoDgYZOTk6VZs2YCGEIdlvTxxx8rwM8//1xatGgh06ZN0+VWrlxZfv75Z00j3Ww1KpDFihXTCeHEYNMUJrFx40YBFMx3796t7U2aNJEpU6Zov82bN6vJk79GIrIeAGFqTz31lCQkJGgmxdaYMGGCauqRRx6R/v37qwABDZGUGF2+fFk++ugj3Vqpqan2Ory5+j1ENFHAfIOEhk1Tb775pvz666+yZs0aeeKJJ2TQoEFStWpV3RvTp0/XxAKtIwjiH1kOwMhp0RiZDxkVmmLvoyWIsaSL8K5Ro4YKgfcIOi4uTm7duuUv66+//pLBgwergEaMGOG/9zVpGY/fErhBikYuY3v3999/a+rH/iUBh1j4l19+KUuWLBGcQ8OGDRU8EmfvIqQFCxbIvn37pEuXLgqevPfbb781troHsSSINZpQSTd5z7oQGon/4sWLNW/GGtw1+iBdG/ZnuH2D1NxBNqk7xjwZ/cycyUMBj6niqMaMGaN8MGf2cPfu3f2+JPnsKfgUL17cX4KB4gX3mHGHDh0Eh9eyZUtNAYcPH67ePScnxx/n3vggI2nS1aJNxtUdgzm7z7TzzoSDp8OZoMXXXntNHn/8calZs6YcOHBA10NfhIfg8I4QxzGAG1C03K1bN+nXr5+284xwMPPZs2erQLUh8McH6Wol0EcfbbE8hNJkUBBBHvDnh8OYNGmSavfkyZP5upGMs1dXrFihwkBTCOLdd9/VfggRATD+mWee0X3Kvhw/fnw+PsEHH2SwwX3G/AwY702yrubMTN13Lg/uaYMPRzQOARDnSc6Vw4a9I4mJlfNZA6b+448/6r6jb8mSJWXlypUasjB1hMK+vxtFBRLv5y6e51CENiNZhLXZ/oUHWiG7gjjW0WfWrFnqpS9evKhaJDZDrMH2O84FPsZTO4T5ExVImIcKIS7PaCZz+9v9e++9p6EG63juuedUa4sWLfL3pfWzqwmb/YhQ2etolHBEvDYrs/5cfZA22G10713pGyCuNg7tImV7dse69zbW3nFu5cdexeuycNe7BvsDgmSBtI45O3bsKMOGDdMyTJUqVUKWXnyQQWa2CK4s3m03cwWQvefe3rtjg/eRhIAJMhcx0IiDsjk9KhV9+/YVtG+OjoMDSfmRI0fCWpsP0piGuqJFd3GhTMJCiIEOxSfSO9Iz23t4U/YpTopS5sSJE3UovOnzzTff6OmHjArgaDISRQUSBi4w19Mac5OsKwxri3QlU6FUya9Xr153dAW8CQ6TXrhwoYwePVpeeeUVOXnylFSvXk1TPVf7QSZRgcRc3D3pAjaGFkLsOdorNRzzrnjTCxcu6LEN7VGvJXcFHBVCBGimSzgpUSIuX2gLN2dUIIODQ2mSPmjTpB4cE+6Z3DU9PV1IrilW4TXnzJkjliiQIYXa64Al97VMicoePGycO19UIJnEDSEmTZeRvYtkrqHaOBoZtWnTRlM517u6ABGgCRgH1bNnT/XEnG859sEL8w8KOiqQLM4111CLpT2UGRsArsHJ3TbuAYR2XJCAMSIDAkSfPn10H9qnBvp88cUX6pDoG1xfVCDR4t0WaAspzNWERFLAaYNQQcqXmZnps0WT1HM4XvFpAoHgjPjmEo58kEH07oBgCDHTpI+NQxBooiDCIKAT3ClzcFIZO3asPz0hwsD/H9AiGTdurB6zMFP6c6iORD5IMwvXLN2B1s472xfcGygbZ6DdsZHuExMT5ZNPPtHk2/p9/fXXmsdSSeCwzUEc74op79mzW7sRLxEqocPdt8bDvfogmQypUPUKEpqzOEibSdbtB1hXEG5bpHuqfx9++KEGddbAp79Vq1bJhg0bdBipngmOqwmTUMMe5ahFH7wqoYi9GVyfD5KjC+c3JoSZG1wBYBpjZleTBoAxriDsvXu1xbrv4Dtq1Ch9lZaWpiBd/u4Y+pL6AQzzpkKARilDQrSTv7pr5b0Pkgc2O0GYotRXX30l8+fP18GYg7sPg5KiE1qEeXACZXD7z93amYcMxwXpzksb2Q6FLpfQ3unTp1X7WAZAXcoH0hpq1aol/NAsUkJymIZRqD2AFlmQK3nr714jtRMSWCBJOYk4Zsg7kgPI9uH333+v1X0+1WO+JBRU+42C2yYkSOtcr149dQqkV9RQIMw41EIjadD4hbpiflgP1XECuvt5jmwHwRlvqwxQ7uCDLcUwFGCa55qRkSHbt2/Pl7xEBGmLItunSk6FHBNm8iBhwjZZsM2eQwkHoVHHwScAhoMv5RGOTwiWfUruamSOh3ACP36WPFD3od6KybrWFhVIm6Bz5856SP3uu+/k6aefVpduUjaA9mxj3Gu4tnnz5ikgTBSr4UMSHhYKtwUARxthxYBTD4IXgqKsYnRPIBmEhMgx+SpNNZzPBIUl49GpUyfdd5iwUSjt04bALBMDJCUQYqpdCYdG9wzSBrIXyDjQKp/x+IrEdw/ItGp9o72aybP3QhEnFDsoALJBgwZSqVIl6dq1qxabcUyhqMAgjRlelQo2ZQhyTEr8/N9BJLKFBvsQIgDoxltMktSOghXbhW8lKSkpMm7cOC2AuXsvyM+eCw3SGFERJ9xw8KVcjzMATNDc2EMslv2HkyBdM8L1ow2AGWF+/FsN9VUKWFCPHj2sOapr6AJqVENDdyIEcHqg/I+LJ02DAMsPk+OoRMJhH0mNE4deiHBCWFm+fLmWRCh1GEDrey/X+6bJ4KT8Lw4/jk2c/Mk1+W6BpiZPnqz71v7Zif3dqlUrdRxoiWfzmEG+BXn2/4+nIIPvZQyhgSoc3xi3bdum/3uH4xg5cqS+QxgPih4aSAPAZzzOf3yr5OD7MOihg3wYoIJz3HfHE5zgv/D8P2VCp8NZwXDmAAAAAElFTkSuQmCC;" parent="MPk_wKv6yI4lPM2UqZ1F-1" vertex="1">
          <mxGeometry x="660" y="129" width="34.9" height="30" as="geometry" />
        </mxCell>
        <mxCell id="yEh39fcaKmCXRiqcLI0V-2" style="edgeStyle=orthogonalEdgeStyle;rounded=0;orthogonalLoop=1;jettySize=auto;html=1;exitX=0.5;exitY=1;exitDx=0;exitDy=0;" edge="1" parent="MPk_wKv6yI4lPM2UqZ1F-1">
          <mxGeometry relative="1" as="geometry">
            <mxPoint x="305" y="545" as="sourcePoint" />
            <mxPoint x="305" y="545" as="targetPoint" />
          </mxGeometry>
        </mxCell>
        <mxCell id="yEh39fcaKmCXRiqcLI0V-4" value="5) use" style="rounded=1;whiteSpace=wrap;html=1;labelBackgroundColor=none;strokeColor=#000000;strokeWidth=1;fillColor=none;fontColor=#000000;arcSize=20;absoluteArcSize=1;fontSize=14;fontStyle=1;" vertex="1" parent="MPk_wKv6yI4lPM2UqZ1F-1">
          <mxGeometry x="220" y="586" width="86" height="30" as="geometry" />
        </mxCell>
        <mxCell id="yEh39fcaKmCXRiqcLI0V-6" value="" style="edgeStyle=orthogonalEdgeStyle;rounded=0;orthogonalLoop=1;jettySize=auto;html=1;exitX=1;exitY=0.5;exitDx=0;exitDy=0;entryX=0;entryY=0.5;entryDx=0;entryDy=0;" edge="1" parent="MPk_wKv6yI4lPM2UqZ1F-1" source="yEh39fcaKmCXRiqcLI0V-4" target="MPk_wKv6yI4lPM2UqZ1F-32">
          <mxGeometry relative="1" as="geometry">
            <mxPoint x="219" y="401" as="sourcePoint" />
            <mxPoint x="261" y="401.5" as="targetPoint" />
          </mxGeometry>
        </mxCell>
      </root>
    </mxGraphModel>
  </diagram>
  <diagram id="UQVFkMGSeC-UX4kb-s29" name="Simple Platform Setup">
    <mxGraphModel dx="1106" dy="868" grid="1" gridSize="10" guides="1" tooltips="1" connect="1" arrows="1" fold="1" page="1" pageScale="1" pageWidth="827" pageHeight="1169" math="0" shadow="0">
      <root>
        <mxCell id="o2r5oqSkqjpRhzMttfE8-0" />
        <mxCell id="o2r5oqSkqjpRhzMttfE8-1" parent="o2r5oqSkqjpRhzMttfE8-0" />
        <mxCell id="o2r5oqSkqjpRhzMttfE8-4" value="produce" style="edgeStyle=orthogonalEdgeStyle;rounded=0;orthogonalLoop=1;jettySize=auto;html=1;exitX=1;exitY=0.5;exitDx=0;exitDy=0;fontSize=10;fontColor=#000000;entryX=0;entryY=0.5;entryDx=0;entryDy=0;" parent="o2r5oqSkqjpRhzMttfE8-1" source="o2r5oqSkqjpRhzMttfE8-5" target="o2r5oqSkqjpRhzMttfE8-7" edge="1">
          <mxGeometry relative="1" as="geometry" />
        </mxCell>
        <mxCell id="o2r5oqSkqjpRhzMttfE8-5" value="" style="rounded=1;whiteSpace=wrap;html=1;labelBackgroundColor=none;strokeColor=#000000;strokeWidth=1;fillColor=none;fontColor=#000000;arcSize=20;absoluteArcSize=1;" parent="o2r5oqSkqjpRhzMttfE8-1" vertex="1">
          <mxGeometry x="270" y="390" width="95" height="114" as="geometry" />
        </mxCell>
        <mxCell id="o2r5oqSkqjpRhzMttfE8-6" value="Event Hub" style="shape=image;verticalLabelPosition=bottom;labelBackgroundColor=#ffffff;verticalAlign=top;aspect=fixed;imageAspect=0;image=data:image/png,iVBORw0KGgoAAAANSUhEUgAAABkAAAAaCAYAAABCfffNAAABe0lEQVRIDbVWQU7DMBAco6b/Ia0EiPKU8gB65caZG9fyAPqVSIDUhv80B6OxsLXx2pIbB1+642xmdmcTNwYA2nb9amGfASyJZ1pnA/PW98eXKxL+gwBpl3+8cCIzdyCNcM4s5A7j/nSMty7G7Wo9usd3Ejb3+3fc3N6Bifwlrl3GWtsBuPdEJB6GwUM0TYPvr8+AJwQdOwkCJJACKTxBZKPsYuVyxVheK42VyON26ywiAQWIuWpmxZnYkopqZqU6yVVcMysl8nE4hOGTmJgrng1xrqDYGSWSqzg1q1xBsYiaySXex282yVMnhuokVTFvTlmTsjDuglh1kkriXqpDFuQt84/7bvekKIpFSq1RCkA46sO1lC28WGpNIBKBmolvnznyEc7NSnBlQ9o1OoVrbMmodAtjzOa6XYWjhbbIdyW2KUM02paF/vSnB2VXjS0jJQEMY9lJ6mUS+UVh1IlR//EyoYixIMnbdS7InZLieJ0IP8IAzC3kPu5Y2S8HMcEG4rOK5wAAAABJRU5ErkJggg==;" parent="o2r5oqSkqjpRhzMttfE8-1" vertex="1">
          <mxGeometry x="512.5" y="401" width="25" height="26" as="geometry" />
        </mxCell>
        <mxCell id="o2r5oqSkqjpRhzMttfE8-7" value="" style="rounded=1;whiteSpace=wrap;html=1;labelBackgroundColor=none;strokeColor=#000000;strokeWidth=1;fillColor=none;fontColor=#000000;arcSize=20;absoluteArcSize=1;" parent="o2r5oqSkqjpRhzMttfE8-1" vertex="1">
          <mxGeometry x="477.5" y="390" width="95" height="114" as="geometry" />
        </mxCell>
        <mxCell id="o2r5oqSkqjpRhzMttfE8-8" value="Zookeeper" style="rounded=1;whiteSpace=wrap;html=1;labelBackgroundColor=none;strokeColor=#82b366;strokeWidth=1;fillColor=#008C00;arcSize=8;absoluteArcSize=1;fontStyle=1;fontSize=10;fontColor=#FFFFFF;" parent="o2r5oqSkqjpRhzMttfE8-1" vertex="1">
          <mxGeometry x="487.5" y="456" width="75" height="19" as="geometry" />
        </mxCell>
        <mxCell id="o2r5oqSkqjpRhzMttfE8-9" value="Data Flow" style="shape=image;verticalLabelPosition=bottom;labelBackgroundColor=#ffffff;verticalAlign=top;aspect=fixed;imageAspect=0;image=data:image/png,iVBORw0KGgoAAAANSUhEUgAAAC0AAAAtCAYAAAA6GuKaAAAIsklEQVRoBb1ZXYhdVxVee+9z5udOaELIpKHWSKKjhUFCNA9qMU5KfVActOhEEB/yor7V4g++iMMkIEiL1jcRQSiKkigGIuKDNZeAijYNiox5uBjyEMN05nZq0zHOvffcveXb3d9hZd9zM5M+eODO2nv9fnvttdf5GZE3L9NAd8uDKXSpj/mzIhLG/D7fEIs+SOlL0zpGgWBLS0t2Y2PDzM7OhpzCS87DHPwm/fPnz3vnnAkBmOsLk2hjrXVVVZlTp0452EPjQfxfuHAhWGSDRjdu3LAEQmfjZNQjpX6CyQylaSRchceMduP8Q2eMLIKOGQbgo0ePeijqSHSuZeRpqm3GjOk3UsahD+2f9rkMc8jqTI8zyrNPRzmFMzpNtczYoASseXW26UsLySPVMoCua1kLqKwXQ15OYUde8jGpfWVjp/Uzu6hKHintuTs4iLF2KACFcl4udJDTXB9zY8yfRORhEemrrCPbpTHmn9BhvRIIeLh2ig2duG1LS0uOxuNA6SDUYRAtu3Xrltu7d6+/evVqBfnKyopZXl7mIZT5+flyeno66B2EHi76JW3itdvtYWx5b5rsvEoNjg71jly+fHlYFMWnvPfPWWt79LuysoIhgKM0Xmu1WouLi4sb7Xa7rnUCJaV/HRMy8AG6bnlQ0Bmgg5xqh1offBHZJyLvSOMm8ob3fgLZb7fbUX4//5RBEfhA64P4oF1CZyBDFvtwxqvLQ0QGqs53VRIArv3VB1FnjKvLKQzJwxh3P+0sjXH48qsug3SOIgj40uUFI/rPKWWgsTyoQIHOImULCwteH6hoXBSfCCF8RERQvwA2CCG8D7KUTfB0ljiPi3gr5QjH8SCyVgiQFAqQ4YDt37//oXPnzn0yhPCkiEydPHnycyGExRDCFyLE0T8RGDuUEk9wrONwnFPogscdwTxmmgKdYfJQAkVRPOW9/46IvAt8EenevHkTtttpjmwSZGI1E2PMz44cObKOVjguWQQODxow9euDqAFDEQbpie3L3vtfKsAQ9fCkpmDpsWKPDp1zP1xdXR20223E3rGGmWHigw0M72l5XGXquR8LIXxvNLTI1NQUDuGuwSYfv+n3+y/jsfRBAUN/x0zPzc1NeO/PpWDIPH+Rtb29jQWze8SdGaNL2atlWX496eyYYQDUHY12oKjLegVcCcqiLMtTIsJOMJLRlOm4xdphQ/Zh23XOne71etf58M/t1hR+mmqY/lm2sTw4oRGo9/5xKjfQuL0K4Miikk3fGHNhYmLiQ4PBoL0bwOMyzLKF39jyCEoLRORR8lXPjSxjzPOdTqfvnHtFRG6KyH+TLsBbY8xfjDEvOude6vV6/4Bst4AzDNEteDyQYMSWp7cICgpAGt574Ky1f4Xg8OHDz1ZV9Zz33lhro91gMLBra2t3afhWDx3tuQhd3zHTeiVYQDJoqtcoCiHE8jhz5kx/dXXVzM/PR8Ac66zCgIFzqmUaVIo/Ykd+nekGo/rORWVFS4zZa/mICVDgERx0OM4pZdx2lawYZpw+hHWmcyNjzE9F5Lp6KmOLK8qy/Hv0rP4gSA4gD8w5zJr06Y56pNQnRoCuWx6Fs7OzeyYnJ192zv1RdYgQQsAh81VVTaGPHz9+vIIjOte7RVB8gyGgjLLPR/aJEycK+qBPYmJCMI/loR2pZ40fiQgOFGpcH07MN2/fvv3BTqezdvr06Xs+9DAIFgPArVbr0V6v90W8H6abEc8MAMeWKyITxpg/VFV1cdx54GIIus4UVpcWgMUgyF69IDUe8jDqTEPODNFXVVUPhxC+qWzHDQ+JyEXa574YB/yYaTJAk0dSLIJjHSygTLRjPdaBrbV3ROTFlNWhiDyW7gF4WfiziOAFGJ8crsEHMdAHqZYB9D1fmCBU5ZCmIyQ45+IbCsqJUtTk4uLiEK0PLw14/Nze3u6IyEep45x7PoTwNF5wDxw48PH19fX/UAYKkGih8KEBax2AjqvTNdOQXZYNbWe2trZ+4JyLz9MhhElr7a+rqnrh0KFDLShduXJF+v1+cfbs2W+JyCMigiyjrD6QnDzU7XZ/7JzjW3tprf3+sWPHXmq325NlWfpWqzXkYYcNFgEay2PcihT4vESwnZ/WX0ZDCBtzc3M/X19f/62IvC1tOw7aOxPInEyLyGe0j+FwuHDt2rXXUilNWWu/2ul0fpEfTjitAQE8trTVal1kjeWR7jPvpxeDd4vIERGZuw/gcW4Oish7ku3b2QiACy2PmY4tRx9E1NKdO3c28VqkPOvy0GOlIiaBxieC/GqyaeLBTvPjGPh0+cZM65Xw9E5PT/9ERP6Vote7oXcmQ8ZgWpcqu+VBX+tGn8BHXFCoM61Xghra2tp6xVqLU86LoEjJJzVFUUDWJN8tD760blwAAevyaGwtuNNVVfUra+0ZdWckwCbq+/0+ksAXhFxHg7mfTGe61tPZRpC6oVOD5ZKAv1AUxeN4AxER3CganeJWvG/fPtwouiLy70RfTT5hk9vpOcdbIrKWbPEIEVsqATPTseURLCgVWC4olX6//zcR+Wyr1Xqk1+t9LYTw/vTtOZZXuqNdx6eBPXv24GMO/lGEn+31et8OIeCDJBYEcMg4KULCB25QE865s9baW0VRvA7BzMzMG03PNvUdEXXDDBMwF8E+effu3dsi8hXw8wutMp2FdcrAW15eRnnt6jp48OBMt9v9nff+G4PB4ArsL1265IiHmY7bsrCwUDDDpIjCMamOTB7pTjLqaQobJit9GHomhPBdEfm99/5JJosHEfr4qI6tqTNMhxByrCmBgcdmrx022Y3jwY6AoYPbfwjhSynGE2VZfhgfjHL/kNcHkVuQjOoM0IiUgHN92FHGhY7jMQb1keXNzc33prthFHvvn6AeKfQxjqAZBJQCzdNGAE/A1IWc+pQ18cbpQ9cYg25RPzGKyMjTHxNHPLFM0qlGnf+/f8TxlIjgIOMLLf+tN4Llf8AT6p/7ovYBAAAAAElFTkSuQmCC;" parent="o2r5oqSkqjpRhzMttfE8-1" vertex="1">
          <mxGeometry x="299" y="396" width="37" height="37" as="geometry" />
        </mxCell>
        <mxCell id="o2r5oqSkqjpRhzMttfE8-10" value="StreamSets" style="rounded=1;whiteSpace=wrap;html=1;labelBackgroundColor=none;strokeColor=#82b366;strokeWidth=1;fillColor=#008C00;arcSize=8;absoluteArcSize=1;fontStyle=1;fontSize=10;fontColor=#FFFFFF;" parent="o2r5oqSkqjpRhzMttfE8-1" vertex="1">
          <mxGeometry x="280" y="460" width="75" height="19" as="geometry" />
        </mxCell>
        <mxCell id="o2r5oqSkqjpRhzMttfE8-15" value="" style="rounded=1;whiteSpace=wrap;html=1;labelBackgroundColor=none;strokeColor=#000000;strokeWidth=1;fillColor=none;fontColor=#000000;arcSize=20;absoluteArcSize=1;" parent="o2r5oqSkqjpRhzMttfE8-1" vertex="1">
          <mxGeometry x="477.5" y="557" width="95" height="114" as="geometry" />
        </mxCell>
        <mxCell id="o2r5oqSkqjpRhzMttfE8-16" value="Artefact&#xa;Repository" style="shape=image;verticalLabelPosition=bottom;labelBackgroundColor=#ffffff;verticalAlign=top;aspect=fixed;imageAspect=0;image=data:image/png,iVBORw0KGgoAAAANSUhEUgAAACQAAAAXCAYAAABj7u2bAAADM0lEQVRIDcWXx4pVQRCGvzHnHDEriApGdGVa6d6NAcFn8A18ifEFBBFcuHBnAMG4MCOoiFnBnHMa5TtTdek5M3Nl1BkL+vY53aerqqv++rtvC81lEDAWmBBtPDAGGA0sBlYBc4FhoeYTcAs4C1wB3gCvgRfA82ivgK/dmW2pTYwCVgNrgGVhbBIwEhhY+7anr9+Bt8BT4DZwETgJnI7xTvq2AA+An33c7gPa7iTH+9iRcuParqRfPgBniuf6Y7nYZ6Xsy/nfzbWv7vjbre11QCtwHnjZixFT97mwpc2GJKjttwNHgCcxa3XNBuYAM4GpwMSoOkE+FBgMDABSj5ESvF8AK04QW2XPgEeAeLkD3AWsNmUysAHYW0S9mjgGfAAOADuB9cC0MNi+9O9/dV6d6taGtrSp7Ur8IOVb8MkmwKZ8DA6xVN2lfOLO3Pl74HNwyo/4vj8gdw0BRgDSiLwljxldKUQuS96KZWi7ktIhiasuLrTNqE/84/eGbXeUIn7eBQm6M/HRm6Kty8BuYFfgrgFGy39FIF8nBNoiYCEwLyJkuAV6AtrUyN6uLUHdBlUKPB4EtoZNs2mXeD1argFXiwJaCVwA2lKRThyKXO8DTgDX4yyqR8k1YsQI6lRXVaYzVpoYS74q9XgWLgDWAtsCmxv9oMSQ70bJpsgVD2NX9patu3TcXVsdGhSQRkURAurU4eERzXEBZmljekTb3vEU4VJJ6VBWSs65wLYkB5r0GYUy4k0+7zRVt119oOGDQWTlUdCbz5KmNpemi7kjgSlfmA45w3uOqRPUsrWAdt40iJ2yOlNXV707F0umV+OmXJYW1ILYe5Mlbyac7wDq/eHQnrirWCGlWF2CUUqQ9NI5gZ0bM5oJaJ2QPCVRL2rirhSPnuXAjnBos5OpyOfDcab47Hl2E7gRZXoPeBy70UAJaM+uEkPiUjpIYLsJ2XkKMCtoZH70jilH03YJ6jIN8pDN22NdjEA2K6x0yNSrR4eMXLa6jvp7absx979ujJLl1vSiTJljeac2MuWd2vFmd+oyZam73htN0y2wvVNfAk5Fc7ySukM5nr0h78m/Dm8HGvvjfx2/ACjjUtluoReVAAAAAElFTkSuQmCC;" parent="o2r5oqSkqjpRhzMttfE8-1" vertex="1">
          <mxGeometry x="507" y="566.9999999999999" width="36" height="23" as="geometry" />
        </mxCell>
        <mxCell id="o2r5oqSkqjpRhzMttfE8-17" value="Schema Registry" style="rounded=1;whiteSpace=wrap;html=1;labelBackgroundColor=none;strokeColor=#82b366;strokeWidth=1;fillColor=#008C00;arcSize=8;absoluteArcSize=1;fontStyle=1;fontSize=10;fontColor=#FFFFFF;" parent="o2r5oqSkqjpRhzMttfE8-1" vertex="1">
          <mxGeometry x="487.5" y="633" width="75" height="25" as="geometry" />
        </mxCell>
        <mxCell id="o2r5oqSkqjpRhzMttfE8-18" value="get" style="edgeStyle=orthogonalEdgeStyle;rounded=0;orthogonalLoop=1;jettySize=auto;html=1;fontSize=10;fontColor=#000000;exitX=0.5;exitY=0;exitDx=0;exitDy=0;entryX=0.5;entryY=1;entryDx=0;entryDy=0;" parent="o2r5oqSkqjpRhzMttfE8-1" source="o2r5oqSkqjpRhzMttfE8-15" target="o2r5oqSkqjpRhzMttfE8-5" edge="1">
          <mxGeometry relative="1" as="geometry">
            <mxPoint x="525" y="490" as="sourcePoint" />
            <mxPoint x="317.5" y="495" as="targetPoint" />
          </mxGeometry>
        </mxCell>
        <mxCell id="o2r5oqSkqjpRhzMttfE8-19" value="" style="rounded=1;whiteSpace=wrap;html=1;labelBackgroundColor=none;strokeColor=#000000;strokeWidth=1;fillColor=none;fontColor=#000000;arcSize=20;absoluteArcSize=1;" parent="o2r5oqSkqjpRhzMttfE8-1" vertex="1">
          <mxGeometry x="850" y="390" width="95" height="114" as="geometry" />
        </mxCell>
        <mxCell id="o2r5oqSkqjpRhzMttfE8-20" value="Object&#xa;Store" style="shape=image;verticalLabelPosition=bottom;labelBackgroundColor=#ffffff;verticalAlign=top;aspect=fixed;imageAspect=0;image=data:image/png,iVBORw0KGgoAAAANSUhEUgAAABgAAAAaCAYAAACtv5zzAAAFEUlEQVRIDYVVTWhcVRT+znlv3kxTXtIkRhPiCImCtpG2xBYqgZJspP5thBRcaLvR0p1I95PQhS5swaWiFN0oEUQIRlcmlhb/orbQWNvQxjb9SU2HtE4yzUzmvSPfm3eb0Va8cDnvvnvud8757jnnCupDAVg6+acJQCeA7QC6ALwAYE+q68TXAMYBLAA4lcpyuil3sUZGRtTMhDMIgidVURCRkyJyUwQmIg2TazfX/wMoisgJVYwSg1g0ROzkIwzDB1ZWVt4ws9cAPJh68ReAKwBmReQ6gBjASrq3EQCdehhAL4BHAIR1EuSGmb0fhuG7pVKpSP2NIvJVg6dTqvp6JpPZ0dLS0toYoYvUycHBQb+5ubmNuqp6QES+ITXEAjBBbJ+RpPxeV9VD+Xz+87m5uQotp4q6d+9eXVxclI6ODqPkXqlUkt7e3vj27dtLAH7m7Onp+Wh+fv6lKIqOiMizZlZILkNECHY0iqJDo6OjMjU1pVNTUzY8PJwwcj/wMAzp5d1B4319fVYoFMzzvHfiOH6TmzRwQkQGAPwQBMGrq6ur5NxIA43NzMwIDdBjgv5bEnhsbIz3k4xcLvdYtVr9GMAuMzvJn/vWswXzAN7KZDL9bW1tzY7r/5Otra0tmQy2q+rbIrjs7hPAfkawUwSTgGw0M1IFM7sjIr+I2K+AnhUR5jovbznNHtaJRlHUoapbzWwbYP2AbEgDoVgxsyF+sJAuiUhNVY8A+AzAYt2Le3I+AlBzHjqd1Piiqo6p4qiIRCK41NTU1MUsYpGcZy6LyCkzO5TNZh+PomizGb1Cm5k9AaC7nlhJxdOxeRGZBexPVe+053lnK5XKOd/3XzGLFZDz5XK5SANVM7vME2bWR0lFAJxfcN3Z2dlULpdzqhrzPuh5LperLiwsuNZAtWSY2RZ+iMh8HMdrNABVnSH/5LK7u3vDwMBAxeU7s+TgwYN3CoXCPWCsD553aXz8+PGcmW1PK/oMHXEGfouiiMXVe+vWrZa+vr4b4+Pj6nKddTEzM/OPvHcOJG4DYA1MTEywXfQAUlFVYkpSldlslrn7Ldnwff/parX609DQkEfvHUCjdOCNNTE9PV0LgmBnrVb7jp01CILdlUrlAkOUrq4uNrU5shXHMZvXfw4HTgUXoVPmWTNjd57L5/NXeF8Jh+w9IkIDvIedlPfzvhGcOoyA0hkysx1cA/hjdna2yppKIkh//khpZpvd5XHtQC9evJg440AdPdQZHByM2VbiON5CUACkie9BfcVQfN9/Po5jvlBnW1tbdxWLxZIz5Iw4UCcJwjE5ORm1t7eHS0tL39NBz/NerNVqXyYRsN9Tyff9c4CVWNmlUunR+tH1CByok9wnjY5KnjFDl4iUfN9n4XKIjoyMJJ0wm80WAZk1s01xHPM9vkuPA3WSew44gQGwtrb2kAg28QXMZrM3SRkZp4Ekgv7+fj6RV+vNLtrNgwyds7FNO0BKtmnXqlV1d73AcI1YbPO8g0R/eHjYS1JKcTht3asAjvm+/0wYhu3cu9/kW04dVT0mIsxEU9XD1OVzSop8LkZHR5OCCgJ8UK1q3sxeFpH9URTtW15e/t3zvDNkDMCdNAK2ZRreCoCNkJ4yLY8FQfBhQ5T1CGiN03nped5zqvqJiCSPB7l0rXldun9yWVU/9X1/j2OCWPymYVpwk1Hwm9K1CLbopwBsA3Agbdl08CqA9wCcBjAN4FrqNe/TnU1+/Q2B+OssHGkVJgAAAABJRU5ErkJggg==;" parent="o2r5oqSkqjpRhzMttfE8-1" vertex="1">
          <mxGeometry x="885.5" y="397" width="24" height="26" as="geometry" />
        </mxCell>
        <mxCell id="o2r5oqSkqjpRhzMttfE8-21" value="MinIO" style="rounded=1;whiteSpace=wrap;html=1;labelBackgroundColor=none;strokeColor=#82b366;strokeWidth=1;fillColor=#008C00;arcSize=8;absoluteArcSize=1;fontStyle=1;fontSize=10;fontColor=#FFFFFF;" parent="o2r5oqSkqjpRhzMttfE8-1" vertex="1">
          <mxGeometry x="860" y="460" width="75" height="19" as="geometry" />
        </mxCell>
        <mxCell id="o2r5oqSkqjpRhzMttfE8-22" value="(Bulk) Data Flow" style="shape=image;verticalLabelPosition=bottom;labelBackgroundColor=#ffffff;verticalAlign=top;aspect=fixed;imageAspect=0;image=data:image/png,iVBORw0KGgoAAAANSUhEUgAAAC0AAAAtCAYAAAA6GuKaAAAIsklEQVRoBb1ZXYhdVxVee+9z5udOaELIpKHWSKKjhUFCNA9qMU5KfVActOhEEB/yor7V4g++iMMkIEiL1jcRQSiKkigGIuKDNZeAijYNiox5uBjyEMN05nZq0zHOvffcveXb3d9hZd9zM5M+eODO2nv9fnvttdf5GZE3L9NAd8uDKXSpj/mzIhLG/D7fEIs+SOlL0zpGgWBLS0t2Y2PDzM7OhpzCS87DHPwm/fPnz3vnnAkBmOsLk2hjrXVVVZlTp0452EPjQfxfuHAhWGSDRjdu3LAEQmfjZNQjpX6CyQylaSRchceMduP8Q2eMLIKOGQbgo0ePeijqSHSuZeRpqm3GjOk3UsahD+2f9rkMc8jqTI8zyrNPRzmFMzpNtczYoASseXW26UsLySPVMoCua1kLqKwXQ15OYUde8jGpfWVjp/Uzu6hKHintuTs4iLF2KACFcl4udJDTXB9zY8yfRORhEemrrCPbpTHmn9BhvRIIeLh2ig2duG1LS0uOxuNA6SDUYRAtu3Xrltu7d6+/evVqBfnKyopZXl7mIZT5+flyeno66B2EHi76JW3itdvtYWx5b5rsvEoNjg71jly+fHlYFMWnvPfPWWt79LuysoIhgKM0Xmu1WouLi4sb7Xa7rnUCJaV/HRMy8AG6bnlQ0Bmgg5xqh1offBHZJyLvSOMm8ob3fgLZb7fbUX4//5RBEfhA64P4oF1CZyBDFvtwxqvLQ0QGqs53VRIArv3VB1FnjKvLKQzJwxh3P+0sjXH48qsug3SOIgj40uUFI/rPKWWgsTyoQIHOImULCwteH6hoXBSfCCF8RERQvwA2CCG8D7KUTfB0ljiPi3gr5QjH8SCyVgiQFAqQ4YDt37//oXPnzn0yhPCkiEydPHnycyGExRDCFyLE0T8RGDuUEk9wrONwnFPogscdwTxmmgKdYfJQAkVRPOW9/46IvAt8EenevHkTtttpjmwSZGI1E2PMz44cObKOVjguWQQODxow9euDqAFDEQbpie3L3vtfKsAQ9fCkpmDpsWKPDp1zP1xdXR20223E3rGGmWHigw0M72l5XGXquR8LIXxvNLTI1NQUDuGuwSYfv+n3+y/jsfRBAUN/x0zPzc1NeO/PpWDIPH+Rtb29jQWze8SdGaNL2atlWX496eyYYQDUHY12oKjLegVcCcqiLMtTIsJOMJLRlOm4xdphQ/Zh23XOne71etf58M/t1hR+mmqY/lm2sTw4oRGo9/5xKjfQuL0K4Miikk3fGHNhYmLiQ4PBoL0bwOMyzLKF39jyCEoLRORR8lXPjSxjzPOdTqfvnHtFRG6KyH+TLsBbY8xfjDEvOude6vV6/4Bst4AzDNEteDyQYMSWp7cICgpAGt574Ky1f4Xg8OHDz1ZV9Zz33lhro91gMLBra2t3afhWDx3tuQhd3zHTeiVYQDJoqtcoCiHE8jhz5kx/dXXVzM/PR8Ac66zCgIFzqmUaVIo/Ykd+nekGo/rORWVFS4zZa/mICVDgERx0OM4pZdx2lawYZpw+hHWmcyNjzE9F5Lp6KmOLK8qy/Hv0rP4gSA4gD8w5zJr06Y56pNQnRoCuWx6Fs7OzeyYnJ192zv1RdYgQQsAh81VVTaGPHz9+vIIjOte7RVB8gyGgjLLPR/aJEycK+qBPYmJCMI/loR2pZ40fiQgOFGpcH07MN2/fvv3BTqezdvr06Xs+9DAIFgPArVbr0V6v90W8H6abEc8MAMeWKyITxpg/VFV1cdx54GIIus4UVpcWgMUgyF69IDUe8jDqTEPODNFXVVUPhxC+qWzHDQ+JyEXa574YB/yYaTJAk0dSLIJjHSygTLRjPdaBrbV3ROTFlNWhiDyW7gF4WfiziOAFGJ8crsEHMdAHqZYB9D1fmCBU5ZCmIyQ45+IbCsqJUtTk4uLiEK0PLw14/Nze3u6IyEep45x7PoTwNF5wDxw48PH19fX/UAYKkGih8KEBax2AjqvTNdOQXZYNbWe2trZ+4JyLz9MhhElr7a+rqnrh0KFDLShduXJF+v1+cfbs2W+JyCMigiyjrD6QnDzU7XZ/7JzjW3tprf3+sWPHXmq325NlWfpWqzXkYYcNFgEay2PcihT4vESwnZ/WX0ZDCBtzc3M/X19f/62IvC1tOw7aOxPInEyLyGe0j+FwuHDt2rXXUilNWWu/2ul0fpEfTjitAQE8trTVal1kjeWR7jPvpxeDd4vIERGZuw/gcW4Oish7ku3b2QiACy2PmY4tRx9E1NKdO3c28VqkPOvy0GOlIiaBxieC/GqyaeLBTvPjGPh0+cZM65Xw9E5PT/9ERP6Vote7oXcmQ8ZgWpcqu+VBX+tGn8BHXFCoM61Xghra2tp6xVqLU86LoEjJJzVFUUDWJN8tD760blwAAevyaGwtuNNVVfUra+0ZdWckwCbq+/0+ksAXhFxHg7mfTGe61tPZRpC6oVOD5ZKAv1AUxeN4AxER3CganeJWvG/fPtwouiLy70RfTT5hk9vpOcdbIrKWbPEIEVsqATPTseURLCgVWC4olX6//zcR+Wyr1Xqk1+t9LYTw/vTtOZZXuqNdx6eBPXv24GMO/lGEn+31et8OIeCDJBYEcMg4KULCB25QE865s9baW0VRvA7BzMzMG03PNvUdEXXDDBMwF8E+effu3dsi8hXw8wutMp2FdcrAW15eRnnt6jp48OBMt9v9nff+G4PB4ArsL1265IiHmY7bsrCwUDDDpIjCMamOTB7pTjLqaQobJit9GHomhPBdEfm99/5JJosHEfr4qI6tqTNMhxByrCmBgcdmrx022Y3jwY6AoYPbfwjhSynGE2VZfhgfjHL/kNcHkVuQjOoM0IiUgHN92FHGhY7jMQb1keXNzc33prthFHvvn6AeKfQxjqAZBJQCzdNGAE/A1IWc+pQ18cbpQ9cYg25RPzGKyMjTHxNHPLFM0qlGnf+/f8TxlIjgIOMLLf+tN4Llf8AT6p/7ovYBAAAAAElFTkSuQmCC;" parent="o2r5oqSkqjpRhzMttfE8-1" vertex="1">
          <mxGeometry x="699" y="397" width="37" height="37" as="geometry" />
        </mxCell>
        <mxCell id="o2r5oqSkqjpRhzMttfE8-23" value="" style="rounded=1;whiteSpace=wrap;html=1;labelBackgroundColor=none;strokeColor=#000000;strokeWidth=1;fillColor=none;fontColor=#000000;arcSize=20;absoluteArcSize=1;" parent="o2r5oqSkqjpRhzMttfE8-1" vertex="1">
          <mxGeometry x="670" y="390" width="95" height="114" as="geometry" />
        </mxCell>
        <mxCell id="o2r5oqSkqjpRhzMttfE8-24" value="StreamSets" style="rounded=1;whiteSpace=wrap;html=1;labelBackgroundColor=none;strokeColor=#82b366;strokeWidth=1;fillColor=#008C00;arcSize=8;absoluteArcSize=1;fontStyle=1;fontSize=10;fontColor=#FFFFFF;" parent="o2r5oqSkqjpRhzMttfE8-1" vertex="1">
          <mxGeometry x="680" y="460" width="75" height="19" as="geometry" />
        </mxCell>
        <mxCell id="o2r5oqSkqjpRhzMttfE8-25" value="write" style="edgeStyle=orthogonalEdgeStyle;rounded=0;orthogonalLoop=1;jettySize=auto;html=1;exitX=1;exitY=0.5;exitDx=0;exitDy=0;fontSize=10;fontColor=#000000;" parent="o2r5oqSkqjpRhzMttfE8-1" source="o2r5oqSkqjpRhzMttfE8-23" target="o2r5oqSkqjpRhzMttfE8-19" edge="1">
          <mxGeometry relative="1" as="geometry">
            <mxPoint x="775" y="570" as="sourcePoint" />
            <mxPoint x="850" y="442.5" as="targetPoint" />
          </mxGeometry>
        </mxCell>
        <mxCell id="o2r5oqSkqjpRhzMttfE8-26" value="consume" style="edgeStyle=orthogonalEdgeStyle;rounded=0;orthogonalLoop=1;jettySize=auto;html=1;exitX=1;exitY=0.5;exitDx=0;exitDy=0;fontSize=10;fontColor=#000000;entryX=0;entryY=0.5;entryDx=0;entryDy=0;" parent="o2r5oqSkqjpRhzMttfE8-1" source="o2r5oqSkqjpRhzMttfE8-7" target="o2r5oqSkqjpRhzMttfE8-23" edge="1">
          <mxGeometry relative="1" as="geometry">
            <mxPoint x="375" y="452.5" as="sourcePoint" />
            <mxPoint x="487.5" y="452.5" as="targetPoint" />
          </mxGeometry>
        </mxCell>
        <mxCell id="o2r5oqSkqjpRhzMttfE8-28" value="" style="rounded=1;whiteSpace=wrap;html=1;labelBackgroundColor=none;strokeColor=#000000;strokeWidth=1;fillColor=none;fontColor=#000000;arcSize=20;absoluteArcSize=1;" parent="o2r5oqSkqjpRhzMttfE8-1" vertex="1">
          <mxGeometry x="80" y="390" width="95" height="114" as="geometry" />
        </mxCell>
        <mxCell id="o2r5oqSkqjpRhzMttfE8-29" value="Streaming &#xa;Data Sources" style="shape=image;verticalLabelPosition=bottom;labelBackgroundColor=#ffffff;verticalAlign=top;aspect=fixed;imageAspect=0;image=data:image/png,iVBORw0KGgoAAAANSUhEUgAAACwAAAAVCAYAAAA98QxkAAACXklEQVRIDdWXv6oaQRTGz2xEV0HUJrMuqCsBiwSCrdhoIIV5gkjqND5DCosUNopPcK3yp0uXwiLa2F3QBJNCCLpW2qgXcl0VsyecIWNc7qZ0vU4zc75v5Ps5zOgMg6OmadoLAHiLiE8B4MGRdY7hb8bYNwB4M5vNPksAJgec85cA8A4AFKndk94GgFfz+fzjgUfX9STn/BfnHBuNBq5WK2y1WqhpGuq6jsPhEL1ulmVhvV5HYiI2YjwAc86vyKhUKg6uarUqPlAulx26lwUx/YW+EsDRaDSqaZoVj8dxOp06WGilDcMQK22apsPzqiAmYiNGYlVUVX2OiGoul4NEInFYdRpEIhEolUqAiNButx2eVwUxERsxEisdsGcUXiwWXRkKhYLQe72eq++FeMRWVGzbfkyh2WzWNVvqo9HI1fdClAy2bT9RGGOPKDSdTrtmG4YBjDEwTVNsDddJJxYlG7HSlohQXiwWc431+/0QCoVgv9+DZVmuc04tHrFFCDhIgaqq/jdXeucCDgQCki1IwGLZNpuNFO/00gsGxXe7459a2G63MsIi4BuqlsulFB39breD9XoNPp8PzgW8WCwk042CiD+pGo/HUnT0k8lEHLZUKiUOn8P0qCAGasSqKIryg4rBYOAaL/VMJuPqeyH2+30RoyjKd9oSX6jqdDqu2d1uV+j5fN7V90KUDIQJF3eXWNENB/GDbdtQq9UcC9ZsNsVvL/01JpP/bneOSScuiInYEPE9sYq4S7oPX9yL4/Buu729HYbD4WvGGF2GHt6DpxK96b4yxl7P5/NPcuf9AZg4gQdP4Gw2AAAAAElFTkSuQmCC;fillColor=#008C00;fontSize=10;fontColor=#000000;" parent="o2r5oqSkqjpRhzMttfE8-1" vertex="1">
          <mxGeometry x="105.5" y="405" width="44" height="21" as="geometry" />
        </mxCell>
        <mxCell id="o2r5oqSkqjpRhzMttfE8-30" value="push" style="rounded=0;orthogonalLoop=1;jettySize=auto;html=1;fontSize=10;fontColor=#000000;exitX=1;exitY=0.5;exitDx=0;exitDy=0;" parent="o2r5oqSkqjpRhzMttfE8-1" source="o2r5oqSkqjpRhzMttfE8-28" target="o2r5oqSkqjpRhzMttfE8-5" edge="1">
          <mxGeometry relative="1" as="geometry">
            <mxPoint x="165" y="307.5" as="sourcePoint" />
            <mxPoint x="270" y="443" as="targetPoint" />
          </mxGeometry>
        </mxCell>
        <mxCell id="o2r5oqSkqjpRhzMttfE8-31" value="get" style="edgeStyle=orthogonalEdgeStyle;rounded=0;orthogonalLoop=1;jettySize=auto;html=1;fontSize=10;fontColor=#000000;exitX=0.5;exitY=0;exitDx=0;exitDy=0;entryX=0.5;entryY=1;entryDx=0;entryDy=0;" parent="o2r5oqSkqjpRhzMttfE8-1" source="o2r5oqSkqjpRhzMttfE8-15" target="o2r5oqSkqjpRhzMttfE8-23" edge="1">
          <mxGeometry relative="1" as="geometry">
            <mxPoint x="535" y="567" as="sourcePoint" />
            <mxPoint x="327.5" y="505" as="targetPoint" />
          </mxGeometry>
        </mxCell>
        <mxCell id="o2r5oqSkqjpRhzMttfE8-32" value="Kafka" style="rounded=1;whiteSpace=wrap;html=1;labelBackgroundColor=none;strokeColor=#82b366;strokeWidth=1;fillColor=#008C00;arcSize=8;absoluteArcSize=1;fontStyle=1;fontSize=10;fontColor=#FFFFFF;" parent="o2r5oqSkqjpRhzMttfE8-1" vertex="1">
          <mxGeometry x="487.5" y="480" width="75" height="19" as="geometry" />
        </mxCell>
        <mxCell id="Ila94Rkqlkfn3zGHDgZ3-2" value="Event Hub" style="shape=image;verticalLabelPosition=bottom;labelBackgroundColor=#ffffff;verticalAlign=top;aspect=fixed;imageAspect=0;image=data:image/png,iVBORw0KGgoAAAANSUhEUgAAABkAAAAaCAYAAABCfffNAAABe0lEQVRIDbVWQU7DMBAco6b/Ia0EiPKU8gB65caZG9fyAPqVSIDUhv80B6OxsLXx2pIbB1+642xmdmcTNwYA2nb9amGfASyJZ1pnA/PW98eXKxL+gwBpl3+8cCIzdyCNcM4s5A7j/nSMty7G7Wo9usd3Ejb3+3fc3N6Bifwlrl3GWtsBuPdEJB6GwUM0TYPvr8+AJwQdOwkCJJACKTxBZKPsYuVyxVheK42VyON26ywiAQWIuWpmxZnYkopqZqU6yVVcMysl8nE4hOGTmJgrng1xrqDYGSWSqzg1q1xBsYiaySXex282yVMnhuokVTFvTlmTsjDuglh1kkriXqpDFuQt84/7bvekKIpFSq1RCkA46sO1lC28WGpNIBKBmolvnznyEc7NSnBlQ9o1OoVrbMmodAtjzOa6XYWjhbbIdyW2KUM02paF/vSnB2VXjS0jJQEMY9lJ6mUS+UVh1IlR//EyoYixIMnbdS7InZLieJ0IP8IAzC3kPu5Y2S8HMcEG4rOK5wAAAABJRU5ErkJggg==;" parent="o2r5oqSkqjpRhzMttfE8-1" vertex="1">
          <mxGeometry x="512.5" y="781" width="25" height="26" as="geometry" />
        </mxCell>
        <mxCell id="Ila94Rkqlkfn3zGHDgZ3-3" value="" style="rounded=1;whiteSpace=wrap;html=1;labelBackgroundColor=none;strokeColor=#000000;strokeWidth=1;fillColor=none;fontColor=#000000;arcSize=20;absoluteArcSize=1;" parent="o2r5oqSkqjpRhzMttfE8-1" vertex="1">
          <mxGeometry x="477.5" y="770" width="95" height="114" as="geometry" />
        </mxCell>
        <mxCell id="Ila94Rkqlkfn3zGHDgZ3-4" value="Zookeeper" style="rounded=1;whiteSpace=wrap;html=1;labelBackgroundColor=none;strokeColor=#82b366;strokeWidth=1;fillColor=#008C00;arcSize=8;absoluteArcSize=1;fontStyle=1;fontSize=10;fontColor=#FFFFFF;" parent="o2r5oqSkqjpRhzMttfE8-1" vertex="1">
          <mxGeometry x="487.5" y="836" width="75" height="19" as="geometry" />
        </mxCell>
        <mxCell id="Ila94Rkqlkfn3zGHDgZ3-11" value="" style="rounded=1;whiteSpace=wrap;html=1;labelBackgroundColor=none;strokeColor=#000000;strokeWidth=1;fillColor=none;fontColor=#000000;arcSize=20;absoluteArcSize=1;" parent="o2r5oqSkqjpRhzMttfE8-1" vertex="1">
          <mxGeometry x="850" y="770" width="95" height="114" as="geometry" />
        </mxCell>
        <mxCell id="Ila94Rkqlkfn3zGHDgZ3-12" value="Object&#xa;Store" style="shape=image;verticalLabelPosition=bottom;labelBackgroundColor=#ffffff;verticalAlign=top;aspect=fixed;imageAspect=0;image=data:image/png,iVBORw0KGgoAAAANSUhEUgAAABgAAAAaCAYAAACtv5zzAAAFEUlEQVRIDYVVTWhcVRT+znlv3kxTXtIkRhPiCImCtpG2xBYqgZJspP5thBRcaLvR0p1I95PQhS5swaWiFN0oEUQIRlcmlhb/orbQWNvQxjb9SU2HtE4yzUzmvSPfm3eb0Va8cDnvvnvud8757jnnCupDAVg6+acJQCeA7QC6ALwAYE+q68TXAMYBLAA4lcpyuil3sUZGRtTMhDMIgidVURCRkyJyUwQmIg2TazfX/wMoisgJVYwSg1g0ROzkIwzDB1ZWVt4ws9cAPJh68ReAKwBmReQ6gBjASrq3EQCdehhAL4BHAIR1EuSGmb0fhuG7pVKpSP2NIvJVg6dTqvp6JpPZ0dLS0toYoYvUycHBQb+5ubmNuqp6QES+ITXEAjBBbJ+RpPxeV9VD+Xz+87m5uQotp4q6d+9eXVxclI6ODqPkXqlUkt7e3vj27dtLAH7m7Onp+Wh+fv6lKIqOiMizZlZILkNECHY0iqJDo6OjMjU1pVNTUzY8PJwwcj/wMAzp5d1B4319fVYoFMzzvHfiOH6TmzRwQkQGAPwQBMGrq6ur5NxIA43NzMwIDdBjgv5bEnhsbIz3k4xcLvdYtVr9GMAuMzvJn/vWswXzAN7KZDL9bW1tzY7r/5Otra0tmQy2q+rbIrjs7hPAfkawUwSTgGw0M1IFM7sjIr+I2K+AnhUR5jovbznNHtaJRlHUoapbzWwbYP2AbEgDoVgxsyF+sJAuiUhNVY8A+AzAYt2Le3I+AlBzHjqd1Piiqo6p4qiIRCK41NTU1MUsYpGcZy6LyCkzO5TNZh+PomizGb1Cm5k9AaC7nlhJxdOxeRGZBexPVe+053lnK5XKOd/3XzGLFZDz5XK5SANVM7vME2bWR0lFAJxfcN3Z2dlULpdzqhrzPuh5LperLiwsuNZAtWSY2RZ+iMh8HMdrNABVnSH/5LK7u3vDwMBAxeU7s+TgwYN3CoXCPWCsD553aXz8+PGcmW1PK/oMHXEGfouiiMXVe+vWrZa+vr4b4+Pj6nKddTEzM/OPvHcOJG4DYA1MTEywXfQAUlFVYkpSldlslrn7Ldnwff/parX609DQkEfvHUCjdOCNNTE9PV0LgmBnrVb7jp01CILdlUrlAkOUrq4uNrU5shXHMZvXfw4HTgUXoVPmWTNjd57L5/NXeF8Jh+w9IkIDvIedlPfzvhGcOoyA0hkysx1cA/hjdna2yppKIkh//khpZpvd5XHtQC9evJg440AdPdQZHByM2VbiON5CUACkie9BfcVQfN9/Po5jvlBnW1tbdxWLxZIz5Iw4UCcJwjE5ORm1t7eHS0tL39NBz/NerNVqXyYRsN9Tyff9c4CVWNmlUunR+tH1CByok9wnjY5KnjFDl4iUfN9n4XKIjoyMJJ0wm80WAZk1s01xHPM9vkuPA3WSew44gQGwtrb2kAg28QXMZrM3SRkZp4Ekgv7+fj6RV+vNLtrNgwyds7FNO0BKtmnXqlV1d73AcI1YbPO8g0R/eHjYS1JKcTht3asAjvm+/0wYhu3cu9/kW04dVT0mIsxEU9XD1OVzSop8LkZHR5OCCgJ8UK1q3sxeFpH9URTtW15e/t3zvDNkDMCdNAK2ZRreCoCNkJ4yLY8FQfBhQ5T1CGiN03nped5zqvqJiCSPB7l0rXldun9yWVU/9X1/j2OCWPymYVpwk1Hwm9K1CLbopwBsA3Agbdl08CqA9wCcBjAN4FrqNe/TnU1+/Q2B+OssHGkVJgAAAABJRU5ErkJggg==;" parent="o2r5oqSkqjpRhzMttfE8-1" vertex="1">
          <mxGeometry x="885.5" y="777" width="24" height="26" as="geometry" />
        </mxCell>
        <mxCell id="Ila94Rkqlkfn3zGHDgZ3-13" value="MinIO" style="rounded=1;whiteSpace=wrap;html=1;labelBackgroundColor=none;strokeColor=#82b366;strokeWidth=1;fillColor=#008C00;arcSize=8;absoluteArcSize=1;fontStyle=1;fontSize=10;fontColor=#FFFFFF;" parent="o2r5oqSkqjpRhzMttfE8-1" vertex="1">
          <mxGeometry x="860" y="840" width="75" height="19" as="geometry" />
        </mxCell>
        <mxCell id="Ila94Rkqlkfn3zGHDgZ3-14" value="(Bulk) Data Flow" style="shape=image;verticalLabelPosition=bottom;labelBackgroundColor=#ffffff;verticalAlign=top;aspect=fixed;imageAspect=0;image=data:image/png,iVBORw0KGgoAAAANSUhEUgAAAC0AAAAtCAYAAAA6GuKaAAAIsklEQVRoBb1ZXYhdVxVee+9z5udOaELIpKHWSKKjhUFCNA9qMU5KfVActOhEEB/yor7V4g++iMMkIEiL1jcRQSiKkigGIuKDNZeAijYNiox5uBjyEMN05nZq0zHOvffcveXb3d9hZd9zM5M+eODO2nv9fnvttdf5GZE3L9NAd8uDKXSpj/mzIhLG/D7fEIs+SOlL0zpGgWBLS0t2Y2PDzM7OhpzCS87DHPwm/fPnz3vnnAkBmOsLk2hjrXVVVZlTp0452EPjQfxfuHAhWGSDRjdu3LAEQmfjZNQjpX6CyQylaSRchceMduP8Q2eMLIKOGQbgo0ePeijqSHSuZeRpqm3GjOk3UsahD+2f9rkMc8jqTI8zyrNPRzmFMzpNtczYoASseXW26UsLySPVMoCua1kLqKwXQ15OYUde8jGpfWVjp/Uzu6hKHintuTs4iLF2KACFcl4udJDTXB9zY8yfRORhEemrrCPbpTHmn9BhvRIIeLh2ig2duG1LS0uOxuNA6SDUYRAtu3Xrltu7d6+/evVqBfnKyopZXl7mIZT5+flyeno66B2EHi76JW3itdvtYWx5b5rsvEoNjg71jly+fHlYFMWnvPfPWWt79LuysoIhgKM0Xmu1WouLi4sb7Xa7rnUCJaV/HRMy8AG6bnlQ0Bmgg5xqh1offBHZJyLvSOMm8ob3fgLZb7fbUX4//5RBEfhA64P4oF1CZyBDFvtwxqvLQ0QGqs53VRIArv3VB1FnjKvLKQzJwxh3P+0sjXH48qsug3SOIgj40uUFI/rPKWWgsTyoQIHOImULCwteH6hoXBSfCCF8RERQvwA2CCG8D7KUTfB0ljiPi3gr5QjH8SCyVgiQFAqQ4YDt37//oXPnzn0yhPCkiEydPHnycyGExRDCFyLE0T8RGDuUEk9wrONwnFPogscdwTxmmgKdYfJQAkVRPOW9/46IvAt8EenevHkTtttpjmwSZGI1E2PMz44cObKOVjguWQQODxow9euDqAFDEQbpie3L3vtfKsAQ9fCkpmDpsWKPDp1zP1xdXR20223E3rGGmWHigw0M72l5XGXquR8LIXxvNLTI1NQUDuGuwSYfv+n3+y/jsfRBAUN/x0zPzc1NeO/PpWDIPH+Rtb29jQWze8SdGaNL2atlWX496eyYYQDUHY12oKjLegVcCcqiLMtTIsJOMJLRlOm4xdphQ/Zh23XOne71etf58M/t1hR+mmqY/lm2sTw4oRGo9/5xKjfQuL0K4Miikk3fGHNhYmLiQ4PBoL0bwOMyzLKF39jyCEoLRORR8lXPjSxjzPOdTqfvnHtFRG6KyH+TLsBbY8xfjDEvOude6vV6/4Bst4AzDNEteDyQYMSWp7cICgpAGt574Ky1f4Xg8OHDz1ZV9Zz33lhro91gMLBra2t3afhWDx3tuQhd3zHTeiVYQDJoqtcoCiHE8jhz5kx/dXXVzM/PR8Ac66zCgIFzqmUaVIo/Ykd+nekGo/rORWVFS4zZa/mICVDgERx0OM4pZdx2lawYZpw+hHWmcyNjzE9F5Lp6KmOLK8qy/Hv0rP4gSA4gD8w5zJr06Y56pNQnRoCuWx6Fs7OzeyYnJ192zv1RdYgQQsAh81VVTaGPHz9+vIIjOte7RVB8gyGgjLLPR/aJEycK+qBPYmJCMI/loR2pZ40fiQgOFGpcH07MN2/fvv3BTqezdvr06Xs+9DAIFgPArVbr0V6v90W8H6abEc8MAMeWKyITxpg/VFV1cdx54GIIus4UVpcWgMUgyF69IDUe8jDqTEPODNFXVVUPhxC+qWzHDQ+JyEXa574YB/yYaTJAk0dSLIJjHSygTLRjPdaBrbV3ROTFlNWhiDyW7gF4WfiziOAFGJ8crsEHMdAHqZYB9D1fmCBU5ZCmIyQ45+IbCsqJUtTk4uLiEK0PLw14/Nze3u6IyEep45x7PoTwNF5wDxw48PH19fX/UAYKkGih8KEBax2AjqvTNdOQXZYNbWe2trZ+4JyLz9MhhElr7a+rqnrh0KFDLShduXJF+v1+cfbs2W+JyCMigiyjrD6QnDzU7XZ/7JzjW3tprf3+sWPHXmq325NlWfpWqzXkYYcNFgEay2PcihT4vESwnZ/WX0ZDCBtzc3M/X19f/62IvC1tOw7aOxPInEyLyGe0j+FwuHDt2rXXUilNWWu/2ul0fpEfTjitAQE8trTVal1kjeWR7jPvpxeDd4vIERGZuw/gcW4Oish7ku3b2QiACy2PmY4tRx9E1NKdO3c28VqkPOvy0GOlIiaBxieC/GqyaeLBTvPjGPh0+cZM65Xw9E5PT/9ERP6Vote7oXcmQ8ZgWpcqu+VBX+tGn8BHXFCoM61Xghra2tp6xVqLU86LoEjJJzVFUUDWJN8tD760blwAAevyaGwtuNNVVfUra+0ZdWckwCbq+/0+ksAXhFxHg7mfTGe61tPZRpC6oVOD5ZKAv1AUxeN4AxER3CganeJWvG/fPtwouiLy70RfTT5hk9vpOcdbIrKWbPEIEVsqATPTseURLCgVWC4olX6//zcR+Wyr1Xqk1+t9LYTw/vTtOZZXuqNdx6eBPXv24GMO/lGEn+31et8OIeCDJBYEcMg4KULCB25QE865s9baW0VRvA7BzMzMG03PNvUdEXXDDBMwF8E+effu3dsi8hXw8wutMp2FdcrAW15eRnnt6jp48OBMt9v9nff+G4PB4ArsL1265IiHmY7bsrCwUDDDpIjCMamOTB7pTjLqaQobJit9GHomhPBdEfm99/5JJosHEfr4qI6tqTNMhxByrCmBgcdmrx022Y3jwY6AoYPbfwjhSynGE2VZfhgfjHL/kNcHkVuQjOoM0IiUgHN92FHGhY7jMQb1keXNzc33prthFHvvn6AeKfQxjqAZBJQCzdNGAE/A1IWc+pQ18cbpQ9cYg25RPzGKyMjTHxNHPLFM0qlGnf+/f8TxlIjgIOMLLf+tN4Llf8AT6p/7ovYBAAAAAElFTkSuQmCC;" parent="o2r5oqSkqjpRhzMttfE8-1" vertex="1">
          <mxGeometry x="699" y="777" width="37" height="37" as="geometry" />
        </mxCell>
        <mxCell id="Ila94Rkqlkfn3zGHDgZ3-15" value="" style="rounded=1;whiteSpace=wrap;html=1;labelBackgroundColor=none;strokeColor=#000000;strokeWidth=1;fillColor=none;fontColor=#000000;arcSize=20;absoluteArcSize=1;" parent="o2r5oqSkqjpRhzMttfE8-1" vertex="1">
          <mxGeometry x="670" y="770" width="95" height="114" as="geometry" />
        </mxCell>
        <mxCell id="Ila94Rkqlkfn3zGHDgZ3-16" value="StreamSets" style="rounded=1;whiteSpace=wrap;html=1;labelBackgroundColor=none;strokeColor=#82b366;strokeWidth=1;fillColor=#008C00;arcSize=8;absoluteArcSize=1;fontStyle=1;fontSize=10;fontColor=#FFFFFF;" parent="o2r5oqSkqjpRhzMttfE8-1" vertex="1">
          <mxGeometry x="680" y="840" width="75" height="19" as="geometry" />
        </mxCell>
        <mxCell id="Ila94Rkqlkfn3zGHDgZ3-17" value="write" style="edgeStyle=orthogonalEdgeStyle;rounded=0;orthogonalLoop=1;jettySize=auto;html=1;exitX=1;exitY=0.5;exitDx=0;exitDy=0;fontSize=10;fontColor=#000000;" parent="o2r5oqSkqjpRhzMttfE8-1" source="Ila94Rkqlkfn3zGHDgZ3-15" target="Ila94Rkqlkfn3zGHDgZ3-11" edge="1">
          <mxGeometry relative="1" as="geometry">
            <mxPoint x="775" y="950" as="sourcePoint" />
            <mxPoint x="850" y="822.5" as="targetPoint" />
          </mxGeometry>
        </mxCell>
        <mxCell id="Ila94Rkqlkfn3zGHDgZ3-18" value="consume" style="edgeStyle=orthogonalEdgeStyle;rounded=0;orthogonalLoop=1;jettySize=auto;html=1;exitX=1;exitY=0.5;exitDx=0;exitDy=0;fontSize=10;fontColor=#000000;entryX=0;entryY=0.5;entryDx=0;entryDy=0;" parent="o2r5oqSkqjpRhzMttfE8-1" source="Ila94Rkqlkfn3zGHDgZ3-3" target="Ila94Rkqlkfn3zGHDgZ3-15" edge="1">
          <mxGeometry relative="1" as="geometry">
            <mxPoint x="375" y="832.5" as="sourcePoint" />
            <mxPoint x="487.5" y="832.5" as="targetPoint" />
          </mxGeometry>
        </mxCell>
        <mxCell id="Ila94Rkqlkfn3zGHDgZ3-19" value="" style="rounded=1;whiteSpace=wrap;html=1;labelBackgroundColor=none;strokeColor=#000000;strokeWidth=1;fillColor=none;fontColor=#000000;arcSize=20;absoluteArcSize=1;" parent="o2r5oqSkqjpRhzMttfE8-1" vertex="1">
          <mxGeometry x="257.5" y="770" width="95" height="114" as="geometry" />
        </mxCell>
        <mxCell id="Ila94Rkqlkfn3zGHDgZ3-21" value="push" style="rounded=0;orthogonalLoop=1;jettySize=auto;html=1;fontSize=10;fontColor=#000000;exitX=1;exitY=0.5;exitDx=0;exitDy=0;entryX=0;entryY=0.5;entryDx=0;entryDy=0;" parent="o2r5oqSkqjpRhzMttfE8-1" source="Ila94Rkqlkfn3zGHDgZ3-19" target="Ila94Rkqlkfn3zGHDgZ3-3" edge="1">
          <mxGeometry relative="1" as="geometry">
            <mxPoint x="165" y="687.5" as="sourcePoint" />
            <mxPoint x="270" y="827" as="targetPoint" />
          </mxGeometry>
        </mxCell>
        <mxCell id="Ila94Rkqlkfn3zGHDgZ3-23" value="Kafka" style="rounded=1;whiteSpace=wrap;html=1;labelBackgroundColor=none;strokeColor=#82b366;strokeWidth=1;fillColor=#008C00;arcSize=8;absoluteArcSize=1;fontStyle=1;fontSize=10;fontColor=#FFFFFF;" parent="o2r5oqSkqjpRhzMttfE8-1" vertex="1">
          <mxGeometry x="487.5" y="860" width="75" height="19" as="geometry" />
        </mxCell>
        <mxCell id="Ila94Rkqlkfn3zGHDgZ3-24" value="IoT Device" style="shape=image;verticalLabelPosition=bottom;labelBackgroundColor=#ffffff;verticalAlign=top;aspect=fixed;imageAspect=0;image=data:image/png,iVBORw0KGgoAAAANSUhEUgAAACQAAAApCAYAAABdnotGAAAE/ElEQVRYCe1XXWgcVRT+7sxmdnZm192pNhtIQkJCaGJ0BYXUBCNLCoYYJYo/FYIgLT74IJIqgvgSREQCSvvkQ8EHLT74oPj/pKj4YFCxNVatEjU2lijb1BjXzW6298pJ7l0mw8zOZFeKSA/cOfeee/7m3HPuD4QQrL+//1gymRQ9PT0n8vl8DEA6n8+bkDA6OnrAcZySYRin29rauhU9CI+Pj98/NDR0OJ/PJ4N4Aunt7e1PaJpWBiCoZTKZRwzDeNIwjDcAOGNjY12pVOoHNa/r+ruO46QDFQLo6+vbb5pmIZFInARwbz1eAEZnZ+c1QggKBJhhGKJSqdRkNE1b55z/AaATwIKmaeCcX6sYGGMQQgwB+EzRfDAp/wDAKIDPATwAoEXykbFNAJb8ybRpms9ZlvXhyMjIsVhra+vx5eXlB5VSzvmnmqbtsW37r/X19fc45zaAdgB7iEcI8SWAs4rfDwshLiaTybPFYpGmWwHcDUADwAHkAFwP4BXpWGJjY2Ngc3NzH+d8HsPDwwkAzzDGvgHwAoChWCx2OpPJLAJ4C8CjAG4H8AmAjwAM+znhpk1MTOw1TfNHGYGX5Rw5RPAQgF9khGjsOI4z193dfSPl8zbL9vcKOaDloJBelArflvQ4AGqhMDk5eU9HRwflDxl3PAJEI2eVrh1ObCWSFPhT4u8A3AKgF8AFAN9LOiV+JOjt7Z0fHBy8dW5u7lyAADmhHKFiigSUtAcjce6OifKVIqQc2iHtjhASiURHqVRqo1KUVXYdgG/leIdggwOqMNrHaLkoF2m8AmBZ6at5OTAwcPPi4uKLlUqFHKIwUllSLpFQjU8JNohJL/0sbQF/k17G2Iqu64eq1erHO3Sm0+nXpSNbG+Ql7r+mnFGliLW1tZ8V8VLjdDpNxbMFtRwyTfMo57xDLhmVfFRQESV+WtrdLK9OS1Yul5/2NTY7O0sRo0NV7TlRMJ1re2WjfhQZxUO2aqvk61QDxKcA0N5FjfpNQW3JmtBCZbxPyodeTcLs/Bvhcutw98Ns+87vJgF9FQC4wRWhMwC+CGKMQg9ziDawPAC6glA1+UFVXitojiJULw3m5c7spycSLQNgSTpDdxnVVKmrcRhW/HeEWa33NyTrjoo7muvySLkyzIBn3q3PM7U9jJKE9PduqCSTyZdyudzzLS0tFD0Cuhqe0XX9V13XJakxFBYhP606PQoKhUKMc34VgK9M0zzCOV/JZrNWqVS6rVAoPOa6EfrpaJhGO+9P3oOWMXZB13U6rc9ns9kDtm0/C+BcJpM5NT09fTCVSgUd1FMNeyIFfR1SDlqW9ebU1NSd8Xh8K2kZYyIej5fkTVMlshuHOhRlydzJXPtBeg51dXX9Vq1W93O+nWZCCJTLZTqfao/MmkDETpSk9q0MMr60tNS1sLDwfrVapb1IAb1OTngqVM2F4igOBSopl8sjq6urKcbY4wBO6rr+jm3bD2uadn6X15BAG96JujlEUaD7jGVZh+jxF4vFbgJwXOWYDw7NIa8D3jHt1L/7KHYnqurT/Vv1g/BdXgPecVhSU8XQHYcekWQkCCjxqSlHvHxq/mvvxP97nMvl7Hg8fgTAUdu2j83MzNznfZ/vNgJhS1ZXX7FYpGvJYQBXEyNjjI6SV0OWt67Opsqedmb5mFRG6FHZFDTlUFOWA4QvOxQQmBr5coRqoQjo/Oci9A92ZpfjXyNijgAAAABJRU5ErkJggg==;" parent="o2r5oqSkqjpRhzMttfE8-1" vertex="1">
          <mxGeometry x="287" y="781" width="36" height="41" as="geometry" />
        </mxCell>
        <mxCell id="Ila94Rkqlkfn3zGHDgZ3-25" value="" style="rounded=1;whiteSpace=wrap;html=1;labelBackgroundColor=none;strokeColor=#000000;strokeWidth=1;fillColor=none;fontColor=#000000;arcSize=20;absoluteArcSize=1;" parent="o2r5oqSkqjpRhzMttfE8-1" vertex="1">
          <mxGeometry x="670" y="940" width="95" height="114" as="geometry" />
        </mxCell>
        <mxCell id="Ila94Rkqlkfn3zGHDgZ3-27" value="Console&#xa;Consumer" style="shape=image;verticalLabelPosition=bottom;labelBackgroundColor=#ffffff;verticalAlign=top;aspect=fixed;imageAspect=0;image=data:image/png,iVBORw0KGgoAAAANSUhEUgAAADcAAAA3CAYAAACo29JGAAAGF0lEQVRoBd1aS0hVXRRelpavNE3NRxK9UKSB4MCciILiQFEDh0k2aNCokBoUDQMH6qCHA0FxkImO8gVhWSgKImg5k0BTUPNRaqJmvlrxnZ+9ueee48l9Pef237vgsvfZe61vrW+/zj573wBmZvJTOeanvDRafk0uUPTc79+/aXt7Wzz6bHry5Ek6duy/PtPINTY2Ul1dHW1ublJAQIDPEsPyERYWRnfu3KHbt28TvX79GguK3/1evXrFlJyc7HfE0FkRERGMMah7FZw+fZowbn3pDYGphPXix48fuillIPfy5UsqLi6mX79+6RT/zw/ojO7ubrpx44YuTLlaitLo6GiKiIjQfqLMF9KoqChDmIb3HF4JvihmcRvI2U1sZWWFdnZ27IY9FJ6j5JqamujKlSuUk5NDCwsLhwrITiVHyWFjgJ4bGhqi5uZmO+M+FJaj5K5evSqDwGrmbXGU3PXr1yWfkZERmpiYkM/eyNhObmZmhl68eEF9fX2UnZ1NZ8+e1Xhg3/ru3TsDpw8fPmj6s7Ozhjo7CnTbr66uLny/Ksvnz5+5srKSY2JiNLzjx4/z2NgY37x5U+IXFBTocIeHhxl62CXBDvbA8UQQt8keWb9pViU3OjrKFRUVHBoaagDv6enhjo4OWX7q1CmempqSsbvWicCAAzzgqoit5Hp7e7m0tJSDgoJk8CLA8PBwvnv3Lu/u7vLi4qLsTdQ3NDTImLe3t/nevXsMfWEr0sDAQA3//fv3Ut8qYwu5/v5+zs3NNQSDoGJjY/n+/fs8OTmpi6OkpETqI+8uX7584QcPHmj2gpxrmpOTw/BrJUcmNz8/z2fOnJGBigAuXrzIz54903rJLICmpiZpA/u5uTkzNc0eOMAT2CKNjo5m+D9IzMgprZZ7e3umXwuhoaGUkJBAZptXrHh5eXmETynI8vIyYYU0E9gnJiYS8NwFXym7u7vuxX991rUSWsBKWltbOSUlRWcjWjctLY2fP3/Oy8vLBojCwkJpU1ZWpqtfWVnR7GAvsFxT+INfKzHrOTDXAf6NHBxsbW0xPuMzMzN1tgIrKSmJq6ureX9/X8ZTX18vdePi4vjbt29aXU1NDUNf2LqmwG9ubuafP39KnIMytpETDhA8QPPz802De/PmjVDliYkJDgsLk3rd3d3aIuFKRuSBB1zXxpFAB2TMyCnNOfcBjiO0oqIievv2LQ0MDFBZWRmdOHFCqgUHB8v8pUuX6Nq1a/K5vb1dO84QBbCDPXCAB1xxRCd0PElla6Ll0AJHkY8fP/Ljx4+5paXFAIOVUPROYmIir66ucltbm6b/6dMng75KgVnPoTGkQzvIWQU0Pj7OwcHB0l9nZ6eVulKdGbkjDUvVYZKamkoZGRnSrLOzU+adyHiVHAhgLgkZHR0VWUdSr5MrLy+n9PR0CgkJoVu3bjlCSoAajvZEhVNpUlISDQ4O0urqKp07d84pNxqu18nBKy4r8HNaDMPSV295zOI29Bw2xxCRut8ZCBCUI+9eb9Ub7voCS9i4Y4n6v/kKCgqS8QospIa7ggsXLlBkZKRS0K6A/yKPRlhbW6OpqSmd+wDs93B442+ibf2ePn0qdwzuuxVffq6treUA7HEePnxIuDq240wfQwQjQeXDEnMGq6f7nPNkNAGroqKCqqurSSMHkO/fvyvdibtPcjH5sbvHfbTKCXNhYaHWuAf94eAgX+7l4IGv+NjYWK1d5GoZExND+Nkhqu+w8PBweXhrh3+BYXjPiYqjpGZ3ZVZ4qvpWWK51jpBzdfAv846QE/PvsMRU9Q+LK+fcYQ2E3vr6usjqUly+i92NrsLiASsrfmZ/MgBxzGFPGkCulha+dVX9/f2EV8f8/LypQwSxtLREGxsbOjurBwSP2yCzVwHK4uPjqaqqSruhtcIx1Kl8yy8tLTHOPv7Fyz0+Pp4XFhZUwmWlOYe929evXw0N5I0C3KlPT08ruVIid/nyZTp//rySA7uUk5OTCf5VRHnODQ8P06NHjwg3oZ5McpXgoIs5hy/2J0+eUFZWlpK5MjmBvrW1JbKOpzhv8UQ8JueJM2/bKM05bwd3VH9+Te4P2dpkB9RFdXIAAAAASUVORK5CYII=;" parent="o2r5oqSkqjpRhzMttfE8-1" vertex="1">
          <mxGeometry x="702.5" y="950" width="30" height="30" as="geometry" />
        </mxCell>
        <mxCell id="Ila94Rkqlkfn3zGHDgZ3-28" value="consume" style="edgeStyle=orthogonalEdgeStyle;rounded=0;orthogonalLoop=1;jettySize=auto;html=1;exitX=1;exitY=0.75;exitDx=0;exitDy=0;fontSize=10;fontColor=#000000;entryX=0;entryY=0.5;entryDx=0;entryDy=0;" parent="o2r5oqSkqjpRhzMttfE8-1" source="Ila94Rkqlkfn3zGHDgZ3-3" target="Ila94Rkqlkfn3zGHDgZ3-25" edge="1">
          <mxGeometry relative="1" as="geometry">
            <mxPoint x="582.5" y="837" as="sourcePoint" />
            <mxPoint x="680" y="837" as="targetPoint" />
          </mxGeometry>
        </mxCell>
        <mxCell id="Ila94Rkqlkfn3zGHDgZ3-29" value="kafakat" style="rounded=1;whiteSpace=wrap;html=1;labelBackgroundColor=none;strokeColor=#666666;strokeWidth=1;fillColor=#f5f5f5;arcSize=8;absoluteArcSize=1;fontStyle=1;fontSize=10;fontColor=#333333;" parent="o2r5oqSkqjpRhzMttfE8-1" vertex="1">
          <mxGeometry x="680" y="1022" width="75" height="19" as="geometry" />
        </mxCell>
        <mxCell id="Ila94Rkqlkfn3zGHDgZ3-30" value="iot-simulator" style="rounded=1;whiteSpace=wrap;html=1;labelBackgroundColor=none;strokeColor=#666666;strokeWidth=1;fillColor=#f5f5f5;arcSize=8;absoluteArcSize=1;fontStyle=1;fontSize=10;fontColor=#333333;" parent="o2r5oqSkqjpRhzMttfE8-1" vertex="1">
          <mxGeometry x="267.5" y="852" width="75" height="19" as="geometry" />
        </mxCell>
      </root>
    </mxGraphModel>
  </diagram>
</mxfile>
